<?xml version="1.0" encoding="UTF-8" standalone="no"?>
<!DOCTYPE svg PUBLIC "-//W3C//DTD SVG 1.1//EN"
 "http://www.w3.org/Graphics/SVG/1.1/DTD/svg11.dtd">
<!-- Generated by graphviz version 2.49.3 (20211027.1534)
 -->
<!-- Title: CAEN_FELib_GetLibInfo Pages: 1 -->
<svg width="640pt" height="57pt"
 viewBox="0.00 0.00 640.00 57.00" xmlns="http://www.w3.org/2000/svg" xmlns:xlink="http://www.w3.org/1999/xlink">
<g id="graph0" class="graph" transform="scale(1 1) rotate(0) translate(4 53)">
<title>CAEN_FELib_GetLibInfo</title>
<polygon fill="white" stroke="transparent" points="-4,4 -4,-53 636,-53 636,4 -4,4"/>
<!-- Node1 -->
<g id="node1" class="node">
<title>Node1</title>
<g id="a_node1"><a xlink:title="Get a JSON string that contains informations about this library, like version, supported devices,...">
<polygon fill="#bfbfbf" stroke="black" points="458,-6 458,-25 632,-25 632,-6 458,-6"/>
<text text-anchor="middle" x="545" y="-13" font-family="Helvetica,sans-Serif" font-size="10.00">CAEN_FELib_GetLibInfo</text>
</a>
</g>
</g>
<!-- Node2 -->
<g id="node2" class="node">
<title>Node2</title>
<g id="a_node2"><a xlink:href="a00130.html#a9a3955f7fd19a8bf80b6594ed7f0cd9a" target="_top" xlink:title="Wrapper to CAEN_FELib_GetLibInfo()">
<polygon fill="white" stroke="black" points="233,-0.5 233,-30.5 422,-30.5 422,-0.5 233,-0.5"/>
<text text-anchor="start" x="241" y="-18.5" font-family="Helvetica,sans-Serif" font-size="10.00">caen_felib.lib._Lib.get</text>
<text text-anchor="middle" x="327.5" y="-7.5" font-family="Helvetica,sans-Serif" font-size="10.00">_lib_info</text>
</a>
</g>
</g>
<!-- Node1&#45;&gt;Node2 -->
<g id="edge1" class="edge">
<title>Node1&#45;&gt;Node2</title>
<path fill="none" stroke="midnightblue" d="M447.66,-15.5C439.21,-15.5 430.67,-15.5 422.25,-15.5"/>
<polygon fill="midnightblue" stroke="midnightblue" points="447.9,-19 457.9,-15.5 447.9,-12 447.9,-19"/>
</g>
<!-- Node2&#45;&gt;Node2 -->
<g id="edge2" class="edge">
<title>Node2&#45;&gt;Node2</title>
<path fill="none" stroke="midnightblue" d="M365.88,-40.96C361.12,-45.68 348.32,-49 327.5,-49 293.33,-49 280.78,-40.06 289.86,-30.66"/>
<polygon fill="midnightblue" stroke="midnightblue" points="369.35,-40.38 365.14,-30.66 362.37,-40.88 369.35,-40.38"/>
</g>
<!-- Node3 -->
<g id="node3" class="node">
<title>Node3</title>
<g id="a_node3"><a xlink:href="a00130.html#a22e9bd4746ccfb2f993ae33be877c7ad" target="_top" xlink:title="Get library info.">
<polygon fill="white" stroke="black" points="0,-6 0,-25 197,-25 197,-6 0,-6"/>
<text text-anchor="middle" x="98.5" y="-13" font-family="Helvetica,sans-Serif" font-size="10.00">caen_felib.lib._Lib.info</text>
</a>
</g>
</g>
<!-- Node2&#45;&gt;Node3 -->
<g id="edge3" class="edge">
<title>Node2&#45;&gt;Node3</title>
<path fill="none" stroke="midnightblue" d="M222.63,-15.5C214.21,-15.5 205.71,-15.5 197.33,-15.5"/>
<polygon fill="midnightblue" stroke="midnightblue" points="222.86,-19 232.86,-15.5 222.86,-12 222.86,-19"/>
</g>
<!-- Node3&#45;&gt;Node3 -->
<g id="edge4" class="edge">
<title>Node3&#45;&gt;Node3</title>
<path fill="none" stroke="midnightblue" d="M141.03,-31.72C143.24,-38.13 129.06,-43.5 98.5,-43.5 57.75,-43.5 46.13,-33.96 63.64,-25.11"/>
<polygon fill="midnightblue" stroke="midnightblue" points="143.22,-28.99 133.36,-25.11 138.65,-34.29 143.22,-28.99"/>
</g>
</g>
</svg>
