<?xml version="1.0" encoding="UTF-8" standalone="no"?>
<!DOCTYPE svg PUBLIC "-//W3C//DTD SVG 1.1//EN"
 "http://www.w3.org/Graphics/SVG/1.1/DTD/svg11.dtd">
<!-- Generated by graphviz version 2.49.3 (20211027.1534)
 -->
<!-- Title: CAEN_FELib_GetNodeProperties Pages: 1 -->
<svg width="1557pt" height="178pt"
 viewBox="0.00 0.00 1557.00 178.00" xmlns="http://www.w3.org/2000/svg" xmlns:xlink="http://www.w3.org/1999/xlink">
<g id="graph0" class="graph" transform="scale(1 1) rotate(0) translate(4 174)">
<title>CAEN_FELib_GetNodeProperties</title>
<polygon fill="white" stroke="transparent" points="-4,4 -4,-174 1553,-174 1553,4 -4,4"/>
<!-- Node1 -->
<g id="node1" class="node">
<title>Node1</title>
<g id="a_node1"><a xlink:title="Get the name and type of a node.">
<polygon fill="#bfbfbf" stroke="black" points="1322,-96 1322,-115 1549,-115 1549,-96 1322,-96"/>
<text text-anchor="middle" x="1435.5" y="-103" font-family="Helvetica,sans-Serif" font-size="10.00">CAEN_FELib_GetNodeProperties</text>
</a>
</g>
</g>
<!-- Node2 -->
<g id="node2" class="node">
<title>Node2</title>
<g id="a_node2"><a xlink:href="a00118.html#a628025186cdf85cf7459c5b3972172ac" target="_top" xlink:title="Wrapper to CAEN_FELib_GetNodeProperties()">
<polygon fill="white" stroke="black" points="1074,-90.5 1074,-120.5 1286,-120.5 1286,-90.5 1074,-90.5"/>
<text text-anchor="start" x="1082" y="-108.5" font-family="Helvetica,sans-Serif" font-size="10.00">caen_felib.device.Node.get</text>
<text text-anchor="middle" x="1180" y="-97.5" font-family="Helvetica,sans-Serif" font-size="10.00">_node_properties</text>
</a>
</g>
</g>
<!-- Node1&#45;&gt;Node2 -->
<g id="edge1" class="edge">
<title>Node1&#45;&gt;Node2</title>
<path fill="none" stroke="midnightblue" d="M1311.76,-105.5C1303.17,-105.5 1294.54,-105.5 1286.06,-105.5"/>
<polygon fill="midnightblue" stroke="midnightblue" points="1311.83,-109 1321.83,-105.5 1311.83,-102 1311.83,-109"/>
</g>
<!-- Node2&#45;&gt;Node2 -->
<g id="edge2" class="edge">
<title>Node2&#45;&gt;Node2</title>
<path fill="none" stroke="midnightblue" d="M1224.83,-130.59C1219.66,-135.51 1204.72,-139 1180,-139 1140.45,-139 1125.93,-130.06 1136.43,-120.66"/>
<polygon fill="midnightblue" stroke="midnightblue" points="1228.3,-130.14 1223.57,-120.66 1221.35,-131.02 1228.3,-130.14"/>
</g>
<!-- Node3 -->
<g id="node3" class="node">
<title>Node3</title>
<g id="a_node3"><a xlink:href="a00118.html#a3cc5beb95fb74f4be44c04f84ed66a82" target="_top" xlink:title="Node name.">
<polygon fill="white" stroke="black" points="819,-124 819,-143 1038,-143 1038,-124 819,-124"/>
<text text-anchor="middle" x="928.5" y="-131" font-family="Helvetica,sans-Serif" font-size="10.00">caen_felib.device.Node.name</text>
</a>
</g>
</g>
<!-- Node2&#45;&gt;Node3 -->
<g id="edge3" class="edge">
<title>Node2&#45;&gt;Node3</title>
<path fill="none" stroke="midnightblue" d="M1063.63,-118.45C1047.06,-120.31 1030.26,-122.19 1014.42,-123.97"/>
<polygon fill="midnightblue" stroke="midnightblue" points="1064.37,-121.89 1073.91,-117.29 1063.58,-114.93 1064.37,-121.89"/>
</g>
<!-- Node4 -->
<g id="node4" class="node">
<title>Node4</title>
<g id="a_node4"><a xlink:href="a00118.html#ab640bd6bd3ecc06e6a89e62ac1961696" target="_top" xlink:title="Node type.">
<polygon fill="white" stroke="black" points="819,-68 819,-87 1038,-87 1038,-68 819,-68"/>
<text text-anchor="middle" x="928.5" y="-75" font-family="Helvetica,sans-Serif" font-size="10.00">caen_felib.device.Node.type</text>
</a>
</g>
</g>
<!-- Node2&#45;&gt;Node4 -->
<g id="edge5" class="edge">
<title>Node2&#45;&gt;Node4</title>
<path fill="none" stroke="midnightblue" d="M1063.63,-92.55C1047.06,-90.69 1030.26,-88.81 1014.42,-87.03"/>
<polygon fill="midnightblue" stroke="midnightblue" points="1063.58,-96.07 1073.91,-93.71 1064.37,-89.11 1063.58,-96.07"/>
</g>
<!-- Node3&#45;&gt;Node3 -->
<g id="edge4" class="edge">
<title>Node3&#45;&gt;Node3</title>
<path fill="none" stroke="midnightblue" d="M974.96,-149.32C978.19,-155.91 962.71,-161.5 928.5,-161.5 883.82,-161.5 871.08,-151.96 890.28,-143.11"/>
<polygon fill="midnightblue" stroke="midnightblue" points="976.81,-146.33 966.72,-143.11 972.6,-151.92 976.81,-146.33"/>
</g>
<!-- Node4&#45;&gt;Node4 -->
<g id="edge18" class="edge">
<title>Node4&#45;&gt;Node4</title>
<path fill="none" stroke="midnightblue" d="M974.96,-93.32C978.19,-99.91 962.71,-105.5 928.5,-105.5 883.82,-105.5 871.08,-95.96 890.28,-87.11"/>
<polygon fill="midnightblue" stroke="midnightblue" points="976.81,-90.33 966.72,-87.11 972.6,-95.92 976.81,-90.33"/>
</g>
<!-- Node5 -->
<g id="node5" class="node">
<title>Node5</title>
<g id="a_node5"><a xlink:href="a00118.html#a7aa9c6de2f6259fcc67f346e744ea8af" target="_top" xlink:title="Wrapper to CAEN_FELib_GetChildHandles()">
<polygon fill="white" stroke="black" points="571,-112.5 571,-142.5 783,-142.5 783,-112.5 571,-112.5"/>
<text text-anchor="start" x="579" y="-130.5" font-family="Helvetica,sans-Serif" font-size="10.00">caen_felib.device.Node.get</text>
<text text-anchor="middle" x="677" y="-119.5" font-family="Helvetica,sans-Serif" font-size="10.00">_child_nodes</text>
</a>
</g>
</g>
<!-- Node4&#45;&gt;Node5 -->
<g id="edge6" class="edge">
<title>Node4&#45;&gt;Node5</title>
<path fill="none" stroke="midnightblue" d="M870.02,-89.02C835.34,-95.97 790.78,-104.9 753.31,-112.41"/>
<polygon fill="midnightblue" stroke="midnightblue" points="870.87,-92.42 879.98,-87.02 869.49,-85.56 870.87,-92.42"/>
</g>
<!-- Node8 -->
<g id="node8" class="node">
<title>Node8</title>
<g id="a_node8"><a xlink:href="a00118.html#afd75849228bcddd607859a36d8347ed5" target="_top" xlink:title="Wrapper to CAEN_FELib_GetHandle()">
<polygon fill="white" stroke="black" points="274.5,-65 274.5,-84 523.5,-84 523.5,-65 274.5,-65"/>
<text text-anchor="middle" x="399" y="-72" font-family="Helvetica,sans-Serif" font-size="10.00">caen_felib.device.Node.get_node</text>
</a>
</g>
</g>
<!-- Node4&#45;&gt;Node8 -->
<g id="edge11" class="edge">
<title>Node4&#45;&gt;Node8</title>
<path fill="none" stroke="midnightblue" d="M808.63,-76.82C723.73,-76.34 609.77,-75.69 523.77,-75.2"/>
<polygon fill="midnightblue" stroke="midnightblue" points="808.82,-80.33 818.84,-76.88 808.86,-73.33 808.82,-80.33"/>
</g>
<!-- Node9 -->
<g id="node9" class="node">
<title>Node9</title>
<g id="a_node9"><a xlink:href="a00118.html#a1ff942b5fadf7fcc3cb91f8323b8497a" target="_top" xlink:title="Wrapper to CAEN_FELib_GetParentHandle()">
<polygon fill="white" stroke="black" points="571,-0.5 571,-30.5 783,-30.5 783,-0.5 571,-0.5"/>
<text text-anchor="start" x="579" y="-18.5" font-family="Helvetica,sans-Serif" font-size="10.00">caen_felib.device.Node.get</text>
<text text-anchor="middle" x="677" y="-7.5" font-family="Helvetica,sans-Serif" font-size="10.00">_parent_node</text>
</a>
</g>
</g>
<!-- Node4&#45;&gt;Node9 -->
<g id="edge14" class="edge">
<title>Node4&#45;&gt;Node9</title>
<path fill="none" stroke="midnightblue" d="M879.27,-65.51C839.22,-55.56 782.02,-41.35 738.83,-30.62"/>
<polygon fill="midnightblue" stroke="midnightblue" points="878.51,-68.93 889.06,-67.95 880.2,-62.14 878.51,-68.93"/>
</g>
<!-- Node5&#45;&gt;Node5 -->
<g id="edge10" class="edge">
<title>Node5&#45;&gt;Node5</title>
<path fill="none" stroke="midnightblue" d="M721.83,-152.59C716.66,-157.51 701.72,-161 677,-161 637.45,-161 622.93,-152.06 633.43,-142.66"/>
<polygon fill="midnightblue" stroke="midnightblue" points="725.3,-152.14 720.57,-142.66 718.35,-153.02 725.3,-152.14"/>
</g>
<!-- Node6 -->
<g id="node6" class="node">
<title>Node6</title>
<g id="a_node6"><a xlink:href="a00118.html#a97bc987c78a57409e1972473bdc0befb" target="_top" xlink:title="List of child nodes.">
<polygon fill="white" stroke="black" points="285.5,-121.5 285.5,-151.5 512.5,-151.5 512.5,-121.5 285.5,-121.5"/>
<text text-anchor="start" x="293.5" y="-139.5" font-family="Helvetica,sans-Serif" font-size="10.00">caen_felib.device.Node.child</text>
<text text-anchor="middle" x="399" y="-128.5" font-family="Helvetica,sans-Serif" font-size="10.00">_nodes</text>
</a>
</g>
</g>
<!-- Node5&#45;&gt;Node6 -->
<g id="edge7" class="edge">
<title>Node5&#45;&gt;Node6</title>
<path fill="none" stroke="midnightblue" d="M560.53,-131.27C544.69,-131.78 528.44,-132.31 512.65,-132.83"/>
<polygon fill="midnightblue" stroke="midnightblue" points="560.99,-134.75 570.87,-130.93 560.76,-127.76 560.99,-134.75"/>
</g>
<!-- Node6&#45;&gt;Node6 -->
<g id="edge8" class="edge">
<title>Node6&#45;&gt;Node6</title>
<path fill="none" stroke="midnightblue" d="M448.85,-161.59C443.1,-166.51 426.49,-170 399,-170 355.02,-170 338.87,-161.06 350.55,-151.66"/>
<polygon fill="midnightblue" stroke="midnightblue" points="452.31,-161.07 447.45,-151.66 445.38,-162.05 452.31,-161.07"/>
</g>
<!-- Node7 -->
<g id="node7" class="node">
<title>Node7</title>
<g id="a_node7"><a xlink:href="a00118.html#a44c1c6b558a3bb1e5f628f5999b0ba46" target="_top" xlink:title=" ">
<polygon fill="white" stroke="black" points="0,-96 0,-115 227,-115 227,-96 0,-96"/>
<text text-anchor="middle" x="113.5" y="-103" font-family="Helvetica,sans-Serif" font-size="10.00">caen_felib.device.Node.value</text>
</a>
</g>
</g>
<!-- Node6&#45;&gt;Node7 -->
<g id="edge9" class="edge">
<title>Node6&#45;&gt;Node7</title>
<path fill="none" stroke="midnightblue" d="M274.98,-123.05C250.28,-120.35 224.81,-117.56 201.64,-115.03"/>
<polygon fill="midnightblue" stroke="midnightblue" points="274.82,-126.55 285.14,-124.16 275.58,-119.59 274.82,-126.55"/>
</g>
<!-- Node8&#45;&gt;Node7 -->
<g id="edge13" class="edge">
<title>Node8&#45;&gt;Node7</title>
<path fill="none" stroke="midnightblue" d="M300.72,-85.14C268.61,-88.65 233.12,-92.53 201.81,-95.95"/>
<polygon fill="midnightblue" stroke="midnightblue" points="301.45,-88.58 311.01,-84.01 300.69,-81.62 301.45,-88.58"/>
</g>
<!-- Node8&#45;&gt;Node8 -->
<g id="edge12" class="edge">
<title>Node8&#45;&gt;Node8</title>
<path fill="none" stroke="midnightblue" d="M450.11,-89.5C455.63,-96.44 438.59,-102.5 399,-102.5 349.32,-102.5 335.15,-92.96 356.5,-84.11"/>
<polygon fill="midnightblue" stroke="midnightblue" points="451.83,-86.45 441.5,-84.11 448.12,-92.39 451.83,-86.45"/>
</g>
<!-- Node9&#45;&gt;Node9 -->
<g id="edge15" class="edge">
<title>Node9&#45;&gt;Node9</title>
<path fill="none" stroke="midnightblue" d="M721.83,-40.59C716.66,-45.51 701.72,-49 677,-49 637.45,-49 622.93,-40.06 633.43,-30.66"/>
<polygon fill="midnightblue" stroke="midnightblue" points="725.3,-40.14 720.57,-30.66 718.35,-41.02 725.3,-40.14"/>
</g>
<!-- Node10 -->
<g id="node10" class="node">
<title>Node10</title>
<g id="a_node10"><a xlink:href="a00118.html#a6d10ab1e9b6a00bb00122421cd922b7c" target="_top" xlink:title="Parent node.">
<polygon fill="white" stroke="black" points="263,-6 263,-25 535,-25 535,-6 263,-6"/>
<text text-anchor="middle" x="399" y="-13" font-family="Helvetica,sans-Serif" font-size="10.00">caen_felib.device.Node.parent_node</text>
</a>
</g>
</g>
<!-- Node9&#45;&gt;Node10 -->
<g id="edge16" class="edge">
<title>Node9&#45;&gt;Node10</title>
<path fill="none" stroke="midnightblue" d="M560.62,-15.5C552.17,-15.5 543.59,-15.5 535.04,-15.5"/>
<polygon fill="midnightblue" stroke="midnightblue" points="560.87,-19 570.87,-15.5 560.87,-12 560.87,-19"/>
</g>
<!-- Node10&#45;&gt;Node10 -->
<g id="edge17" class="edge">
<title>Node10&#45;&gt;Node10</title>
<path fill="none" stroke="midnightblue" d="M450.11,-30.5C455.63,-37.44 438.59,-43.5 399,-43.5 349.32,-43.5 335.15,-33.96 356.5,-25.11"/>
<polygon fill="midnightblue" stroke="midnightblue" points="451.83,-27.45 441.5,-25.11 448.12,-33.39 451.83,-27.45"/>
</g>
</g>
</svg>
