<?xml version="1.0" encoding="UTF-8" standalone="no"?>
<!DOCTYPE svg PUBLIC "-//W3C//DTD SVG 1.1//EN"
 "http://www.w3.org/Graphics/SVG/1.1/DTD/svg11.dtd">
<!-- Generated by graphviz version 2.49.3 (20211027.1534)
 -->
<!-- Title: CAEN_FELib_GetLibVersion Pages: 1 -->
<svg width="685pt" height="57pt"
 viewBox="0.00 0.00 685.00 57.00" xmlns="http://www.w3.org/2000/svg" xmlns:xlink="http://www.w3.org/1999/xlink">
<g id="graph0" class="graph" transform="scale(1 1) rotate(0) translate(4 53)">
<title>CAEN_FELib_GetLibVersion</title>
<polygon fill="white" stroke="transparent" points="-4,4 -4,-53 681,-53 681,4 -4,4"/>
<!-- Node1 -->
<g id="node1" class="node">
<title>Node1</title>
<g id="a_node1"><a xlink:title="Get the value of CAEN_FELIB_VERSION_STRING used to compile the library.">
<polygon fill="#bfbfbf" stroke="black" points="480,-6 480,-25 677,-25 677,-6 480,-6"/>
<text text-anchor="middle" x="578.5" y="-13" font-family="Helvetica,sans-Serif" font-size="10.00">CAEN_FELib_GetLibVersion</text>
</a>
</g>
</g>
<!-- Node2 -->
<g id="node2" class="node">
<title>Node2</title>
<g id="a_node2"><a xlink:href="a00130.html#ac4b444d707c39df22a09750d9c04b584" target="_top" xlink:title="Wrapper to CAEN_FELib_GetLibVersion()">
<polygon fill="white" stroke="black" points="255,-0.5 255,-30.5 444,-30.5 444,-0.5 255,-0.5"/>
<text text-anchor="start" x="263" y="-18.5" font-family="Helvetica,sans-Serif" font-size="10.00">caen_felib.lib._Lib.get</text>
<text text-anchor="middle" x="349.5" y="-7.5" font-family="Helvetica,sans-Serif" font-size="10.00">_lib_version</text>
</a>
</g>
</g>
<!-- Node1&#45;&gt;Node2 -->
<g id="edge1" class="edge">
<title>Node1&#45;&gt;Node2</title>
<path fill="none" stroke="midnightblue" d="M469.83,-15.5C461.22,-15.5 452.55,-15.5 444.05,-15.5"/>
<polygon fill="midnightblue" stroke="midnightblue" points="469.91,-19 479.91,-15.5 469.91,-12 469.91,-19"/>
</g>
<!-- Node2&#45;&gt;Node2 -->
<g id="edge2" class="edge">
<title>Node2&#45;&gt;Node2</title>
<path fill="none" stroke="midnightblue" d="M390.01,-40.96C384.98,-45.68 371.48,-49 349.5,-49 313.43,-49 300.19,-40.06 309.77,-30.66"/>
<polygon fill="midnightblue" stroke="midnightblue" points="393.48,-40.37 389.23,-30.66 386.5,-40.89 393.48,-40.37"/>
</g>
<!-- Node3 -->
<g id="node3" class="node">
<title>Node3</title>
<g id="a_node3"><a xlink:href="a00130.html#a1e436b61f937ea687fa3897d286899cf" target="_top" xlink:title="Get library version.">
<polygon fill="white" stroke="black" points="0,-6 0,-25 219,-25 219,-6 0,-6"/>
<text text-anchor="middle" x="109.5" y="-13" font-family="Helvetica,sans-Serif" font-size="10.00">caen_felib.lib._Lib.version</text>
</a>
</g>
</g>
<!-- Node2&#45;&gt;Node3 -->
<g id="edge3" class="edge">
<title>Node2&#45;&gt;Node3</title>
<path fill="none" stroke="midnightblue" d="M244.55,-15.5C236.12,-15.5 227.58,-15.5 219.11,-15.5"/>
<polygon fill="midnightblue" stroke="midnightblue" points="244.78,-19 254.78,-15.5 244.78,-12 244.78,-19"/>
</g>
<!-- Node3&#45;&gt;Node3 -->
<g id="edge4" class="edge">
<title>Node3&#45;&gt;Node3</title>
<path fill="none" stroke="midnightblue" d="M154.1,-31.32C157.2,-37.91 142.34,-43.5 109.5,-43.5 66.61,-43.5 54.38,-33.96 72.81,-25.11"/>
<polygon fill="midnightblue" stroke="midnightblue" points="156.22,-28.53 146.19,-25.11 151.9,-34.04 156.22,-28.53"/>
</g>
</g>
</svg>
