<?xml version="1.0" encoding="UTF-8" standalone="no"?>
<!DOCTYPE svg PUBLIC "-//W3C//DTD SVG 1.1//EN"
 "http://www.w3.org/Graphics/SVG/1.1/DTD/svg11.dtd">
<!-- Generated by graphviz version 2.49.3 (20211027.1534)
 -->
<!-- Title: CAEN_FELib_GetParentHandle Pages: 1 -->
<svg width="776pt" height="57pt"
 viewBox="0.00 0.00 776.00 57.00" xmlns="http://www.w3.org/2000/svg" xmlns:xlink="http://www.w3.org/1999/xlink">
<g id="graph0" class="graph" transform="scale(1 1) rotate(0) translate(4 53)">
<title>CAEN_FELib_GetParentHandle</title>
<polygon fill="white" stroke="transparent" points="-4,4 -4,-53 772,-53 772,4 -4,4"/>
<!-- Node1 -->
<g id="node1" class="node">
<title>Node1</title>
<g id="a_node1"><a xlink:title="Get the parent handle of a node.">
<polygon fill="#bfbfbf" stroke="black" points="556,-6 556,-25 768,-25 768,-6 556,-6"/>
<text text-anchor="middle" x="662" y="-13" font-family="Helvetica,sans-Serif" font-size="10.00">CAEN_FELib_GetParentHandle</text>
</a>
</g>
</g>
<!-- Node2 -->
<g id="node2" class="node">
<title>Node2</title>
<g id="a_node2"><a xlink:href="a00118.html#a1ff942b5fadf7fcc3cb91f8323b8497a" target="_top" xlink:title="Wrapper to CAEN_FELib_GetParentHandle()">
<polygon fill="white" stroke="black" points="308,-0.5 308,-30.5 520,-30.5 520,-0.5 308,-0.5"/>
<text text-anchor="start" x="316" y="-18.5" font-family="Helvetica,sans-Serif" font-size="10.00">caen_felib.device.Node.get</text>
<text text-anchor="middle" x="414" y="-7.5" font-family="Helvetica,sans-Serif" font-size="10.00">_parent_node</text>
</a>
</g>
</g>
<!-- Node1&#45;&gt;Node2 -->
<g id="edge1" class="edge">
<title>Node1&#45;&gt;Node2</title>
<path fill="none" stroke="midnightblue" d="M545.89,-15.5C537.28,-15.5 528.62,-15.5 520.08,-15.5"/>
<polygon fill="midnightblue" stroke="midnightblue" points="545.96,-19 555.96,-15.5 545.96,-12 545.96,-19"/>
</g>
<!-- Node2&#45;&gt;Node2 -->
<g id="edge2" class="edge">
<title>Node2&#45;&gt;Node2</title>
<path fill="none" stroke="midnightblue" d="M458.47,-40.59C453.34,-45.51 438.52,-49 414,-49 374.77,-49 360.36,-40.06 370.78,-30.66"/>
<polygon fill="midnightblue" stroke="midnightblue" points="461.94,-40.14 457.22,-30.66 455,-41.02 461.94,-40.14"/>
</g>
<!-- Node3 -->
<g id="node3" class="node">
<title>Node3</title>
<g id="a_node3"><a xlink:href="a00118.html#a6d10ab1e9b6a00bb00122421cd922b7c" target="_top" xlink:title="Parent node.">
<polygon fill="white" stroke="black" points="0,-6 0,-25 272,-25 272,-6 0,-6"/>
<text text-anchor="middle" x="136" y="-13" font-family="Helvetica,sans-Serif" font-size="10.00">caen_felib.device.Node.parent_node</text>
</a>
</g>
</g>
<!-- Node2&#45;&gt;Node3 -->
<g id="edge3" class="edge">
<title>Node2&#45;&gt;Node3</title>
<path fill="none" stroke="midnightblue" d="M297.62,-15.5C289.17,-15.5 280.59,-15.5 272.04,-15.5"/>
<polygon fill="midnightblue" stroke="midnightblue" points="297.87,-19 307.87,-15.5 297.87,-12 297.87,-19"/>
</g>
<!-- Node3&#45;&gt;Node3 -->
<g id="edge4" class="edge">
<title>Node3&#45;&gt;Node3</title>
<path fill="none" stroke="midnightblue" d="M187.11,-30.5C192.63,-37.44 175.59,-43.5 136,-43.5 86.32,-43.5 72.15,-33.96 93.5,-25.11"/>
<polygon fill="midnightblue" stroke="midnightblue" points="188.83,-27.45 178.5,-25.11 185.12,-33.39 188.83,-27.45"/>
</g>
</g>
</svg>
