<?xml version="1.0" encoding="UTF-8" standalone="no"?>
<!DOCTYPE svg PUBLIC "-//W3C//DTD SVG 1.1//EN"
 "http://www.w3.org/Graphics/SVG/1.1/DTD/svg11.dtd">
<!-- Generated by graphviz version 2.49.3 (20211027.1534)
 -->
<!-- Title: to_bytes Pages: 1 -->
<svg width="228pt" height="46pt"
 viewBox="0.00 0.00 228.00 46.00" xmlns="http://www.w3.org/2000/svg" xmlns:xlink="http://www.w3.org/1999/xlink">
<g id="graph0" class="graph" transform="scale(1 1) rotate(0) translate(4 42)">
<title>to_bytes</title>
<polygon fill="white" stroke="transparent" points="-4,4 -4,-42 224,-42 224,4 -4,4"/>
<!-- Node1 -->
<g id="node1" class="node">
<title>Node1</title>
<g id="a_node1"><a xlink:title="Convert string to bytes.">
<polygon fill="#bfbfbf" stroke="black" points="143,-0.5 143,-19.5 220,-19.5 220,-0.5 143,-0.5"/>
<text text-anchor="middle" x="181.5" y="-7.5" font-family="Helvetica,sans-Serif" font-size="10.00">to_bytes</text>
</a>
</g>
</g>
<!-- Node1&#45;&gt;Node1 -->
<g id="edge1" class="edge">
<title>Node1&#45;&gt;Node1</title>
<path fill="none" stroke="midnightblue" d="M205.31,-29.03C204.01,-34.13 196.07,-38 181.5,-38 158.75,-38 152.17,-28.57 161.77,-19.76"/>
<polygon fill="midnightblue" stroke="midnightblue" points="208.46,-27.5 201.23,-19.76 202.05,-30.32 208.46,-27.5"/>
</g>
<!-- Node2 -->
<g id="node2" class="node">
<title>Node2</title>
<g id="a_node2"><a xlink:href="a00095.html#a8dcab3bcb2411831531c34b0c69d42a5" target="_top" xlink:title="Convert string to bytes.">
<polygon fill="white" stroke="black" points="0,-0.5 0,-19.5 107,-19.5 107,-0.5 0,-0.5"/>
<text text-anchor="middle" x="53.5" y="-7.5" font-family="Helvetica,sans-Serif" font-size="10.00">to_bytes_opt</text>
</a>
</g>
</g>
<!-- Node1&#45;&gt;Node2 -->
<g id="edge2" class="edge">
<title>Node1&#45;&gt;Node2</title>
<path fill="none" stroke="midnightblue" d="M132.47,-10C124.2,-10 115.57,-10 107.19,-10"/>
<polygon fill="midnightblue" stroke="midnightblue" points="132.7,-13.5 142.7,-10 132.7,-6.5 132.7,-13.5"/>
</g>
</g>
</svg>
