<?xml version="1.0" encoding="UTF-8" standalone="no"?>
<!DOCTYPE svg PUBLIC "-//W3C//DTD SVG 1.1//EN"
 "http://www.w3.org/Graphics/SVG/1.1/DTD/svg11.dtd">
<!-- Generated by graphviz version 2.49.3 (20211027.1534)
 -->
<!-- Title: CAEN_FELib_SetReadDataFormat Pages: 1 -->
<svg width="776pt" height="57pt"
 viewBox="0.00 0.00 776.00 57.00" xmlns="http://www.w3.org/2000/svg" xmlns:xlink="http://www.w3.org/1999/xlink">
<g id="graph0" class="graph" transform="scale(1 1) rotate(0) translate(4 53)">
<title>CAEN_FELib_SetReadDataFormat</title>
<polygon fill="white" stroke="transparent" points="-4,4 -4,-53 772,-53 772,4 -4,4"/>
<!-- Node1 -->
<g id="node1" class="node">
<title>Node1</title>
<g id="a_node1"><a xlink:title="Set the format for the ReadData function to a endpoint node.">
<polygon fill="#bfbfbf" stroke="black" points="541,-6 541,-25 768,-25 768,-6 541,-6"/>
<text text-anchor="middle" x="654.5" y="-13" font-family="Helvetica,sans-Serif" font-size="10.00">CAEN_FELib_SetReadDataFormat</text>
</a>
</g>
</g>
<!-- Node2 -->
<g id="node2" class="node">
<title>Node2</title>
<g id="a_node2"><a xlink:href="a00118.html#af55ef34727e8bd2d6d4b41e8c0a32ebe" target="_top" xlink:title="Wrapper to CAEN_FELib_SetReadDataFormat()">
<polygon fill="white" stroke="black" points="293,-0.5 293,-30.5 505,-30.5 505,-0.5 293,-0.5"/>
<text text-anchor="start" x="301" y="-18.5" font-family="Helvetica,sans-Serif" font-size="10.00">caen_felib.device.Node.set</text>
<text text-anchor="middle" x="399" y="-7.5" font-family="Helvetica,sans-Serif" font-size="10.00">_read_data_format</text>
</a>
</g>
</g>
<!-- Node1&#45;&gt;Node2 -->
<g id="edge1" class="edge">
<title>Node1&#45;&gt;Node2</title>
<path fill="none" stroke="midnightblue" d="M530.76,-15.5C522.17,-15.5 513.54,-15.5 505.06,-15.5"/>
<polygon fill="midnightblue" stroke="midnightblue" points="530.83,-19 540.83,-15.5 530.83,-12 530.83,-19"/>
</g>
<!-- Node2&#45;&gt;Node2 -->
<g id="edge5" class="edge">
<title>Node2&#45;&gt;Node2</title>
<path fill="none" stroke="midnightblue" d="M444.55,-40.59C439.3,-45.51 424.11,-49 399,-49 358.82,-49 344.06,-40.06 354.74,-30.66"/>
<polygon fill="midnightblue" stroke="midnightblue" points="448.01,-40.13 443.26,-30.66 441.07,-41.02 448.01,-40.13"/>
</g>
<!-- Node3 -->
<g id="node3" class="node">
<title>Node3</title>
<g id="a_node3"><a xlink:href="a00118.html#aca96c568506870ce155c05e5a9b01b11" target="_top" xlink:title="Wrapper to CAEN_FELib_ReadData()">
<polygon fill="white" stroke="black" points="0,-6 0,-25 257,-25 257,-6 0,-6"/>
<text text-anchor="middle" x="128.5" y="-13" font-family="Helvetica,sans-Serif" font-size="10.00">caen_felib.device.Node.read_data</text>
</a>
</g>
</g>
<!-- Node2&#45;&gt;Node3 -->
<g id="edge2" class="edge">
<title>Node2&#45;&gt;Node3</title>
<path fill="none" stroke="midnightblue" d="M282.52,-8.81C274.17,-8.76 265.71,-8.74 257.29,-8.76"/>
<polygon fill="midnightblue" stroke="midnightblue" points="282.62,-12.31 292.65,-8.89 282.68,-5.31 282.62,-12.31"/>
</g>
<!-- Node3&#45;&gt;Node2 -->
<g id="edge4" class="edge">
<title>Node3&#45;&gt;Node2</title>
<path fill="none" stroke="midnightblue" d="M267.57,-22.25C276,-22.24 284.4,-22.19 292.65,-22.11"/>
<polygon fill="midnightblue" stroke="midnightblue" points="267.3,-18.75 257.29,-22.24 267.29,-25.75 267.3,-18.75"/>
</g>
<!-- Node3&#45;&gt;Node3 -->
<g id="edge3" class="edge">
<title>Node3&#45;&gt;Node3</title>
<path fill="none" stroke="midnightblue" d="M178.43,-30.91C182.84,-37.68 166.2,-43.5 128.5,-43.5 80.25,-43.5 66.49,-33.96 87.22,-25.11"/>
<polygon fill="midnightblue" stroke="midnightblue" points="180.03,-27.77 169.78,-25.11 176.14,-33.59 180.03,-27.77"/>
</g>
</g>
</svg>
