<?xml version="1.0" encoding="UTF-8" standalone="no"?>
<!DOCTYPE svg PUBLIC "-//W3C//DTD SVG 1.1//EN"
 "http://www.w3.org/Graphics/SVG/1.1/DTD/svg11.dtd">
<!-- Generated by graphviz version 2.49.3 (20211027.1534)
 -->
<!-- Title: CAEN_FELib_GetChildHandles Pages: 1 -->
<svg width="994pt" height="57pt"
 viewBox="0.00 0.00 994.00 57.00" xmlns="http://www.w3.org/2000/svg" xmlns:xlink="http://www.w3.org/1999/xlink">
<g id="graph0" class="graph" transform="scale(1 1) rotate(0) translate(4 53)">
<title>CAEN_FELib_GetChildHandles</title>
<polygon fill="white" stroke="transparent" points="-4,4 -4,-53 990,-53 990,4 -4,4"/>
<!-- Node1 -->
<g id="node1" class="node">
<title>Node1</title>
<g id="a_node1"><a xlink:title="Get handles that represent nodes of the tree.">
<polygon fill="#bfbfbf" stroke="black" points="774,-6 774,-25 986,-25 986,-6 774,-6"/>
<text text-anchor="middle" x="880" y="-13" font-family="Helvetica,sans-Serif" font-size="10.00">CAEN_FELib_GetChildHandles</text>
</a>
</g>
</g>
<!-- Node2 -->
<g id="node2" class="node">
<title>Node2</title>
<g id="a_node2"><a xlink:href="a00118.html#a7aa9c6de2f6259fcc67f346e744ea8af" target="_top" xlink:title="Wrapper to CAEN_FELib_GetChildHandles()">
<polygon fill="white" stroke="black" points="526,-0.5 526,-30.5 738,-30.5 738,-0.5 526,-0.5"/>
<text text-anchor="start" x="534" y="-18.5" font-family="Helvetica,sans-Serif" font-size="10.00">caen_felib.device.Node.get</text>
<text text-anchor="middle" x="632" y="-7.5" font-family="Helvetica,sans-Serif" font-size="10.00">_child_nodes</text>
</a>
</g>
</g>
<!-- Node1&#45;&gt;Node2 -->
<g id="edge1" class="edge">
<title>Node1&#45;&gt;Node2</title>
<path fill="none" stroke="midnightblue" d="M763.89,-15.5C755.28,-15.5 746.62,-15.5 738.08,-15.5"/>
<polygon fill="midnightblue" stroke="midnightblue" points="763.96,-19 773.96,-15.5 763.96,-12 763.96,-19"/>
</g>
<!-- Node2&#45;&gt;Node2 -->
<g id="edge5" class="edge">
<title>Node2&#45;&gt;Node2</title>
<path fill="none" stroke="midnightblue" d="M676.47,-40.59C671.34,-45.51 656.52,-49 632,-49 592.77,-49 578.36,-40.06 588.78,-30.66"/>
<polygon fill="midnightblue" stroke="midnightblue" points="679.94,-40.14 675.22,-30.66 673,-41.02 679.94,-40.14"/>
</g>
<!-- Node3 -->
<g id="node3" class="node">
<title>Node3</title>
<g id="a_node3"><a xlink:href="a00118.html#a97bc987c78a57409e1972473bdc0befb" target="_top" xlink:title="List of child nodes.">
<polygon fill="white" stroke="black" points="263,-0.5 263,-30.5 490,-30.5 490,-0.5 263,-0.5"/>
<text text-anchor="start" x="271" y="-18.5" font-family="Helvetica,sans-Serif" font-size="10.00">caen_felib.device.Node.child</text>
<text text-anchor="middle" x="376.5" y="-7.5" font-family="Helvetica,sans-Serif" font-size="10.00">_nodes</text>
</a>
</g>
</g>
<!-- Node2&#45;&gt;Node3 -->
<g id="edge2" class="edge">
<title>Node2&#45;&gt;Node3</title>
<path fill="none" stroke="midnightblue" d="M515.5,-15.5C507.1,-15.5 498.64,-15.5 490.26,-15.5"/>
<polygon fill="midnightblue" stroke="midnightblue" points="515.7,-19 525.7,-15.5 515.7,-12 515.7,-19"/>
</g>
<!-- Node3&#45;&gt;Node3 -->
<g id="edge3" class="edge">
<title>Node3&#45;&gt;Node3</title>
<path fill="none" stroke="midnightblue" d="M422.05,-40.59C416.8,-45.51 401.61,-49 376.5,-49 336.32,-49 321.56,-40.06 332.24,-30.66"/>
<polygon fill="midnightblue" stroke="midnightblue" points="425.51,-40.13 420.76,-30.66 418.57,-41.02 425.51,-40.13"/>
</g>
<!-- Node4 -->
<g id="node4" class="node">
<title>Node4</title>
<g id="a_node4"><a xlink:href="a00118.html#a44c1c6b558a3bb1e5f628f5999b0ba46" target="_top" xlink:title=" ">
<polygon fill="white" stroke="black" points="0,-6 0,-25 227,-25 227,-6 0,-6"/>
<text text-anchor="middle" x="113.5" y="-13" font-family="Helvetica,sans-Serif" font-size="10.00">caen_felib.device.Node.value</text>
</a>
</g>
</g>
<!-- Node3&#45;&gt;Node4 -->
<g id="edge4" class="edge">
<title>Node3&#45;&gt;Node4</title>
<path fill="none" stroke="midnightblue" d="M252.87,-15.5C244.28,-15.5 235.65,-15.5 227.12,-15.5"/>
<polygon fill="midnightblue" stroke="midnightblue" points="252.92,-19 262.92,-15.5 252.92,-12 252.92,-19"/>
</g>
</g>
</svg>
