<?xml version="1.0" encoding="UTF-8" standalone="no"?>
<!DOCTYPE svg PUBLIC "-//W3C//DTD SVG 1.1//EN"
 "http://www.w3.org/Graphics/SVG/1.1/DTD/svg11.dtd">
<!-- Generated by graphviz version 2.49.3 (20211027.1534)
 -->
<!-- Title: CAEN_FELib_Open Pages: 1 -->
<svg width="392pt" height="46pt"
 viewBox="0.00 0.00 392.00 46.00" xmlns="http://www.w3.org/2000/svg" xmlns:xlink="http://www.w3.org/1999/xlink">
<g id="graph0" class="graph" transform="scale(1 1) rotate(0) translate(4 42)">
<title>CAEN_FELib_Open</title>
<polygon fill="white" stroke="transparent" points="-4,4 -4,-42 388,-42 388,4 -4,4"/>
<!-- Node1 -->
<g id="node1" class="node">
<title>Node1</title>
<g id="a_node1"><a xlink:title="Connect to a device.">
<polygon fill="#bfbfbf" stroke="black" points="255,-0.5 255,-19.5 384,-19.5 384,-0.5 255,-0.5"/>
<text text-anchor="middle" x="319.5" y="-7.5" font-family="Helvetica,sans-Serif" font-size="10.00">CAEN_FELib_Open</text>
</a>
</g>
</g>
<!-- Node2 -->
<g id="node2" class="node">
<title>Node2</title>
<g id="a_node2"><a xlink:href="a00118.html#a853b133d25d1831475affb10fb494c24" target="_top" xlink:title="Wrapper to CAEN_FELib_Open()">
<polygon fill="white" stroke="black" points="0,-0.5 0,-19.5 219,-19.5 219,-0.5 0,-0.5"/>
<text text-anchor="middle" x="109.5" y="-7.5" font-family="Helvetica,sans-Serif" font-size="10.00">caen_felib.device.Node.open</text>
</a>
</g>
</g>
<!-- Node1&#45;&gt;Node2 -->
<g id="edge1" class="edge">
<title>Node1&#45;&gt;Node2</title>
<path fill="none" stroke="midnightblue" d="M244.95,-10C236.6,-10 227.98,-10 219.3,-10"/>
<polygon fill="midnightblue" stroke="midnightblue" points="244.96,-13.5 254.96,-10 244.96,-6.5 244.96,-13.5"/>
</g>
<!-- Node2&#45;&gt;Node2 -->
<g id="edge2" class="edge">
<title>Node2&#45;&gt;Node2</title>
<path fill="none" stroke="midnightblue" d="M148.78,-26.62C150.15,-32.86 137.06,-38 109.5,-38 71.97,-38 61.27,-28.46 77.39,-19.61"/>
<polygon fill="midnightblue" stroke="midnightblue" points="151.2,-24.1 141.61,-19.61 146.31,-29.1 151.2,-24.1"/>
</g>
</g>
</svg>
