<?xml version="1.0" encoding="UTF-8" standalone="no"?>
<!DOCTYPE svg PUBLIC "-//W3C//DTD SVG 1.1//EN"
 "http://www.w3.org/Graphics/SVG/1.1/DTD/svg11.dtd">
<!-- Generated by graphviz version 2.49.3 (20211027.1534)
 -->
<!-- Title: CAEN_FELib_GetPath Pages: 1 -->
<svg width="963pt" height="96pt"
 viewBox="0.00 0.00 963.00 95.50" xmlns="http://www.w3.org/2000/svg" xmlns:xlink="http://www.w3.org/1999/xlink">
<g id="graph0" class="graph" transform="scale(1 1) rotate(0) translate(4 91.5)">
<title>CAEN_FELib_GetPath</title>
<polygon fill="white" stroke="transparent" points="-4,4 -4,-91.5 959,-91.5 959,4 -4,4"/>
<!-- Node1 -->
<g id="node1" class="node">
<title>Node1</title>
<g id="a_node1"><a xlink:title="Get the absolute path of a node.">
<polygon fill="#bfbfbf" stroke="black" points="803,-22.5 803,-41.5 955,-41.5 955,-22.5 803,-22.5"/>
<text text-anchor="middle" x="879" y="-29.5" font-family="Helvetica,sans-Serif" font-size="10.00">CAEN_FELib_GetPath</text>
</a>
</g>
</g>
<!-- Node2 -->
<g id="node2" class="node">
<title>Node2</title>
<g id="a_node2"><a xlink:href="a00118.html#aa71a67fa5e66158c8d03b25aa9dec9e6" target="_top" xlink:title="Wrapper to CAEN_FELib_GetPath()">
<polygon fill="white" stroke="black" points="518,-22.5 518,-41.5 767,-41.5 767,-22.5 518,-22.5"/>
<text text-anchor="middle" x="642.5" y="-29.5" font-family="Helvetica,sans-Serif" font-size="10.00">caen_felib.device.Node.get_path</text>
</a>
</g>
</g>
<!-- Node1&#45;&gt;Node2 -->
<g id="edge1" class="edge">
<title>Node1&#45;&gt;Node2</title>
<path fill="none" stroke="midnightblue" d="M792.82,-32C784.5,-32 775.96,-32 767.36,-32"/>
<polygon fill="midnightblue" stroke="midnightblue" points="792.84,-35.5 802.84,-32 792.84,-28.5 792.84,-35.5"/>
</g>
<!-- Node2&#45;&gt;Node2 -->
<g id="edge2" class="edge">
<title>Node2&#45;&gt;Node2</title>
<path fill="none" stroke="midnightblue" d="M686.52,-48.22C688.8,-54.63 674.13,-60 642.5,-60 600.32,-60 588.3,-50.46 606.42,-41.61"/>
<polygon fill="midnightblue" stroke="midnightblue" points="688.51,-45.32 678.58,-41.61 684.03,-50.7 688.51,-45.32"/>
</g>
<!-- Node3 -->
<g id="node3" class="node">
<title>Node3</title>
<g id="a_node3"><a xlink:href="a00118.html#ab73e6efc52ce7a21b22cbf9f3465df91" target="_top" xlink:title="Node absolute path.">
<polygon fill="white" stroke="black" points="263,-22.5 263,-41.5 482,-41.5 482,-22.5 263,-22.5"/>
<text text-anchor="middle" x="372.5" y="-29.5" font-family="Helvetica,sans-Serif" font-size="10.00">caen_felib.device.Node.path</text>
</a>
</g>
</g>
<!-- Node2&#45;&gt;Node3 -->
<g id="edge3" class="edge">
<title>Node2&#45;&gt;Node3</title>
<path fill="none" stroke="midnightblue" d="M507.45,-32C499.05,-32 490.64,-32 482.36,-32"/>
<polygon fill="midnightblue" stroke="midnightblue" points="507.7,-35.5 517.7,-32 507.7,-28.5 507.7,-35.5"/>
</g>
<!-- Node3&#45;&gt;Node3 -->
<g id="edge6" class="edge">
<title>Node3&#45;&gt;Node3</title>
<path fill="none" stroke="midnightblue" d="M420.21,-47.41C424.43,-54.18 408.52,-60 372.5,-60 326.39,-60 313.24,-50.46 333.06,-41.61"/>
<polygon fill="midnightblue" stroke="midnightblue" points="422.14,-44.49 411.94,-41.61 418.12,-50.22 422.14,-44.49"/>
</g>
<!-- Node4 -->
<g id="node4" class="node">
<title>Node4</title>
<g id="a_node4"><a xlink:href="a00130.html#a773932634d1145aa71c5943a5ff10129" target="_top" xlink:title="Get last error.">
<polygon fill="white" stroke="black" points="15,-39 15,-69 212,-69 212,-39 15,-39"/>
<text text-anchor="start" x="23" y="-57" font-family="Helvetica,sans-Serif" font-size="10.00">caen_felib.lib._Lib.last</text>
<text text-anchor="middle" x="113.5" y="-46" font-family="Helvetica,sans-Serif" font-size="10.00">_error</text>
</a>
</g>
</g>
<!-- Node3&#45;&gt;Node4 -->
<g id="edge4" class="edge">
<title>Node3&#45;&gt;Node4</title>
<path fill="none" stroke="midnightblue" d="M252.57,-42.18C239.03,-43.34 225.34,-44.51 212.13,-45.64"/>
<polygon fill="midnightblue" stroke="midnightblue" points="253.22,-45.64 262.88,-41.3 252.62,-38.66 253.22,-45.64"/>
</g>
<!-- Node5 -->
<g id="node5" class="node">
<title>Node5</title>
<g id="a_node5"><a xlink:href="a00118.html#a44c1c6b558a3bb1e5f628f5999b0ba46" target="_top" xlink:title=" ">
<polygon fill="white" stroke="black" points="0,-0.5 0,-19.5 227,-19.5 227,-0.5 0,-0.5"/>
<text text-anchor="middle" x="113.5" y="-7.5" font-family="Helvetica,sans-Serif" font-size="10.00">caen_felib.device.Node.value</text>
</a>
</g>
</g>
<!-- Node3&#45;&gt;Node5 -->
<g id="edge7" class="edge">
<title>Node3&#45;&gt;Node5</title>
<path fill="none" stroke="midnightblue" d="M252.72,-21.83C243.69,-21.06 234.59,-20.28 225.61,-19.51"/>
<polygon fill="midnightblue" stroke="midnightblue" points="252.62,-25.34 262.88,-22.7 253.22,-18.36 252.62,-25.34"/>
</g>
<!-- Node4&#45;&gt;Node4 -->
<g id="edge5" class="edge">
<title>Node4&#45;&gt;Node4</title>
<path fill="none" stroke="midnightblue" d="M159.76,-79.09C154.43,-84.01 139.01,-87.5 113.5,-87.5 72.68,-87.5 57.7,-78.56 68.54,-69.16"/>
<polygon fill="midnightblue" stroke="midnightblue" points="163.23,-78.62 158.46,-69.16 156.29,-79.53 163.23,-78.62"/>
</g>
</g>
</svg>
