<?xml version="1.0" encoding="UTF-8" standalone="no"?>
<!DOCTYPE svg PUBLIC "-//W3C//DTD SVG 1.1//EN"
 "http://www.w3.org/Graphics/SVG/1.1/DTD/svg11.dtd">
<!-- Generated by graphviz version 2.49.3 (20211027.1534)
 -->
<!-- Title: CAEN_FELib_GetErrorName Pages: 1 -->
<svg width="422pt" height="57pt"
 viewBox="0.00 0.00 422.00 57.00" xmlns="http://www.w3.org/2000/svg" xmlns:xlink="http://www.w3.org/1999/xlink">
<g id="graph0" class="graph" transform="scale(1 1) rotate(0) translate(4 53)">
<title>CAEN_FELib_GetErrorName</title>
<polygon fill="white" stroke="transparent" points="-4,4 -4,-53 418,-53 418,4 -4,4"/>
<!-- Node1 -->
<g id="node1" class="node">
<title>Node1</title>
<g id="a_node1"><a xlink:title="Get the short name of an error code.">
<polygon fill="#bfbfbf" stroke="black" points="225,-6 225,-25 414,-25 414,-6 225,-6"/>
<text text-anchor="middle" x="319.5" y="-13" font-family="Helvetica,sans-Serif" font-size="10.00">CAEN_FELib_GetErrorName</text>
</a>
</g>
</g>
<!-- Node2 -->
<g id="node2" class="node">
<title>Node2</title>
<g id="a_node2"><a xlink:href="a00130.html#a162caa69cc2e856894d33925c6101153" target="_top" xlink:title="Wrapper to CAEN_FELib_GetErrorName()">
<polygon fill="white" stroke="black" points="0,-0.5 0,-30.5 189,-30.5 189,-0.5 0,-0.5"/>
<text text-anchor="start" x="8" y="-18.5" font-family="Helvetica,sans-Serif" font-size="10.00">caen_felib.lib._Lib.get</text>
<text text-anchor="middle" x="94.5" y="-7.5" font-family="Helvetica,sans-Serif" font-size="10.00">_error_name</text>
</a>
</g>
</g>
<!-- Node1&#45;&gt;Node2 -->
<g id="edge1" class="edge">
<title>Node1&#45;&gt;Node2</title>
<path fill="none" stroke="midnightblue" d="M214.89,-15.5C206.33,-15.5 197.7,-15.5 189.22,-15.5"/>
<polygon fill="midnightblue" stroke="midnightblue" points="214.9,-19 224.9,-15.5 214.9,-12 214.9,-19"/>
</g>
<!-- Node2&#45;&gt;Node2 -->
<g id="edge2" class="edge">
<title>Node2&#45;&gt;Node2</title>
<path fill="none" stroke="midnightblue" d="M134.3,-40.96C129.36,-45.68 116.09,-49 94.5,-49 59.06,-49 46.05,-40.06 55.46,-30.66"/>
<polygon fill="midnightblue" stroke="midnightblue" points="137.77,-40.37 133.54,-30.66 130.79,-40.89 137.77,-40.37"/>
</g>
</g>
</svg>
