<?xml version="1.0" encoding="UTF-8" standalone="no"?>
<!DOCTYPE svg PUBLIC "-//W3C//DTD SVG 1.1//EN"
 "http://www.w3.org/Graphics/SVG/1.1/DTD/svg11.dtd">
<!-- Generated by graphviz version 2.49.3 (20211027.1534)
 -->
<!-- Title: CAEN_FELib_ReadData Pages: 1 -->
<svg width="708pt" height="57pt"
 viewBox="0.00 0.00 708.00 57.00" xmlns="http://www.w3.org/2000/svg" xmlns:xlink="http://www.w3.org/1999/xlink">
<g id="graph0" class="graph" transform="scale(1 1) rotate(0) translate(4 53)">
<title>CAEN_FELib_ReadData</title>
<polygon fill="white" stroke="transparent" points="-4,4 -4,-53 704,-53 704,4 -4,4"/>
<!-- Node1 -->
<g id="node1" class="node">
<title>Node1</title>
<g id="a_node1"><a xlink:title="Read the data provided by an endpoint node.">
<polygon fill="#bfbfbf" stroke="black" points="541,-6 541,-25 700,-25 700,-6 541,-6"/>
<text text-anchor="middle" x="620.5" y="-13" font-family="Helvetica,sans-Serif" font-size="10.00">CAEN_FELib_ReadData</text>
</a>
</g>
</g>
<!-- Node2 -->
<g id="node2" class="node">
<title>Node2</title>
<g id="a_node2"><a xlink:href="a00118.html#aca96c568506870ce155c05e5a9b01b11" target="_top" xlink:title="Wrapper to CAEN_FELib_ReadData()">
<polygon fill="white" stroke="black" points="248,-6 248,-25 505,-25 505,-6 248,-6"/>
<text text-anchor="middle" x="376.5" y="-13" font-family="Helvetica,sans-Serif" font-size="10.00">caen_felib.device.Node.read_data</text>
</a>
</g>
</g>
<!-- Node1&#45;&gt;Node2 -->
<g id="edge1" class="edge">
<title>Node1&#45;&gt;Node2</title>
<path fill="none" stroke="midnightblue" d="M530.86,-15.5C522.51,-15.5 513.93,-15.5 505.31,-15.5"/>
<polygon fill="midnightblue" stroke="midnightblue" points="530.93,-19 540.93,-15.5 530.93,-12 530.93,-19"/>
</g>
<!-- Node2&#45;&gt;Node2 -->
<g id="edge2" class="edge">
<title>Node2&#45;&gt;Node2</title>
<path fill="none" stroke="midnightblue" d="M421.84,-31.32C425,-37.91 409.89,-43.5 376.5,-43.5 332.89,-43.5 320.46,-33.96 339.2,-25.11"/>
<polygon fill="midnightblue" stroke="midnightblue" points="423.86,-28.45 413.8,-25.11 419.58,-33.99 423.86,-28.45"/>
</g>
<!-- Node3 -->
<g id="node3" class="node">
<title>Node3</title>
<g id="a_node3"><a xlink:href="a00118.html#af55ef34727e8bd2d6d4b41e8c0a32ebe" target="_top" xlink:title="Wrapper to CAEN_FELib_SetReadDataFormat()">
<polygon fill="white" stroke="black" points="0,-0.5 0,-30.5 212,-30.5 212,-0.5 0,-0.5"/>
<text text-anchor="start" x="8" y="-18.5" font-family="Helvetica,sans-Serif" font-size="10.00">caen_felib.device.Node.set</text>
<text text-anchor="middle" x="106" y="-7.5" font-family="Helvetica,sans-Serif" font-size="10.00">_read_data_format</text>
</a>
</g>
</g>
<!-- Node2&#45;&gt;Node3 -->
<g id="edge3" class="edge">
<title>Node2&#45;&gt;Node3</title>
<path fill="none" stroke="midnightblue" d="M237.88,-8.75C229.31,-8.76 220.77,-8.81 212.38,-8.89"/>
<polygon fill="midnightblue" stroke="midnightblue" points="237.93,-12.25 247.93,-8.76 237.94,-5.25 237.93,-12.25"/>
</g>
<!-- Node3&#45;&gt;Node2 -->
<g id="edge4" class="edge">
<title>Node3&#45;&gt;Node2</title>
<path fill="none" stroke="midnightblue" d="M222.57,-22.19C230.97,-22.24 239.47,-22.26 247.93,-22.24"/>
<polygon fill="midnightblue" stroke="midnightblue" points="222.41,-18.69 212.38,-22.11 222.35,-25.69 222.41,-18.69"/>
</g>
<!-- Node3&#45;&gt;Node3 -->
<g id="edge5" class="edge">
<title>Node3&#45;&gt;Node3</title>
<path fill="none" stroke="midnightblue" d="M154.41,-40.59C148.83,-45.51 132.7,-49 106,-49 63.29,-49 47.6,-40.06 58.95,-30.66"/>
<polygon fill="midnightblue" stroke="midnightblue" points="157.88,-40.09 153.05,-30.66 150.94,-41.04 157.88,-40.09"/>
</g>
</g>
</svg>
