<?xml version="1.0" encoding="UTF-8" standalone="no"?>
<!DOCTYPE svg PUBLIC "-//W3C//DTD SVG 1.1//EN"
 "http://www.w3.org/Graphics/SVG/1.1/DTD/svg11.dtd">
<!-- Generated by graphviz version 2.49.3 (20211027.1534)
 -->
<!-- Title: CAEN_FELib_Close Pages: 1 -->
<svg width="671pt" height="46pt"
 viewBox="0.00 0.00 671.00 46.00" xmlns="http://www.w3.org/2000/svg" xmlns:xlink="http://www.w3.org/1999/xlink">
<g id="graph0" class="graph" transform="scale(1 1) rotate(0) translate(4 42)">
<title>CAEN_FELib_Close</title>
<polygon fill="white" stroke="transparent" points="-4,4 -4,-42 667,-42 667,4 -4,4"/>
<!-- Node1 -->
<g id="node1" class="node">
<title>Node1</title>
<g id="a_node1"><a xlink:title="Close the connection with device.">
<polygon fill="#bfbfbf" stroke="black" points="526,-0.5 526,-19.5 663,-19.5 663,-0.5 526,-0.5"/>
<text text-anchor="middle" x="594.5" y="-7.5" font-family="Helvetica,sans-Serif" font-size="10.00">CAEN_FELib_Close</text>
</a>
</g>
</g>
<!-- Node2 -->
<g id="node2" class="node">
<title>Node2</title>
<g id="a_node2"><a xlink:href="a00118.html#a0931e4315d67c08986a0c4a9bfc43ca9" target="_top" xlink:title="Wrapper to CAEN_FELib_Close()">
<polygon fill="white" stroke="black" points="263,-0.5 263,-19.5 490,-19.5 490,-0.5 263,-0.5"/>
<text text-anchor="middle" x="376.5" y="-7.5" font-family="Helvetica,sans-Serif" font-size="10.00">caen_felib.device.Node.close</text>
</a>
</g>
</g>
<!-- Node1&#45;&gt;Node2 -->
<g id="edge1" class="edge">
<title>Node1&#45;&gt;Node2</title>
<path fill="none" stroke="midnightblue" d="M515.72,-10C507.38,-10 498.77,-10 490.13,-10"/>
<polygon fill="midnightblue" stroke="midnightblue" points="515.75,-13.5 525.75,-10 515.75,-6.5 515.75,-13.5"/>
</g>
<!-- Node2&#45;&gt;Node2 -->
<g id="edge2" class="edge">
<title>Node2&#45;&gt;Node2</title>
<path fill="none" stroke="midnightblue" d="M417.27,-26.62C418.7,-32.86 405.11,-38 376.5,-38 337.54,-38 326.43,-28.46 343.17,-19.61"/>
<polygon fill="midnightblue" stroke="midnightblue" points="419.51,-23.92 409.83,-19.61 414.71,-29.01 419.51,-23.92"/>
</g>
<!-- Node3 -->
<g id="node3" class="node">
<title>Node3</title>
<g id="a_node3"><a xlink:href="a00118.html#a44c1c6b558a3bb1e5f628f5999b0ba46" target="_top" xlink:title=" ">
<polygon fill="white" stroke="black" points="0,-0.5 0,-19.5 227,-19.5 227,-0.5 0,-0.5"/>
<text text-anchor="middle" x="113.5" y="-7.5" font-family="Helvetica,sans-Serif" font-size="10.00">caen_felib.device.Node.value</text>
</a>
</g>
</g>
<!-- Node2&#45;&gt;Node3 -->
<g id="edge3" class="edge">
<title>Node2&#45;&gt;Node3</title>
<path fill="none" stroke="midnightblue" d="M252.87,-10C244.28,-10 235.65,-10 227.12,-10"/>
<polygon fill="midnightblue" stroke="midnightblue" points="252.92,-13.5 262.92,-10 252.92,-6.5 252.92,-13.5"/>
</g>
</g>
</svg>
