<?xml version="1.0" encoding="UTF-8" standalone="no"?>
<!DOCTYPE svg PUBLIC "-//W3C//DTD SVG 1.1//EN"
 "http://www.w3.org/Graphics/SVG/1.1/DTD/svg11.dtd">
<!-- Generated by graphviz version 2.49.3 (20211027.1534)
 -->
<!-- Title: CAEN_FELib_GetValue Pages: 1 -->
<svg width="678pt" height="124pt"
 viewBox="0.00 0.00 678.00 124.00" xmlns="http://www.w3.org/2000/svg" xmlns:xlink="http://www.w3.org/1999/xlink">
<g id="graph0" class="graph" transform="scale(1 1) rotate(0) translate(4 120)">
<title>CAEN_FELib_GetValue</title>
<polygon fill="white" stroke="transparent" points="-4,4 -4,-120 674,-120 674,4 -4,4"/>
<!-- Node1 -->
<g id="node1" class="node">
<title>Node1</title>
<g id="a_node1"><a xlink:title="Get the value of a readable node.">
<polygon fill="#bfbfbf" stroke="black" points="511,-39 511,-58 670,-58 670,-39 511,-39"/>
<text text-anchor="middle" x="590.5" y="-46" font-family="Helvetica,sans-Serif" font-size="10.00">CAEN_FELib_GetValue</text>
</a>
</g>
</g>
<!-- Node2 -->
<g id="node2" class="node">
<title>Node2</title>
<g id="a_node2"><a xlink:href="a00118.html#a83080f6dc5715a81005bba6ad907da59" target="_top" xlink:title="Wrapper to CAEN_FELib_GetValue()">
<polygon fill="white" stroke="black" points="263,-67.5 263,-97.5 475,-97.5 475,-67.5 263,-67.5"/>
<text text-anchor="start" x="271" y="-85.5" font-family="Helvetica,sans-Serif" font-size="10.00">caen_felib.device.Node.get</text>
<text text-anchor="middle" x="369" y="-74.5" font-family="Helvetica,sans-Serif" font-size="10.00">_value</text>
</a>
</g>
</g>
<!-- Node1&#45;&gt;Node2 -->
<g id="edge1" class="edge">
<title>Node1&#45;&gt;Node2</title>
<path fill="none" stroke="midnightblue" d="M518.12,-59.56C501.87,-62.07 484.33,-64.79 467.2,-67.44"/>
<polygon fill="midnightblue" stroke="midnightblue" points="518.72,-63.01 528.07,-58.02 517.65,-56.09 518.72,-63.01"/>
</g>
<!-- Node4 -->
<g id="node4" class="node">
<title>Node4</title>
<g id="a_node4"><a xlink:href="a00118.html#a0b74cb846bf1f493f97e0f00a082c90a" target="_top" xlink:title="Wrapper to CAEN_FELib_GetValue()">
<polygon fill="white" stroke="black" points="263,-0.5 263,-30.5 475,-30.5 475,-0.5 263,-0.5"/>
<text text-anchor="start" x="271" y="-18.5" font-family="Helvetica,sans-Serif" font-size="10.00">caen_felib.device.Node.get</text>
<text text-anchor="middle" x="369" y="-7.5" font-family="Helvetica,sans-Serif" font-size="10.00">_value_with_arg</text>
</a>
</g>
</g>
<!-- Node1&#45;&gt;Node4 -->
<g id="edge5" class="edge">
<title>Node1&#45;&gt;Node4</title>
<path fill="none" stroke="midnightblue" d="M516.21,-37.48C501.38,-35.25 485.54,-32.87 469.97,-30.53"/>
<polygon fill="midnightblue" stroke="midnightblue" points="515.9,-40.97 526.31,-39 516.94,-34.05 515.9,-40.97"/>
</g>
<!-- Node2&#45;&gt;Node2 -->
<g id="edge2" class="edge">
<title>Node2&#45;&gt;Node2</title>
<path fill="none" stroke="midnightblue" d="M408.09,-107.96C403.24,-112.68 390.21,-116 369,-116 334.2,-116 321.42,-107.06 330.66,-97.66"/>
<polygon fill="midnightblue" stroke="midnightblue" points="411.56,-107.38 407.34,-97.66 404.58,-107.89 411.56,-107.38"/>
</g>
<!-- Node3 -->
<g id="node3" class="node">
<title>Node3</title>
<g id="a_node3"><a xlink:href="a00118.html#ab641d2363302f9d39887ef556a621b7a" target="_top" xlink:title="Current value.">
<polygon fill="white" stroke="black" points="0,-73 0,-92 227,-92 227,-73 0,-73"/>
<text text-anchor="middle" x="113.5" y="-80" font-family="Helvetica,sans-Serif" font-size="10.00">caen_felib.device.Node.value</text>
</a>
</g>
</g>
<!-- Node2&#45;&gt;Node3 -->
<g id="edge3" class="edge">
<title>Node2&#45;&gt;Node3</title>
<path fill="none" stroke="midnightblue" d="M252.5,-82.5C244.1,-82.5 235.64,-82.5 227.26,-82.5"/>
<polygon fill="midnightblue" stroke="midnightblue" points="252.7,-86 262.7,-82.5 252.7,-79 252.7,-86"/>
</g>
<!-- Node3&#45;&gt;Node3 -->
<g id="edge4" class="edge">
<title>Node3&#45;&gt;Node3</title>
<path fill="none" stroke="midnightblue" d="M160.7,-98.32C163.99,-104.91 148.25,-110.5 113.5,-110.5 68.11,-110.5 55.16,-100.96 74.67,-92.11"/>
<polygon fill="midnightblue" stroke="midnightblue" points="162.45,-95.26 152.33,-92.11 158.28,-100.88 162.45,-95.26"/>
</g>
<!-- Node4&#45;&gt;Node4 -->
<g id="edge6" class="edge">
<title>Node4&#45;&gt;Node4</title>
<path fill="none" stroke="midnightblue" d="M408.09,-40.96C403.24,-45.68 390.21,-49 369,-49 334.2,-49 321.42,-40.06 330.66,-30.66"/>
<polygon fill="midnightblue" stroke="midnightblue" points="411.56,-40.38 407.34,-30.66 404.58,-40.89 411.56,-40.38"/>
</g>
</g>
</svg>
