<?xml version="1.0" encoding="UTF-8" standalone="no"?>
<!DOCTYPE svg PUBLIC "-//W3C//DTD SVG 1.1//EN"
 "http://www.w3.org/Graphics/SVG/1.1/DTD/svg11.dtd">
<!-- Generated by graphviz version 2.49.3 (20211027.1534)
 -->
<!-- Title: CAEN_FELib_GetErrorDescription Pages: 1 -->
<svg width="475pt" height="57pt"
 viewBox="0.00 0.00 475.00 57.00" xmlns="http://www.w3.org/2000/svg" xmlns:xlink="http://www.w3.org/1999/xlink">
<g id="graph0" class="graph" transform="scale(1 1) rotate(0) translate(4 53)">
<title>CAEN_FELib_GetErrorDescription</title>
<polygon fill="white" stroke="transparent" points="-4,4 -4,-53 471,-53 471,4 -4,4"/>
<!-- Node1 -->
<g id="node1" class="node">
<title>Node1</title>
<g id="a_node1"><a xlink:title="Get the detailed description of an error code.">
<polygon fill="#bfbfbf" stroke="black" points="225,-6 225,-25 467,-25 467,-6 225,-6"/>
<text text-anchor="middle" x="346" y="-13" font-family="Helvetica,sans-Serif" font-size="10.00">CAEN_FELib_GetErrorDescription</text>
</a>
</g>
</g>
<!-- Node2 -->
<g id="node2" class="node">
<title>Node2</title>
<g id="a_node2"><a xlink:href="a00130.html#ac93c32a161756abbc576e014ee3c66ec" target="_top" xlink:title="Wrapper to CAEN_FELib_GetErrorDescription()">
<polygon fill="white" stroke="black" points="0,-0.5 0,-30.5 189,-30.5 189,-0.5 0,-0.5"/>
<text text-anchor="start" x="8" y="-18.5" font-family="Helvetica,sans-Serif" font-size="10.00">caen_felib.lib._Lib.get</text>
<text text-anchor="middle" x="94.5" y="-7.5" font-family="Helvetica,sans-Serif" font-size="10.00">_error_description</text>
</a>
</g>
</g>
<!-- Node1&#45;&gt;Node2 -->
<g id="edge1" class="edge">
<title>Node1&#45;&gt;Node2</title>
<path fill="none" stroke="midnightblue" d="M214.54,-15.5C205.94,-15.5 197.38,-15.5 189.03,-15.5"/>
<polygon fill="midnightblue" stroke="midnightblue" points="214.63,-19 224.63,-15.5 214.63,-12 214.63,-19"/>
</g>
<!-- Node2&#45;&gt;Node2 -->
<g id="edge2" class="edge">
<title>Node2&#45;&gt;Node2</title>
<path fill="none" stroke="midnightblue" d="M139.33,-40.59C134.16,-45.51 119.22,-49 94.5,-49 54.95,-49 40.43,-40.06 50.93,-30.66"/>
<polygon fill="midnightblue" stroke="midnightblue" points="142.8,-40.14 138.07,-30.66 135.85,-41.02 142.8,-40.14"/>
</g>
</g>
</svg>
