<?xml version="1.0" encoding="UTF-8" standalone="no"?>
<!DOCTYPE svg PUBLIC "-//W3C//DTD SVG 1.1//EN"
 "http://www.w3.org/Graphics/SVG/1.1/DTD/svg11.dtd">
<!-- Generated by graphviz version 2.49.3 (20211027.1534)
 -->
<!-- Title: CAEN_FELib_GetHandle Pages: 1 -->
<svg width="723pt" height="46pt"
 viewBox="0.00 0.00 723.00 46.00" xmlns="http://www.w3.org/2000/svg" xmlns:xlink="http://www.w3.org/1999/xlink">
<g id="graph0" class="graph" transform="scale(1 1) rotate(0) translate(4 42)">
<title>CAEN_FELib_GetHandle</title>
<polygon fill="white" stroke="transparent" points="-4,4 -4,-42 719,-42 719,4 -4,4"/>
<!-- Node1 -->
<g id="node1" class="node">
<title>Node1</title>
<g id="a_node1"><a xlink:title="Get the handle of a node.">
<polygon fill="#bfbfbf" stroke="black" points="548,-0.5 548,-19.5 715,-19.5 715,-0.5 548,-0.5"/>
<text text-anchor="middle" x="631.5" y="-7.5" font-family="Helvetica,sans-Serif" font-size="10.00">CAEN_FELib_GetHandle</text>
</a>
</g>
</g>
<!-- Node2 -->
<g id="node2" class="node">
<title>Node2</title>
<g id="a_node2"><a xlink:href="a00118.html#afd75849228bcddd607859a36d8347ed5" target="_top" xlink:title="Wrapper to CAEN_FELib_GetHandle()">
<polygon fill="white" stroke="black" points="263,-0.5 263,-19.5 512,-19.5 512,-0.5 263,-0.5"/>
<text text-anchor="middle" x="387.5" y="-7.5" font-family="Helvetica,sans-Serif" font-size="10.00">caen_felib.device.Node.get_node</text>
</a>
</g>
</g>
<!-- Node1&#45;&gt;Node2 -->
<g id="edge1" class="edge">
<title>Node1&#45;&gt;Node2</title>
<path fill="none" stroke="midnightblue" d="M537.8,-10C529.44,-10 520.89,-10 512.32,-10"/>
<polygon fill="midnightblue" stroke="midnightblue" points="537.89,-13.5 547.89,-10 537.89,-6.5 537.89,-13.5"/>
</g>
<!-- Node2&#45;&gt;Node2 -->
<g id="edge2" class="edge">
<title>Node2&#45;&gt;Node2</title>
<path fill="none" stroke="midnightblue" d="M432.84,-25.82C436,-32.41 420.89,-38 387.5,-38 343.89,-38 331.46,-28.46 350.2,-19.61"/>
<polygon fill="midnightblue" stroke="midnightblue" points="434.86,-22.95 424.8,-19.61 430.58,-28.49 434.86,-22.95"/>
</g>
<!-- Node3 -->
<g id="node3" class="node">
<title>Node3</title>
<g id="a_node3"><a xlink:href="a00118.html#a44c1c6b558a3bb1e5f628f5999b0ba46" target="_top" xlink:title=" ">
<polygon fill="white" stroke="black" points="0,-0.5 0,-19.5 227,-19.5 227,-0.5 0,-0.5"/>
<text text-anchor="middle" x="113.5" y="-7.5" font-family="Helvetica,sans-Serif" font-size="10.00">caen_felib.device.Node.value</text>
</a>
</g>
</g>
<!-- Node2&#45;&gt;Node3 -->
<g id="edge3" class="edge">
<title>Node2&#45;&gt;Node3</title>
<path fill="none" stroke="midnightblue" d="M252.75,-10C244.15,-10 235.53,-10 227.04,-10"/>
<polygon fill="midnightblue" stroke="midnightblue" points="252.84,-13.5 262.84,-10 252.84,-6.5 252.84,-13.5"/>
</g>
</g>
</svg>
