<?xml version="1.0" encoding="UTF-8" standalone="no"?>
<!DOCTYPE svg PUBLIC "-//W3C//DTD SVG 1.1//EN"
 "http://www.w3.org/Graphics/SVG/1.1/DTD/svg11.dtd">
<!-- Generated by graphviz version 2.49.3 (20211027.1534)
 -->
<!-- Title: CAEN_FELib_GetImplLibVersion Pages: 1 -->
<svg width="483pt" height="57pt"
 viewBox="0.00 0.00 483.00 57.00" xmlns="http://www.w3.org/2000/svg" xmlns:xlink="http://www.w3.org/1999/xlink">
<g id="graph0" class="graph" transform="scale(1 1) rotate(0) translate(4 53)">
<title>CAEN_FELib_GetImplLibVersion</title>
<polygon fill="white" stroke="transparent" points="-4,4 -4,-53 479,-53 479,4 -4,4"/>
<!-- Node1 -->
<g id="node1" class="node">
<title>Node1</title>
<g id="a_node1"><a xlink:title="Get the version of the implementation library used by an handle.">
<polygon fill="#bfbfbf" stroke="black" points="248,-6 248,-25 475,-25 475,-6 248,-6"/>
<text text-anchor="middle" x="361.5" y="-13" font-family="Helvetica,sans-Serif" font-size="10.00">CAEN_FELib_GetImplLibVersion</text>
</a>
</g>
</g>
<!-- Node2 -->
<g id="node2" class="node">
<title>Node2</title>
<g id="a_node2"><a xlink:href="a00118.html#a35e860f2460259f007251aacca86545e" target="_top" xlink:title="Wrapper to CAEN_FELib_GetImplLibVersion()">
<polygon fill="white" stroke="black" points="0,-0.5 0,-30.5 212,-30.5 212,-0.5 0,-0.5"/>
<text text-anchor="start" x="8" y="-18.5" font-family="Helvetica,sans-Serif" font-size="10.00">caen_felib.device.Node.get</text>
<text text-anchor="middle" x="106" y="-7.5" font-family="Helvetica,sans-Serif" font-size="10.00">_impl_lib_version</text>
</a>
</g>
</g>
<!-- Node1&#45;&gt;Node2 -->
<g id="edge1" class="edge">
<title>Node1&#45;&gt;Node2</title>
<path fill="none" stroke="midnightblue" d="M237.76,-15.5C229.17,-15.5 220.54,-15.5 212.06,-15.5"/>
<polygon fill="midnightblue" stroke="midnightblue" points="237.83,-19 247.83,-15.5 237.83,-12 237.83,-19"/>
</g>
<!-- Node2&#45;&gt;Node2 -->
<g id="edge2" class="edge">
<title>Node2&#45;&gt;Node2</title>
<path fill="none" stroke="midnightblue" d="M151.55,-40.59C146.3,-45.51 131.11,-49 106,-49 65.82,-49 51.06,-40.06 61.74,-30.66"/>
<polygon fill="midnightblue" stroke="midnightblue" points="155.01,-40.13 150.26,-30.66 148.07,-41.02 155.01,-40.13"/>
</g>
</g>
</svg>
