<?xml version="1.0" encoding="UTF-8" standalone="no"?>
<!DOCTYPE svg PUBLIC "-//W3C//DTD SVG 1.1//EN"
 "http://www.w3.org/Graphics/SVG/1.1/DTD/svg11.dtd">
<!-- Generated by graphviz version 2.49.3 (20211027.1534)
 -->
<!-- Title: CAEN_FELib_HasData Pages: 1 -->
<svg width="445pt" height="46pt"
 viewBox="0.00 0.00 445.00 46.00" xmlns="http://www.w3.org/2000/svg" xmlns:xlink="http://www.w3.org/1999/xlink">
<g id="graph0" class="graph" transform="scale(1 1) rotate(0) translate(4 42)">
<title>CAEN_FELib_HasData</title>
<polygon fill="white" stroke="transparent" points="-4,4 -4,-42 441,-42 441,4 -4,4"/>
<!-- Node1 -->
<g id="node1" class="node">
<title>Node1</title>
<g id="a_node1"><a xlink:title="Check if an endpoint node has data to be read with a subsequent call to CAEN_FELib_ReadData().">
<polygon fill="#bfbfbf" stroke="black" points="285,-0.5 285,-19.5 437,-19.5 437,-0.5 285,-0.5"/>
<text text-anchor="middle" x="361" y="-7.5" font-family="Helvetica,sans-Serif" font-size="10.00">CAEN_FELib_HasData</text>
</a>
</g>
</g>
<!-- Node2 -->
<g id="node2" class="node">
<title>Node2</title>
<g id="a_node2"><a xlink:href="a00118.html#aaf9fc47798df8b680b4a7d6ac9fe970e" target="_top" xlink:title="Wrapper to CAEN_FELib_HasData()">
<polygon fill="white" stroke="black" points="0,-0.5 0,-19.5 249,-19.5 249,-0.5 0,-0.5"/>
<text text-anchor="middle" x="124.5" y="-7.5" font-family="Helvetica,sans-Serif" font-size="10.00">caen_felib.device.Node.has_data</text>
</a>
</g>
</g>
<!-- Node1&#45;&gt;Node2 -->
<g id="edge1" class="edge">
<title>Node1&#45;&gt;Node2</title>
<path fill="none" stroke="midnightblue" d="M274.82,-10C266.5,-10 257.96,-10 249.36,-10"/>
<polygon fill="midnightblue" stroke="midnightblue" points="274.84,-13.5 284.84,-10 274.84,-6.5 274.84,-13.5"/>
</g>
<!-- Node2&#45;&gt;Node2 -->
<g id="edge2" class="edge">
<title>Node2&#45;&gt;Node2</title>
<path fill="none" stroke="midnightblue" d="M168.52,-26.22C170.8,-32.63 156.13,-38 124.5,-38 82.32,-38 70.3,-28.46 88.42,-19.61"/>
<polygon fill="midnightblue" stroke="midnightblue" points="170.51,-23.32 160.58,-19.61 166.03,-28.7 170.51,-23.32"/>
</g>
</g>
</svg>
