<?xml version="1.0" encoding="UTF-8" standalone="no"?>
<!DOCTYPE svg PUBLIC "-//W3C//DTD SVG 1.1//EN"
 "http://www.w3.org/Graphics/SVG/1.1/DTD/svg11.dtd">
<!-- Generated by graphviz version 2.49.3 (20211027.1534)
 -->
<!-- Title: CAEN_FELib_SendCommand Pages: 1 -->
<svg width="708pt" height="57pt"
 viewBox="0.00 0.00 708.00 57.00" xmlns="http://www.w3.org/2000/svg" xmlns:xlink="http://www.w3.org/1999/xlink">
<g id="graph0" class="graph" transform="scale(1 1) rotate(0) translate(4 53)">
<title>CAEN_FELib_SendCommand</title>
<polygon fill="white" stroke="transparent" points="-4,4 -4,-53 704,-53 704,4 -4,4"/>
<!-- Node1 -->
<g id="node1" class="node">
<title>Node1</title>
<g id="a_node1"><a xlink:title="Send a command specified by a node.">
<polygon fill="#bfbfbf" stroke="black" points="518,-6 518,-25 700,-25 700,-6 518,-6"/>
<text text-anchor="middle" x="609" y="-13" font-family="Helvetica,sans-Serif" font-size="10.00">CAEN_FELib_SendCommand</text>
</a>
</g>
</g>
<!-- Node2 -->
<g id="node2" class="node">
<title>Node2</title>
<g id="a_node2"><a xlink:href="a00118.html#a7b766e4d985df8ecf7b35c7287710dd4" target="_top" xlink:title="Wrapper to CAEN_FELib_SendCommand()">
<polygon fill="white" stroke="black" points="263,-0.5 263,-30.5 482,-30.5 482,-0.5 263,-0.5"/>
<text text-anchor="start" x="271" y="-18.5" font-family="Helvetica,sans-Serif" font-size="10.00">caen_felib.device.Node.send</text>
<text text-anchor="middle" x="372.5" y="-7.5" font-family="Helvetica,sans-Serif" font-size="10.00">_command</text>
</a>
</g>
</g>
<!-- Node1&#45;&gt;Node2 -->
<g id="edge1" class="edge">
<title>Node1&#45;&gt;Node2</title>
<path fill="none" stroke="midnightblue" d="M507.52,-15.5C499.14,-15.5 490.64,-15.5 482.21,-15.5"/>
<polygon fill="midnightblue" stroke="midnightblue" points="507.67,-19 517.67,-15.5 507.67,-12 507.67,-19"/>
</g>
<!-- Node2&#45;&gt;Node2 -->
<g id="edge2" class="edge">
<title>Node2&#45;&gt;Node2</title>
<path fill="none" stroke="midnightblue" d="M414.82,-40.59C409.94,-45.51 395.83,-49 372.5,-49 335.16,-49 321.45,-40.06 331.37,-30.66"/>
<polygon fill="midnightblue" stroke="midnightblue" points="418.29,-40.17 413.63,-30.66 411.34,-41 418.29,-40.17"/>
</g>
<!-- Node3 -->
<g id="node3" class="node">
<title>Node3</title>
<g id="a_node3"><a xlink:href="a00118.html#a44c1c6b558a3bb1e5f628f5999b0ba46" target="_top" xlink:title=" ">
<polygon fill="white" stroke="black" points="0,-6 0,-25 227,-25 227,-6 0,-6"/>
<text text-anchor="middle" x="113.5" y="-13" font-family="Helvetica,sans-Serif" font-size="10.00">caen_felib.device.Node.value</text>
</a>
</g>
</g>
<!-- Node2&#45;&gt;Node3 -->
<g id="edge3" class="edge">
<title>Node2&#45;&gt;Node3</title>
<path fill="none" stroke="midnightblue" d="M252.62,-15.5C244.17,-15.5 235.67,-15.5 227.26,-15.5"/>
<polygon fill="midnightblue" stroke="midnightblue" points="252.88,-19 262.88,-15.5 252.88,-12 252.88,-19"/>
</g>
</g>
</svg>
