<?xml version="1.0" encoding="UTF-8" standalone="no"?>
<!DOCTYPE svg PUBLIC "-//W3C//DTD SVG 1.1//EN"
 "http://www.w3.org/Graphics/SVG/1.1/DTD/svg11.dtd">
<!-- Generated by graphviz version 2.49.3 (20211027.1534)
 -->
<!-- Title: CAEN_FELib_GetUserRegister Pages: 1 -->
<svg width="468pt" height="57pt"
 viewBox="0.00 0.00 468.00 57.00" xmlns="http://www.w3.org/2000/svg" xmlns:xlink="http://www.w3.org/1999/xlink">
<g id="graph0" class="graph" transform="scale(1 1) rotate(0) translate(4 53)">
<title>CAEN_FELib_GetUserRegister</title>
<polygon fill="white" stroke="transparent" points="-4,4 -4,-53 464,-53 464,4 -4,4"/>
<!-- Node1 -->
<g id="node1" class="node">
<title>Node1</title>
<g id="a_node1"><a xlink:title="Get the value of a user register.">
<polygon fill="#bfbfbf" stroke="black" points="248,-6 248,-25 460,-25 460,-6 248,-6"/>
<text text-anchor="middle" x="354" y="-13" font-family="Helvetica,sans-Serif" font-size="10.00">CAEN_FELib_GetUserRegister</text>
</a>
</g>
</g>
<!-- Node2 -->
<g id="node2" class="node">
<title>Node2</title>
<g id="a_node2"><a xlink:href="a00118.html#a128f277b4a4bd234dfd3aa99269ac36f" target="_top" xlink:title="Wrapper to CAEN_FELib_GetUserRegister()">
<polygon fill="white" stroke="black" points="0,-0.5 0,-30.5 212,-30.5 212,-0.5 0,-0.5"/>
<text text-anchor="start" x="8" y="-18.5" font-family="Helvetica,sans-Serif" font-size="10.00">caen_felib.device.Node.get</text>
<text text-anchor="middle" x="106" y="-7.5" font-family="Helvetica,sans-Serif" font-size="10.00">_user_register</text>
</a>
</g>
</g>
<!-- Node1&#45;&gt;Node2 -->
<g id="edge1" class="edge">
<title>Node1&#45;&gt;Node2</title>
<path fill="none" stroke="midnightblue" d="M237.89,-15.5C229.28,-15.5 220.62,-15.5 212.08,-15.5"/>
<polygon fill="midnightblue" stroke="midnightblue" points="237.96,-19 247.96,-15.5 237.96,-12 237.96,-19"/>
</g>
<!-- Node2&#45;&gt;Node2 -->
<g id="edge2" class="edge">
<title>Node2&#45;&gt;Node2</title>
<path fill="none" stroke="midnightblue" d="M150.11,-40.59C145.03,-45.51 130.32,-49 106,-49 67.08,-49 52.79,-40.06 63.13,-30.66"/>
<polygon fill="midnightblue" stroke="midnightblue" points="153.58,-40.15 148.87,-30.66 146.64,-41.02 153.58,-40.15"/>
</g>
</g>
</svg>
