<?xml version="1.0" encoding="UTF-8" standalone="no"?>
<!DOCTYPE svg PUBLIC "-//W3C//DTD SVG 1.1//EN"
 "http://www.w3.org/Graphics/SVG/1.1/DTD/svg11.dtd">
<!-- Generated by graphviz version 2.49.3 (20211027.1534)
 -->
<!-- Title: CAEN_FELib_SetValue Pages: 1 -->
<svg width="678pt" height="57pt"
 viewBox="0.00 0.00 678.00 57.00" xmlns="http://www.w3.org/2000/svg" xmlns:xlink="http://www.w3.org/1999/xlink">
<g id="graph0" class="graph" transform="scale(1 1) rotate(0) translate(4 53)">
<title>CAEN_FELib_SetValue</title>
<polygon fill="white" stroke="transparent" points="-4,4 -4,-53 674,-53 674,4 -4,4"/>
<!-- Node1 -->
<g id="node1" class="node">
<title>Node1</title>
<g id="a_node1"><a xlink:title="Set the value of a writable node.">
<polygon fill="#bfbfbf" stroke="black" points="511,-6 511,-25 670,-25 670,-6 511,-6"/>
<text text-anchor="middle" x="590.5" y="-13" font-family="Helvetica,sans-Serif" font-size="10.00">CAEN_FELib_SetValue</text>
</a>
</g>
</g>
<!-- Node2 -->
<g id="node2" class="node">
<title>Node2</title>
<g id="a_node2"><a xlink:href="a00118.html#a4bcc21bbe32ae0fe6707ee9c7e41aa5a" target="_top" xlink:title="Wrapper to CAEN_FELib_SetValue()">
<polygon fill="white" stroke="black" points="263,-0.5 263,-30.5 475,-30.5 475,-0.5 263,-0.5"/>
<text text-anchor="start" x="271" y="-18.5" font-family="Helvetica,sans-Serif" font-size="10.00">caen_felib.device.Node.set</text>
<text text-anchor="middle" x="369" y="-7.5" font-family="Helvetica,sans-Serif" font-size="10.00">_value</text>
</a>
</g>
</g>
<!-- Node1&#45;&gt;Node2 -->
<g id="edge1" class="edge">
<title>Node1&#45;&gt;Node2</title>
<path fill="none" stroke="midnightblue" d="M500.74,-15.5C492.34,-15.5 483.78,-15.5 475.25,-15.5"/>
<polygon fill="midnightblue" stroke="midnightblue" points="500.88,-19 510.88,-15.5 500.88,-12 500.88,-19"/>
</g>
<!-- Node2&#45;&gt;Node2 -->
<g id="edge2" class="edge">
<title>Node2&#45;&gt;Node2</title>
<path fill="none" stroke="midnightblue" d="M408.09,-40.96C403.24,-45.68 390.21,-49 369,-49 334.2,-49 321.42,-40.06 330.66,-30.66"/>
<polygon fill="midnightblue" stroke="midnightblue" points="411.56,-40.38 407.34,-30.66 404.58,-40.89 411.56,-40.38"/>
</g>
<!-- Node3 -->
<g id="node3" class="node">
<title>Node3</title>
<g id="a_node3"><a xlink:href="a00118.html#a44c1c6b558a3bb1e5f628f5999b0ba46" target="_top" xlink:title=" ">
<polygon fill="white" stroke="black" points="0,-6 0,-25 227,-25 227,-6 0,-6"/>
<text text-anchor="middle" x="113.5" y="-13" font-family="Helvetica,sans-Serif" font-size="10.00">caen_felib.device.Node.value</text>
</a>
</g>
</g>
<!-- Node2&#45;&gt;Node3 -->
<g id="edge3" class="edge">
<title>Node2&#45;&gt;Node3</title>
<path fill="none" stroke="midnightblue" d="M252.5,-15.5C244.1,-15.5 235.64,-15.5 227.26,-15.5"/>
<polygon fill="midnightblue" stroke="midnightblue" points="252.7,-19 262.7,-15.5 252.7,-12 252.7,-19"/>
</g>
</g>
</svg>
