<?xml version="1.0" encoding="UTF-8" standalone="no"?>
<!DOCTYPE svg PUBLIC "-//W3C//DTD SVG 1.1//EN"
 "http://www.w3.org/Graphics/SVG/1.1/DTD/svg11.dtd">
<!-- Generated by graphviz version 2.49.3 (20211027.1534)
 -->
<!-- Title: to_bytes_opt Pages: 1 -->
<svg width="258pt" height="102pt"
 viewBox="0.00 0.00 258.00 102.00" xmlns="http://www.w3.org/2000/svg" xmlns:xlink="http://www.w3.org/1999/xlink">
<g id="graph0" class="graph" transform="scale(1 1) rotate(0) translate(4 98)">
<title>to_bytes_opt</title>
<polygon fill="white" stroke="transparent" points="-4,4 -4,-98 254,-98 254,4 -4,4"/>
<!-- Node1 -->
<g id="node1" class="node">
<title>Node1</title>
<g id="a_node1"><a xlink:title="Convert string to bytes.">
<polygon fill="#bfbfbf" stroke="black" points="0,-28.5 0,-47.5 107,-47.5 107,-28.5 0,-28.5"/>
<text text-anchor="middle" x="53.5" y="-35.5" font-family="Helvetica,sans-Serif" font-size="10.00">to_bytes_opt</text>
</a>
</g>
</g>
<!-- Node2 -->
<g id="node2" class="node">
<title>Node2</title>
<g id="a_node2"><a xlink:href="a00095.html#ab3c4a072e66624608c30672356fce6ee" target="_top" xlink:title="Convert string to bytes.">
<polygon fill="white" stroke="black" points="158,-56.5 158,-75.5 235,-75.5 235,-56.5 158,-56.5"/>
<text text-anchor="middle" x="196.5" y="-63.5" font-family="Helvetica,sans-Serif" font-size="10.00">to_bytes</text>
</a>
</g>
</g>
<!-- Node1&#45;&gt;Node2 -->
<g id="edge1" class="edge">
<title>Node1&#45;&gt;Node2</title>
<path fill="none" stroke="midnightblue" d="M102.63,-47.56C117.28,-50.47 133.37,-53.66 147.98,-56.56"/>
<polygon fill="midnightblue" stroke="midnightblue" points="147.33,-60 157.82,-58.52 148.69,-53.14 147.33,-60"/>
</g>
<!-- Node3 -->
<g id="node3" class="node">
<title>Node3</title>
<g id="a_node3"><a xlink:href="a00095.html#ac33f19d99e0c7c216e189c440b484566" target="_top" xlink:title=" ">
<polygon fill="white" stroke="black" points="143,-0.5 143,-19.5 250,-19.5 250,-0.5 143,-0.5"/>
<text text-anchor="middle" x="196.5" y="-7.5" font-family="Helvetica,sans-Serif" font-size="10.00">to_bytes_opt</text>
</a>
</g>
</g>
<!-- Node1&#45;&gt;Node3 -->
<g id="edge3" class="edge">
<title>Node1&#45;&gt;Node3</title>
<path fill="none" stroke="midnightblue" d="M102.63,-28.44C113.86,-26.21 125.93,-23.81 137.54,-21.51"/>
<polygon fill="midnightblue" stroke="midnightblue" points="138.46,-24.9 147.59,-19.51 137.1,-18.03 138.46,-24.9"/>
</g>
<!-- Node2&#45;&gt;Node2 -->
<g id="edge2" class="edge">
<title>Node2&#45;&gt;Node2</title>
<path fill="none" stroke="midnightblue" d="M174.61,-75.76C163.97,-84.57 171.26,-94 196.5,-94 213.06,-94 221.9,-89.94 223.01,-84.65"/>
<polygon fill="midnightblue" stroke="midnightblue" points="226.1,-83.02 218.39,-75.76 219.89,-86.24 226.1,-83.02"/>
</g>
<!-- Node3&#45;&gt;Node3 -->
<g id="edge4" class="edge">
<title>Node3&#45;&gt;Node3</title>
<path fill="none" stroke="midnightblue" d="M174.61,-19.76C163.97,-28.57 171.26,-38 196.5,-38 213.06,-38 221.9,-33.94 223.01,-28.65"/>
<polygon fill="midnightblue" stroke="midnightblue" points="226.1,-27.02 218.39,-19.76 219.89,-30.24 226.1,-27.02"/>
</g>
</g>
</svg>
