<?xml version="1.0" encoding="UTF-8" standalone="no"?>
<!DOCTYPE svg PUBLIC "-//W3C//DTD SVG 1.1//EN"
 "http://www.w3.org/Graphics/SVG/1.1/DTD/svg11.dtd">
<!-- Generated by graphviz version 2.49.3 (20211027.1534)
 -->
<!-- Title: CAEN_FELib_GetLastError Pages: 1 -->
<svg width="655pt" height="57pt"
 viewBox="0.00 0.00 655.00 57.00" xmlns="http://www.w3.org/2000/svg" xmlns:xlink="http://www.w3.org/1999/xlink">
<g id="graph0" class="graph" transform="scale(1 1) rotate(0) translate(4 53)">
<title>CAEN_FELib_GetLastError</title>
<polygon fill="white" stroke="transparent" points="-4,4 -4,-53 651,-53 651,4 -4,4"/>
<!-- Node1 -->
<g id="node1" class="node">
<title>Node1</title>
<g id="a_node1"><a xlink:title="Get the detailed description of the last error occurred on the current thread for a device.">
<polygon fill="#bfbfbf" stroke="black" points="458,-6 458,-25 647,-25 647,-6 458,-6"/>
<text text-anchor="middle" x="552.5" y="-13" font-family="Helvetica,sans-Serif" font-size="10.00">CAEN_FELib_GetLastError</text>
</a>
</g>
</g>
<!-- Node2 -->
<g id="node2" class="node">
<title>Node2</title>
<g id="a_node2"><a xlink:href="a00130.html#ab3e42e4f90f4ab300c74adb950cfa477" target="_top" xlink:title="Wrapper to CAEN_FELib_GetLastError()">
<polygon fill="white" stroke="black" points="233,-0.5 233,-30.5 422,-30.5 422,-0.5 233,-0.5"/>
<text text-anchor="start" x="241" y="-18.5" font-family="Helvetica,sans-Serif" font-size="10.00">caen_felib.lib._Lib.get</text>
<text text-anchor="middle" x="327.5" y="-7.5" font-family="Helvetica,sans-Serif" font-size="10.00">_last_error</text>
</a>
</g>
</g>
<!-- Node1&#45;&gt;Node2 -->
<g id="edge1" class="edge">
<title>Node1&#45;&gt;Node2</title>
<path fill="none" stroke="midnightblue" d="M447.89,-15.5C439.33,-15.5 430.7,-15.5 422.22,-15.5"/>
<polygon fill="midnightblue" stroke="midnightblue" points="447.9,-19 457.9,-15.5 447.9,-12 447.9,-19"/>
</g>
<!-- Node2&#45;&gt;Node2 -->
<g id="edge2" class="edge">
<title>Node2&#45;&gt;Node2</title>
<path fill="none" stroke="midnightblue" d="M367.3,-40.96C362.36,-45.68 349.09,-49 327.5,-49 292.06,-49 279.05,-40.06 288.46,-30.66"/>
<polygon fill="midnightblue" stroke="midnightblue" points="370.77,-40.37 366.54,-30.66 363.79,-40.89 370.77,-40.37"/>
</g>
<!-- Node3 -->
<g id="node3" class="node">
<title>Node3</title>
<g id="a_node3"><a xlink:href="a00130.html#a773932634d1145aa71c5943a5ff10129" target="_top" xlink:title="Get last error.">
<polygon fill="white" stroke="black" points="0,-0.5 0,-30.5 197,-30.5 197,-0.5 0,-0.5"/>
<text text-anchor="start" x="8" y="-18.5" font-family="Helvetica,sans-Serif" font-size="10.00">caen_felib.lib._Lib.last</text>
<text text-anchor="middle" x="98.5" y="-7.5" font-family="Helvetica,sans-Serif" font-size="10.00">_error</text>
</a>
</g>
</g>
<!-- Node2&#45;&gt;Node3 -->
<g id="edge3" class="edge">
<title>Node2&#45;&gt;Node3</title>
<path fill="none" stroke="midnightblue" d="M222.63,-15.5C214.21,-15.5 205.71,-15.5 197.33,-15.5"/>
<polygon fill="midnightblue" stroke="midnightblue" points="222.86,-19 232.86,-15.5 222.86,-12 222.86,-19"/>
</g>
<!-- Node3&#45;&gt;Node3 -->
<g id="edge4" class="edge">
<title>Node3&#45;&gt;Node3</title>
<path fill="none" stroke="midnightblue" d="M139.01,-40.96C133.98,-45.68 120.48,-49 98.5,-49 62.43,-49 49.19,-40.06 58.77,-30.66"/>
<polygon fill="midnightblue" stroke="midnightblue" points="142.48,-40.37 138.23,-30.66 135.5,-40.89 142.48,-40.37"/>
</g>
</g>
</svg>
