<?xml version="1.0" encoding="UTF-8" standalone="no"?>
<!DOCTYPE svg PUBLIC "-//W3C//DTD SVG 1.1//EN"
 "http://www.w3.org/Graphics/SVG/1.1/DTD/svg11.dtd">
<!-- Generated by graphviz version 2.49.3 (20211027.1534)
 -->
<!-- Title: CAEN_FELib_GetDeviceTree Pages: 1 -->
<svg width="453pt" height="57pt"
 viewBox="0.00 0.00 453.00 57.00" xmlns="http://www.w3.org/2000/svg" xmlns:xlink="http://www.w3.org/1999/xlink">
<g id="graph0" class="graph" transform="scale(1 1) rotate(0) translate(4 53)">
<title>CAEN_FELib_GetDeviceTree</title>
<polygon fill="white" stroke="transparent" points="-4,4 -4,-53 449,-53 449,4 -4,4"/>
<!-- Node1 -->
<g id="node1" class="node">
<title>Node1</title>
<g id="a_node1"><a xlink:title="Get the tree that describe all the structure of the device in JSON format.">
<polygon fill="#bfbfbf" stroke="black" points="248,-6 248,-25 445,-25 445,-6 248,-6"/>
<text text-anchor="middle" x="346.5" y="-13" font-family="Helvetica,sans-Serif" font-size="10.00">CAEN_FELib_GetDeviceTree</text>
</a>
</g>
</g>
<!-- Node2 -->
<g id="node2" class="node">
<title>Node2</title>
<g id="a_node2"><a xlink:href="a00118.html#a1ad46693aaaa8a38043ad5cd3d065283" target="_top" xlink:title="Wrapper to CAEN_FELib_GetDeviceTree()">
<polygon fill="white" stroke="black" points="0,-0.5 0,-30.5 212,-30.5 212,-0.5 0,-0.5"/>
<text text-anchor="start" x="8" y="-18.5" font-family="Helvetica,sans-Serif" font-size="10.00">caen_felib.device.Node.get</text>
<text text-anchor="middle" x="106" y="-7.5" font-family="Helvetica,sans-Serif" font-size="10.00">_device_tree</text>
</a>
</g>
</g>
<!-- Node1&#45;&gt;Node2 -->
<g id="edge1" class="edge">
<title>Node1&#45;&gt;Node2</title>
<path fill="none" stroke="midnightblue" d="M237.59,-15.5C229.18,-15.5 220.69,-15.5 212.3,-15.5"/>
<polygon fill="midnightblue" stroke="midnightblue" points="237.8,-19 247.8,-15.5 237.8,-12 237.8,-19"/>
</g>
<!-- Node2&#45;&gt;Node2 -->
<g id="edge2" class="edge">
<title>Node2&#45;&gt;Node2</title>
<path fill="none" stroke="midnightblue" d="M149.03,-40.59C144.08,-45.51 129.73,-49 106,-49 68.03,-49 54.09,-40.06 64.18,-30.66"/>
<polygon fill="midnightblue" stroke="midnightblue" points="152.51,-40.16 147.82,-30.66 145.56,-41.01 152.51,-40.16"/>
</g>
</g>
</svg>
