<?xml version="1.0" encoding="UTF-8" standalone="no"?>
<!DOCTYPE svg PUBLIC "-//W3C//DTD SVG 1.1//EN"
 "http://www.w3.org/Graphics/SVG/1.1/DTD/svg11.dtd">
<!-- Generated by graphviz version 2.49.3 (20211027.1534)
 -->
<!-- Title: info Pages: 1 -->
<svg width="408pt" height="46pt"
 viewBox="0.00 0.00 408.00 46.00" xmlns="http://www.w3.org/2000/svg" xmlns:xlink="http://www.w3.org/1999/xlink">
<g id="graph0" class="graph" transform="scale(1 1) rotate(0) translate(4 42)">
<title>info</title>
<polygon fill="white" stroke="transparent" points="-4,4 -4,-42 404,-42 404,4 -4,4"/>
<!-- Node1 -->
<g id="node1" class="node">
<title>Node1</title>
<g id="a_node1"><a xlink:title="Get library info.">
<polygon fill="#bfbfbf" stroke="black" points="0,-0.5 0,-19.5 47,-19.5 47,-0.5 0,-0.5"/>
<text text-anchor="middle" x="23.5" y="-7.5" font-family="Helvetica,sans-Serif" font-size="10.00">info</text>
</a>
</g>
</g>
<!-- Node1&#45;&gt;Node1 -->
<g id="edge4" class="edge">
<title>Node1&#45;&gt;Node1</title>
<path fill="none" stroke="midnightblue" d="M6.24,-19.76C-2.16,-28.57 3.59,-38 23.5,-38 35.94,-38 42.85,-34.31 44.24,-29.4"/>
<polygon fill="midnightblue" stroke="midnightblue" points="47.45,-27.98 40.76,-19.76 40.86,-30.35 47.45,-27.98"/>
</g>
<!-- Node2 -->
<g id="node2" class="node">
<title>Node2</title>
<g id="a_node2"><a xlink:href="a00130.html#a9a3955f7fd19a8bf80b6594ed7f0cd9a" target="_top" xlink:title="Wrapper to CAEN_FELib_GetLibInfo()">
<polygon fill="white" stroke="black" points="83,-0.5 83,-19.5 190,-19.5 190,-0.5 83,-0.5"/>
<text text-anchor="middle" x="136.5" y="-7.5" font-family="Helvetica,sans-Serif" font-size="10.00">get_lib_info</text>
</a>
</g>
</g>
<!-- Node1&#45;&gt;Node2 -->
<g id="edge1" class="edge">
<title>Node1&#45;&gt;Node2</title>
<path fill="none" stroke="midnightblue" d="M47.23,-10C54.7,-10 63.39,-10 72.36,-10"/>
<polygon fill="midnightblue" stroke="midnightblue" points="72.55,-13.5 82.55,-10 72.55,-6.5 72.55,-13.5"/>
</g>
<!-- Node2&#45;&gt;Node2 -->
<g id="edge3" class="edge">
<title>Node2&#45;&gt;Node2</title>
<path fill="none" stroke="midnightblue" d="M119.24,-19.76C110.84,-28.57 116.59,-38 136.5,-38 148.94,-38 155.85,-34.31 157.24,-29.4"/>
<polygon fill="midnightblue" stroke="midnightblue" points="160.45,-27.98 153.76,-19.76 153.86,-30.35 160.45,-27.98"/>
</g>
<!-- Node3 -->
<g id="node3" class="node">
<title>Node3</title>
<g id="a_node3"><a xlink:href="a00092.html#ga5638b652efd6778baaa08cc7456b5f06" target="_top" xlink:title="Get a JSON string that contains informations about this library, like version, supported devices,...">
<polygon fill="white" stroke="black" points="226,-0.5 226,-19.5 400,-19.5 400,-0.5 226,-0.5"/>
<text text-anchor="middle" x="313" y="-7.5" font-family="Helvetica,sans-Serif" font-size="10.00">CAEN_FELib_GetLibInfo</text>
</a>
</g>
</g>
<!-- Node2&#45;&gt;Node3 -->
<g id="edge2" class="edge">
<title>Node2&#45;&gt;Node3</title>
<path fill="none" stroke="midnightblue" d="M190.33,-10C198.4,-10 206.95,-10 215.61,-10"/>
<polygon fill="midnightblue" stroke="midnightblue" points="215.82,-13.5 225.82,-10 215.82,-6.5 215.82,-13.5"/>
</g>
</g>
</svg>
