<?xml version="1.0" encoding="UTF-8" standalone="no"?>
<!DOCTYPE svg PUBLIC "-//W3C//DTD SVG 1.1//EN"
 "http://www.w3.org/Graphics/SVG/1.1/DTD/svg11.dtd">
<!-- Generated by graphviz version 2.49.3 (20211027.1534)
 -->
<!-- Title: open Pages: 1 -->
<svg width="220pt" height="46pt"
 viewBox="0.00 0.00 220.01 46.00" xmlns="http://www.w3.org/2000/svg" xmlns:xlink="http://www.w3.org/1999/xlink">
<g id="graph0" class="graph" transform="scale(1 1) rotate(0) translate(4 42)">
<title>open</title>
<polygon fill="white" stroke="transparent" points="-4,4 -4,-42 216.01,-42 216.01,4 -4,4"/>
<!-- Node1 -->
<g id="node1" class="node">
<title>Node1</title>
<g id="a_node1"><a xlink:title="Wrapper to CAEN_FELib_Open()">
<polygon fill="#bfbfbf" stroke="black" points="0.01,-0.5 0.01,-19.5 47.01,-19.5 47.01,-0.5 0.01,-0.5"/>
<text text-anchor="middle" x="23.51" y="-7.5" font-family="Helvetica,sans-Serif" font-size="10.00">open</text>
</a>
</g>
</g>
<!-- Node1&#45;&gt;Node1 -->
<g id="edge2" class="edge">
<title>Node1&#45;&gt;Node1</title>
<path fill="none" stroke="midnightblue" d="M4.4,-19.76C-4.9,-28.57 1.47,-38 23.51,-38 37.63,-38 45.32,-34.13 46.58,-29.03"/>
<polygon fill="midnightblue" stroke="midnightblue" points="49.77,-27.58 42.63,-19.76 43.33,-30.33 49.77,-27.58"/>
</g>
<!-- Node2 -->
<g id="node2" class="node">
<title>Node2</title>
<g id="a_node2"><a xlink:href="a00092.html#gaa3d6bda34a3c77848b1b1db4529cc047" target="_top" xlink:title="Connect to a device.">
<polygon fill="white" stroke="black" points="83.01,-0.5 83.01,-19.5 212.01,-19.5 212.01,-0.5 83.01,-0.5"/>
<text text-anchor="middle" x="147.51" y="-7.5" font-family="Helvetica,sans-Serif" font-size="10.00">CAEN_FELib_Open</text>
</a>
</g>
</g>
<!-- Node1&#45;&gt;Node2 -->
<g id="edge1" class="edge">
<title>Node1&#45;&gt;Node2</title>
<path fill="none" stroke="midnightblue" d="M47.17,-10C54.71,-10 63.57,-10 72.83,-10"/>
<polygon fill="midnightblue" stroke="midnightblue" points="73,-13.5 83,-10 73,-6.5 73,-13.5"/>
</g>
</g>
</svg>
