<?xml version="1.0" encoding="UTF-8" standalone="no"?>
<!DOCTYPE svg PUBLIC "-//W3C//DTD SVG 1.1//EN"
 "http://www.w3.org/Graphics/SVG/1.1/DTD/svg11.dtd">
<!-- Generated by graphviz version 2.49.3 (20211027.1534)
 -->
<!-- Title: CAEN_FELib_SetValue Pages: 1 -->
<svg width="926pt" height="57pt"
 viewBox="0.00 0.00 926.00 57.00" xmlns="http://www.w3.org/2000/svg" xmlns:xlink="http://www.w3.org/1999/xlink">
<g id="graph0" class="graph" transform="scale(1 1) rotate(0) translate(4 53)">
<title>CAEN_FELib_SetValue</title>
<polygon fill="white" stroke="transparent" points="-4,4 -4,-53 922,-53 922,4 -4,4"/>
<!-- Node1 -->
<g id="node1" class="node">
<title>Node1</title>
<g id="a_node1"><a xlink:title="Set the value of a writable node.">
<polygon fill="#bfbfbf" stroke="black" points="759,-6 759,-25 918,-25 918,-6 759,-6"/>
<text text-anchor="middle" x="838.5" y="-13" font-family="Helvetica,sans-Serif" font-size="10.00">CAEN_FELib_SetValue</text>
</a>
</g>
</g>
<!-- Node2 -->
<g id="node2" class="node">
<title>Node2</title>
<g id="a_node2"><a xlink:href="a00130.html#a4bcc21bbe32ae0fe6707ee9c7e41aa5a" target="_top" xlink:title="Binding of CAEN_FELib_SetValue()">
<polygon fill="white" stroke="black" points="511,-0.5 511,-30.5 723,-30.5 723,-0.5 511,-0.5"/>
<text text-anchor="start" x="519" y="-18.5" font-family="Helvetica,sans-Serif" font-size="10.00">caen_felib.device.Node.set</text>
<text text-anchor="middle" x="617" y="-7.5" font-family="Helvetica,sans-Serif" font-size="10.00">_value</text>
</a>
</g>
</g>
<!-- Node1&#45;&gt;Node2 -->
<g id="edge1" class="edge">
<title>Node1&#45;&gt;Node2</title>
<path fill="none" stroke="midnightblue" d="M748.74,-15.5C740.34,-15.5 731.78,-15.5 723.25,-15.5"/>
<polygon fill="midnightblue" stroke="midnightblue" points="748.88,-19 758.88,-15.5 748.88,-12 748.88,-19"/>
</g>
<!-- Node2&#45;&gt;Node2 -->
<g id="edge2" class="edge">
<title>Node2&#45;&gt;Node2</title>
<path fill="none" stroke="midnightblue" d="M656.09,-40.96C651.24,-45.68 638.21,-49 617,-49 582.2,-49 569.42,-40.06 578.66,-30.66"/>
<polygon fill="midnightblue" stroke="midnightblue" points="659.56,-40.38 655.34,-30.66 652.58,-40.89 659.56,-40.38"/>
</g>
<!-- Node3 -->
<g id="node3" class="node">
<title>Node3</title>
<g id="a_node3"><a xlink:href="a00130.html#a44c1c6b558a3bb1e5f628f5999b0ba46" target="_top" xlink:title=" ">
<polygon fill="white" stroke="black" points="248,-6 248,-25 475,-25 475,-6 248,-6"/>
<text text-anchor="middle" x="361.5" y="-13" font-family="Helvetica,sans-Serif" font-size="10.00">caen_felib.device.Node.value</text>
</a>
</g>
</g>
<!-- Node2&#45;&gt;Node3 -->
<g id="edge3" class="edge">
<title>Node2&#45;&gt;Node3</title>
<path fill="none" stroke="midnightblue" d="M500.5,-15.5C492.1,-15.5 483.64,-15.5 475.26,-15.5"/>
<polygon fill="midnightblue" stroke="midnightblue" points="500.7,-19 510.7,-15.5 500.7,-12 500.7,-19"/>
</g>
<!-- Node4 -->
<g id="node4" class="node">
<title>Node4</title>
<g id="a_node4"><a xlink:href="a00122.html#a11d17bccc3fcffb16d4d73169dfb4287" target="_top" xlink:title="ctypes pointer to Data.value that is used within Node.read_data">
<polygon fill="white" stroke="black" points="0,-6 0,-25 212,-25 212,-6 0,-6"/>
<text text-anchor="middle" x="106" y="-13" font-family="Helvetica,sans-Serif" font-size="10.00">caen_felib.device.Data.arg</text>
</a>
</g>
</g>
<!-- Node3&#45;&gt;Node4 -->
<g id="edge4" class="edge">
<title>Node3&#45;&gt;Node4</title>
<path fill="none" stroke="midnightblue" d="M237.76,-15.5C229.17,-15.5 220.54,-15.5 212.06,-15.5"/>
<polygon fill="midnightblue" stroke="midnightblue" points="237.83,-19 247.83,-15.5 237.83,-12 237.83,-19"/>
</g>
<!-- Node4&#45;&gt;Node4 -->
<g id="edge5" class="edge">
<title>Node4&#45;&gt;Node4</title>
<path fill="none" stroke="midnightblue" d="M153.2,-31.32C156.49,-37.91 140.75,-43.5 106,-43.5 60.61,-43.5 47.66,-33.96 67.17,-25.11"/>
<polygon fill="midnightblue" stroke="midnightblue" points="154.95,-28.26 144.83,-25.11 150.78,-33.88 154.95,-28.26"/>
</g>
</g>
</svg>
