<?xml version="1.0" encoding="UTF-8" standalone="no"?>
<!DOCTYPE svg PUBLIC "-//W3C//DTD SVG 1.1//EN"
 "http://www.w3.org/Graphics/SVG/1.1/DTD/svg11.dtd">
<!-- Generated by graphviz version 2.49.3 (20211027.1534)
 -->
<!-- Title: read_data Pages: 1 -->
<svg width="295pt" height="46pt"
 viewBox="0.00 0.00 295.00 46.00" xmlns="http://www.w3.org/2000/svg" xmlns:xlink="http://www.w3.org/1999/xlink">
<g id="graph0" class="graph" transform="scale(1 1) rotate(0) translate(4 42)">
<title>read_data</title>
<polygon fill="white" stroke="transparent" points="-4,4 -4,-42 291,-42 291,4 -4,4"/>
<!-- Node1 -->
<g id="node1" class="node">
<title>Node1</title>
<g id="a_node1"><a xlink:title="Wrapper to CAEN_FELib_ReadData()">
<polygon fill="#bfbfbf" stroke="black" points="203,-0.5 203,-19.5 287,-19.5 287,-0.5 203,-0.5"/>
<text text-anchor="middle" x="245" y="-7.5" font-family="Helvetica,sans-Serif" font-size="10.00">read_data</text>
</a>
</g>
</g>
<!-- Node1&#45;&gt;Node1 -->
<g id="edge1" class="edge">
<title>Node1&#45;&gt;Node1</title>
<path fill="none" stroke="midnightblue" d="M274.94,-28.27C274.09,-33.74 264.11,-38 245,-38 216.56,-38 208.34,-28.57 220.34,-19.76"/>
<polygon fill="midnightblue" stroke="midnightblue" points="277.9,-26.41 269.66,-19.76 271.95,-30.1 277.9,-26.41"/>
</g>
<!-- Node2 -->
<g id="node2" class="node">
<title>Node2</title>
<g id="a_node2"><a xlink:href="a00118.html#af55ef34727e8bd2d6d4b41e8c0a32ebe" target="_top" xlink:title="Wrapper to CAEN_FELib_SetReadDataFormat()">
<polygon fill="white" stroke="black" points="0,-0.5 0,-19.5 167,-19.5 167,-0.5 0,-0.5"/>
<text text-anchor="middle" x="83.5" y="-7.5" font-family="Helvetica,sans-Serif" font-size="10.00">set_read_data_format</text>
</a>
</g>
</g>
<!-- Node1&#45;&gt;Node2 -->
<g id="edge2" class="edge">
<title>Node1&#45;&gt;Node2</title>
<path fill="none" stroke="midnightblue" d="M192.83,-3.65C184.64,-3.41 175.99,-3.28 167.29,-3.25"/>
<polygon fill="midnightblue" stroke="midnightblue" points="192.81,-7.15 202.92,-4.01 193.06,-0.16 192.81,-7.15"/>
</g>
<!-- Node2&#45;&gt;Node1 -->
<g id="edge3" class="edge">
<title>Node2&#45;&gt;Node1</title>
<path fill="none" stroke="midnightblue" d="M177.4,-16.67C186.28,-16.56 194.94,-16.33 202.92,-15.99"/>
<polygon fill="midnightblue" stroke="midnightblue" points="177.26,-13.17 167.29,-16.75 177.32,-20.17 177.26,-13.17"/>
</g>
<!-- Node2&#45;&gt;Node2 -->
<g id="edge4" class="edge">
<title>Node2&#45;&gt;Node2</title>
<path fill="none" stroke="midnightblue" d="M113.44,-28.27C112.59,-33.74 102.61,-38 83.5,-38 55.06,-38 46.84,-28.57 58.84,-19.76"/>
<polygon fill="midnightblue" stroke="midnightblue" points="116.4,-26.41 108.16,-19.76 110.45,-30.1 116.4,-26.41"/>
</g>
</g>
</svg>
