<?xml version="1.0" encoding="UTF-8" standalone="no"?>
<!DOCTYPE svg PUBLIC "-//W3C//DTD SVG 1.1//EN"
 "http://www.w3.org/Graphics/SVG/1.1/DTD/svg11.dtd">
<!-- Generated by graphviz version 2.49.3 (20211027.1534)
 -->
<!-- Title: get_error_description Pages: 1 -->
<svg width="460pt" height="46pt"
 viewBox="0.00 0.00 460.00 46.00" xmlns="http://www.w3.org/2000/svg" xmlns:xlink="http://www.w3.org/1999/xlink">
<g id="graph0" class="graph" transform="scale(1 1) rotate(0) translate(4 42)">
<title>get_error_description</title>
<polygon fill="white" stroke="transparent" points="-4,4 -4,-42 456,-42 456,4 -4,4"/>
<!-- Node1 -->
<g id="node1" class="node">
<title>Node1</title>
<g id="a_node1"><a xlink:title="Wrapper to CAEN_FELib_GetErrorDescription()">
<polygon fill="#bfbfbf" stroke="black" points="0,-0.5 0,-19.5 174,-19.5 174,-0.5 0,-0.5"/>
<text text-anchor="middle" x="87" y="-7.5" font-family="Helvetica,sans-Serif" font-size="10.00">get_error_description</text>
</a>
</g>
</g>
<!-- Node1&#45;&gt;Node1 -->
<g id="edge2" class="edge">
<title>Node1&#45;&gt;Node1</title>
<path fill="none" stroke="midnightblue" d="M49.7,-19.61C30.96,-28.46 43.39,-38 87,-38 120.39,-38 135.5,-32.41 132.34,-25.82"/>
<polygon fill="midnightblue" stroke="midnightblue" points="134.36,-22.95 124.3,-19.61 130.08,-28.49 134.36,-22.95"/>
</g>
<!-- Node2 -->
<g id="node2" class="node">
<title>Node2</title>
<g id="a_node2"><a xlink:href="a00092.html#gad9bf7ecf9a1cf9258d720c53b9386364" target="_top" xlink:title="Get the detailed description of an error code.">
<polygon fill="white" stroke="black" points="210,-0.5 210,-19.5 452,-19.5 452,-0.5 210,-0.5"/>
<text text-anchor="middle" x="331" y="-7.5" font-family="Helvetica,sans-Serif" font-size="10.00">CAEN_FELib_GetErrorDescription</text>
</a>
</g>
</g>
<!-- Node1&#45;&gt;Node2 -->
<g id="edge1" class="edge">
<title>Node1&#45;&gt;Node2</title>
<path fill="none" stroke="midnightblue" d="M174,-10C182.4,-10 191.04,-10 199.75,-10"/>
<polygon fill="midnightblue" stroke="midnightblue" points="199.99,-13.5 209.99,-10 199.99,-6.5 199.99,-13.5"/>
</g>
</g>
</svg>
