<?xml version="1.0" encoding="UTF-8" standalone="no"?>
<!DOCTYPE svg PUBLIC "-//W3C//DTD SVG 1.1//EN"
 "http://www.w3.org/Graphics/SVG/1.1/DTD/svg11.dtd">
<!-- Generated by graphviz version 2.49.3 (20211027.1534)
 -->
<!-- Title: _Data._DataField Pages: 1 -->
<svg width="236pt" height="160pt"
 viewBox="0.00 0.00 236.00 160.00" xmlns="http://www.w3.org/2000/svg" xmlns:xlink="http://www.w3.org/1999/xlink">
<g id="graph0" class="graph" transform="scale(1 1) rotate(0) translate(4 156)">
<title>_Data._DataField</title>
<polygon fill="white" stroke="transparent" points="-4,4 -4,-156 232,-156 232,4 -4,4"/>
<!-- Node1 -->
<g id="node1" class="node">
<title>Node1</title>
<g id="a_node1"><a xlink:title=" ">
<polygon fill="#bfbfbf" stroke="black" points="60.5,-0.5 60.5,-57.5 197.5,-57.5 197.5,-0.5 60.5,-0.5"/>
<text text-anchor="middle" x="129" y="-45.5" font-family="Helvetica,sans-Serif" font-size="10.00">_Data._DataField</text>
<polyline fill="none" stroke="black" points="60.5,-38.5 197.5,-38.5 "/>
<text text-anchor="middle" x="129" y="-26.5" font-family="Helvetica,sans-Serif" font-size="10.00"> </text>
<polyline fill="none" stroke="black" points="60.5,-19.5 197.5,-19.5 "/>
<text text-anchor="middle" x="129" y="-7.5" font-family="Helvetica,sans-Serif" font-size="10.00"> </text>
</a>
</g>
</g>
<!-- Node2 -->
<g id="node2" class="node">
<title>Node2</title>
<g id="a_node2"><a xlink:title=" ">
<polygon fill="white" stroke="#bfbfbf" points="0,-94.5 0,-151.5 84,-151.5 84,-94.5 0,-94.5"/>
<text text-anchor="middle" x="42" y="-139.5" font-family="Helvetica,sans-Serif" font-size="10.00">TypedDict</text>
<polyline fill="none" stroke="#bfbfbf" points="0,-132.5 84,-132.5 "/>
<text text-anchor="middle" x="42" y="-120.5" font-family="Helvetica,sans-Serif" font-size="10.00"> </text>
<polyline fill="none" stroke="#bfbfbf" points="0,-113.5 84,-113.5 "/>
<text text-anchor="middle" x="42" y="-101.5" font-family="Helvetica,sans-Serif" font-size="10.00"> </text>
</a>
</g>
</g>
<!-- Node2&#45;&gt;Node1 -->
<g id="edge1" class="edge">
<title>Node2&#45;&gt;Node1</title>
<path fill="none" stroke="midnightblue" d="M75,-87.1C84.24,-77.34 94.14,-66.86 102.92,-57.58"/>
<polygon fill="none" stroke="midnightblue" points="72.43,-84.73 68.1,-94.4 77.52,-89.54 72.43,-84.73"/>
</g>
<!-- Node3 -->
<g id="node3" class="node">
<title>Node3</title>
<g id="a_node3"><a xlink:title=" ">
<polygon fill="white" stroke="#bfbfbf" points="102,-94.5 102,-151.5 156,-151.5 156,-94.5 102,-94.5"/>
<text text-anchor="middle" x="129" y="-139.5" font-family="Helvetica,sans-Serif" font-size="10.00">total</text>
<polyline fill="none" stroke="#bfbfbf" points="102,-132.5 156,-132.5 "/>
<text text-anchor="middle" x="129" y="-120.5" font-family="Helvetica,sans-Serif" font-size="10.00"> </text>
<polyline fill="none" stroke="#bfbfbf" points="102,-113.5 156,-113.5 "/>
<text text-anchor="middle" x="129" y="-101.5" font-family="Helvetica,sans-Serif" font-size="10.00"> </text>
</a>
</g>
</g>
<!-- Node3&#45;&gt;Node1 -->
<g id="edge2" class="edge">
<title>Node3&#45;&gt;Node1</title>
<path fill="none" stroke="midnightblue" d="M129,-84.21C129,-75.29 129,-65.95 129,-57.58"/>
<polygon fill="none" stroke="midnightblue" points="125.5,-84.4 129,-94.4 132.5,-84.4 125.5,-84.4"/>
</g>
<!-- Node4 -->
<g id="node4" class="node">
<title>Node4</title>
<g id="a_node4"><a xlink:title=" ">
<polygon fill="white" stroke="#bfbfbf" points="174,-94.5 174,-151.5 228,-151.5 228,-94.5 174,-94.5"/>
<text text-anchor="middle" x="201" y="-139.5" font-family="Helvetica,sans-Serif" font-size="10.00">False</text>
<polyline fill="none" stroke="#bfbfbf" points="174,-132.5 228,-132.5 "/>
<text text-anchor="middle" x="201" y="-120.5" font-family="Helvetica,sans-Serif" font-size="10.00"> </text>
<polyline fill="none" stroke="#bfbfbf" points="174,-113.5 228,-113.5 "/>
<text text-anchor="middle" x="201" y="-101.5" font-family="Helvetica,sans-Serif" font-size="10.00"> </text>
</a>
</g>
</g>
<!-- Node4&#45;&gt;Node1 -->
<g id="edge3" class="edge">
<title>Node4&#45;&gt;Node1</title>
<path fill="none" stroke="midnightblue" d="M173.01,-86.24C165.56,-76.72 157.63,-66.59 150.59,-57.58"/>
<polygon fill="none" stroke="midnightblue" points="170.48,-88.68 179.4,-94.4 175.99,-84.36 170.48,-88.68"/>
</g>
</g>
</svg>
