<?xml version="1.0" encoding="UTF-8" standalone="no"?>
<!DOCTYPE svg PUBLIC "-//W3C//DTD SVG 1.1//EN"
 "http://www.w3.org/Graphics/SVG/1.1/DTD/svg11.dtd">
<!-- Generated by graphviz version 2.49.3 (20211027.1534)
 -->
<!-- Title: version Pages: 1 -->
<svg width="475pt" height="46pt"
 viewBox="0.00 0.00 475.00 46.00" xmlns="http://www.w3.org/2000/svg" xmlns:xlink="http://www.w3.org/1999/xlink">
<g id="graph0" class="graph" transform="scale(1 1) rotate(0) translate(4 42)">
<title>version</title>
<polygon fill="white" stroke="transparent" points="-4,4 -4,-42 471,-42 471,4 -4,4"/>
<!-- Node1 -->
<g id="node1" class="node">
<title>Node1</title>
<g id="a_node1"><a xlink:title="Get library version.">
<polygon fill="#bfbfbf" stroke="black" points="0,-0.5 0,-19.5 69,-19.5 69,-0.5 0,-0.5"/>
<text text-anchor="middle" x="34.5" y="-7.5" font-family="Helvetica,sans-Serif" font-size="10.00">version</text>
</a>
</g>
</g>
<!-- Node1&#45;&gt;Node1 -->
<g id="edge4" class="edge">
<title>Node1&#45;&gt;Node1</title>
<path fill="none" stroke="midnightblue" d="M13.85,-19.76C3.8,-28.57 10.68,-38 34.5,-38 49.76,-38 58.07,-34.13 59.43,-29.03"/>
<polygon fill="midnightblue" stroke="midnightblue" points="62.52,-27.37 55.15,-19.76 56.16,-30.3 62.52,-27.37"/>
</g>
<!-- Node2 -->
<g id="node2" class="node">
<title>Node2</title>
<g id="a_node2"><a xlink:href="a00130.html#ac4b444d707c39df22a09750d9c04b584" target="_top" xlink:title="Wrapper to CAEN_FELib_GetLibVersion()">
<polygon fill="white" stroke="black" points="105,-0.5 105,-19.5 234,-19.5 234,-0.5 105,-0.5"/>
<text text-anchor="middle" x="169.5" y="-7.5" font-family="Helvetica,sans-Serif" font-size="10.00">get_lib_version</text>
</a>
</g>
</g>
<!-- Node1&#45;&gt;Node2 -->
<g id="edge1" class="edge">
<title>Node1&#45;&gt;Node2</title>
<path fill="none" stroke="midnightblue" d="M69.06,-10C77,-10 85.78,-10 94.73,-10"/>
<polygon fill="midnightblue" stroke="midnightblue" points="94.89,-13.5 104.89,-10 94.88,-6.5 94.89,-13.5"/>
</g>
<!-- Node2&#45;&gt;Node2 -->
<g id="edge3" class="edge">
<title>Node2&#45;&gt;Node2</title>
<path fill="none" stroke="midnightblue" d="M148.85,-19.76C138.8,-28.57 145.68,-38 169.5,-38 184.76,-38 193.07,-34.13 194.43,-29.03"/>
<polygon fill="midnightblue" stroke="midnightblue" points="197.52,-27.37 190.15,-19.76 191.16,-30.3 197.52,-27.37"/>
</g>
<!-- Node3 -->
<g id="node3" class="node">
<title>Node3</title>
<g id="a_node3"><a xlink:href="a00092.html#gaf3e0696280953f837bcddedc39e81dd2" target="_top" xlink:title="Get the value of CAEN_FELIB_VERSION_STRING used to compile the library.">
<polygon fill="white" stroke="black" points="270,-0.5 270,-19.5 467,-19.5 467,-0.5 270,-0.5"/>
<text text-anchor="middle" x="368.5" y="-7.5" font-family="Helvetica,sans-Serif" font-size="10.00">CAEN_FELib_GetLibVersion</text>
</a>
</g>
</g>
<!-- Node2&#45;&gt;Node3 -->
<g id="edge2" class="edge">
<title>Node2&#45;&gt;Node3</title>
<path fill="none" stroke="midnightblue" d="M234.19,-10C242.35,-10 250.88,-10 259.5,-10"/>
<polygon fill="midnightblue" stroke="midnightblue" points="259.65,-13.5 269.65,-10 259.65,-6.5 259.65,-13.5"/>
</g>
</g>
</svg>
