<?xml version="1.0" encoding="UTF-8" standalone="no"?>
<!DOCTYPE svg PUBLIC "-//W3C//DTD SVG 1.1//EN"
 "http://www.w3.org/Graphics/SVG/1.1/DTD/svg11.dtd">
<!-- Generated by graphviz version 2.49.3 (20211027.1534)
 -->
<!-- Title: read_data Pages: 1 -->
<svg width="558pt" height="84pt"
 viewBox="0.00 0.00 558.00 84.00" xmlns="http://www.w3.org/2000/svg" xmlns:xlink="http://www.w3.org/1999/xlink">
<g id="graph0" class="graph" transform="scale(1 1) rotate(0) translate(4 80)">
<title>read_data</title>
<polygon fill="white" stroke="transparent" points="-4,4 -4,-80 554,-80 554,4 -4,4"/>
<!-- Node1 -->
<g id="node1" class="node">
<title>Node1</title>
<g id="a_node1"><a xlink:title="Wrapper to CAEN_FELib_ReadData()">
<polygon fill="#bfbfbf" stroke="black" points="0,-0.5 0,-19.5 84,-19.5 84,-0.5 0,-0.5"/>
<text text-anchor="middle" x="42" y="-7.5" font-family="Helvetica,sans-Serif" font-size="10.00">read_data</text>
</a>
</g>
</g>
<!-- Node1&#45;&gt;Node1 -->
<g id="edge2" class="edge">
<title>Node1&#45;&gt;Node1</title>
<path fill="none" stroke="midnightblue" d="M17.34,-19.76C5.34,-28.57 13.56,-38 42,-38 61.11,-38 71.09,-33.74 71.94,-28.27"/>
<polygon fill="midnightblue" stroke="midnightblue" points="74.9,-26.41 66.66,-19.76 68.95,-30.1 74.9,-26.41"/>
</g>
<!-- Node2 -->
<g id="node2" class="node">
<title>Node2</title>
<g id="a_node2"><a xlink:href="a00092.html#ga3513d9316bfabd58fd9680f76c07985c" target="_top" xlink:title="Read the data provided by an endpoint node.">
<polygon fill="white" stroke="black" points="124,-56.5 124,-75.5 283,-75.5 283,-56.5 124,-56.5"/>
<text text-anchor="middle" x="203.5" y="-63.5" font-family="Helvetica,sans-Serif" font-size="10.00">CAEN_FELib_ReadData</text>
</a>
</g>
</g>
<!-- Node1&#45;&gt;Node2 -->
<g id="edge1" class="edge">
<title>Node1&#45;&gt;Node2</title>
<path fill="none" stroke="midnightblue" d="M59.96,-19.5C75.26,-27.74 98.59,-39.49 120,-47 127.31,-49.56 135.12,-51.88 142.89,-53.94"/>
<polygon fill="midnightblue" stroke="midnightblue" points="142.14,-57.36 152.69,-56.41 143.85,-50.57 142.14,-57.36"/>
</g>
<!-- Node3 -->
<g id="node3" class="node">
<title>Node3</title>
<g id="a_node3"><a xlink:href="a00118.html#af55ef34727e8bd2d6d4b41e8c0a32ebe" target="_top" xlink:title="Wrapper to CAEN_FELib_SetReadDataFormat()">
<polygon fill="white" stroke="black" points="120,-0.5 120,-19.5 287,-19.5 287,-0.5 120,-0.5"/>
<text text-anchor="middle" x="203.5" y="-7.5" font-family="Helvetica,sans-Serif" font-size="10.00">set_read_data_format</text>
</a>
</g>
</g>
<!-- Node1&#45;&gt;Node3 -->
<g id="edge3" class="edge">
<title>Node1&#45;&gt;Node3</title>
<path fill="none" stroke="midnightblue" d="M84.08,-4.01C92.06,-3.67 100.72,-3.44 109.6,-3.33"/>
<polygon fill="midnightblue" stroke="midnightblue" points="109.74,-6.83 119.71,-3.25 109.68,0.17 109.74,-6.83"/>
</g>
<!-- Node3&#45;&gt;Node1 -->
<g id="edge5" class="edge">
<title>Node3&#45;&gt;Node1</title>
<path fill="none" stroke="midnightblue" d="M119.71,-16.75C111.01,-16.72 102.36,-16.59 94.17,-16.35"/>
<polygon fill="midnightblue" stroke="midnightblue" points="94.19,-12.85 84.08,-15.99 93.94,-19.84 94.19,-12.85"/>
</g>
<!-- Node3&#45;&gt;Node3 -->
<g id="edge6" class="edge">
<title>Node3&#45;&gt;Node3</title>
<path fill="none" stroke="midnightblue" d="M178.84,-19.76C166.84,-28.57 175.06,-38 203.5,-38 222.61,-38 232.59,-33.74 233.44,-28.27"/>
<polygon fill="midnightblue" stroke="midnightblue" points="236.4,-26.41 228.16,-19.76 230.45,-30.1 236.4,-26.41"/>
</g>
<!-- Node4 -->
<g id="node4" class="node">
<title>Node4</title>
<g id="a_node4"><a xlink:href="a00092.html#gaf8d7562389a677f080d566da093cf062" target="_top" xlink:title="Set the format for the ReadData function to a endpoint node.">
<polygon fill="white" stroke="black" points="323,-0.5 323,-19.5 550,-19.5 550,-0.5 323,-0.5"/>
<text text-anchor="middle" x="436.5" y="-7.5" font-family="Helvetica,sans-Serif" font-size="10.00">CAEN_FELib_SetReadDataFormat</text>
</a>
</g>
</g>
<!-- Node3&#45;&gt;Node4 -->
<g id="edge4" class="edge">
<title>Node3&#45;&gt;Node4</title>
<path fill="none" stroke="midnightblue" d="M287.24,-10C295.53,-10 304.05,-10 312.63,-10"/>
<polygon fill="midnightblue" stroke="midnightblue" points="312.72,-13.5 322.72,-10 312.72,-6.5 312.72,-13.5"/>
</g>
</g>
</svg>
