<?xml version="1.0" encoding="UTF-8" standalone="no"?>
<!DOCTYPE svg PUBLIC "-//W3C//DTD SVG 1.1//EN"
 "http://www.w3.org/Graphics/SVG/1.1/DTD/svg11.dtd">
<!-- Generated by graphviz version 2.49.3 (20211027.1534)
 -->
<!-- Title: name Pages: 1 -->
<svg width="516pt" height="46pt"
 viewBox="0.00 0.00 515.67 46.00" xmlns="http://www.w3.org/2000/svg" xmlns:xlink="http://www.w3.org/1999/xlink">
<g id="graph0" class="graph" transform="scale(1 1) rotate(0) translate(4 42)">
<title>name</title>
<polygon fill="white" stroke="transparent" points="-4,4 -4,-42 511.67,-42 511.67,4 -4,4"/>
<!-- Node1 -->
<g id="node1" class="node">
<title>Node1</title>
<g id="a_node1"><a xlink:title="Node name.">
<polygon fill="#bfbfbf" stroke="black" points="2.67,-0.5 2.67,-19.5 49.67,-19.5 49.67,-0.5 2.67,-0.5"/>
<text text-anchor="middle" x="26.17" y="-7.5" font-family="Helvetica,sans-Serif" font-size="10.00">name</text>
</a>
</g>
</g>
<!-- Node1&#45;&gt;Node1 -->
<g id="edge4" class="edge">
<title>Node1&#45;&gt;Node1</title>
<path fill="none" stroke="midnightblue" d="M4.9,-19.76C-5.45,-28.57 1.64,-38 26.17,-38 41.88,-38 50.44,-34.13 51.84,-29.03"/>
<polygon fill="midnightblue" stroke="midnightblue" points="54.89,-27.29 47.44,-19.76 48.56,-30.29 54.89,-27.29"/>
</g>
<!-- Node2 -->
<g id="node2" class="node">
<title>Node2</title>
<g id="a_node2"><a xlink:href="a00118.html#a628025186cdf85cf7459c5b3972172ac" target="_top" xlink:title="Wrapper to CAEN_FELib_GetNodeProperties()">
<polygon fill="white" stroke="black" points="85.67,-0.5 85.67,-19.5 244.67,-19.5 244.67,-0.5 85.67,-0.5"/>
<text text-anchor="middle" x="165.17" y="-7.5" font-family="Helvetica,sans-Serif" font-size="10.00">get_node_properties</text>
</a>
</g>
</g>
<!-- Node1&#45;&gt;Node2 -->
<g id="edge1" class="edge">
<title>Node1&#45;&gt;Node2</title>
<path fill="none" stroke="midnightblue" d="M49.79,-10C57.21,-10 65.97,-10 75.27,-10"/>
<polygon fill="midnightblue" stroke="midnightblue" points="75.55,-13.5 85.55,-10 75.55,-6.5 75.55,-13.5"/>
</g>
<!-- Node2&#45;&gt;Node2 -->
<g id="edge3" class="edge">
<title>Node2&#45;&gt;Node2</title>
<path fill="none" stroke="midnightblue" d="M143.9,-19.76C133.55,-28.57 140.64,-38 165.17,-38 180.88,-38 189.44,-34.13 190.84,-29.03"/>
<polygon fill="midnightblue" stroke="midnightblue" points="193.89,-27.29 186.44,-19.76 187.56,-30.29 193.89,-27.29"/>
</g>
<!-- Node3 -->
<g id="node3" class="node">
<title>Node3</title>
<g id="a_node3"><a xlink:href="a00092.html#ga0c5b9e819cdb1f50c760866f0cf763bd" target="_top" xlink:title="Get the name and type of a node.">
<polygon fill="white" stroke="black" points="280.67,-0.5 280.67,-19.5 507.67,-19.5 507.67,-0.5 280.67,-0.5"/>
<text text-anchor="middle" x="394.17" y="-7.5" font-family="Helvetica,sans-Serif" font-size="10.00">CAEN_FELib_GetNodeProperties</text>
</a>
</g>
</g>
<!-- Node2&#45;&gt;Node3 -->
<g id="edge2" class="edge">
<title>Node2&#45;&gt;Node3</title>
<path fill="none" stroke="midnightblue" d="M244.92,-10C253.21,-10 261.76,-10 270.39,-10"/>
<polygon fill="midnightblue" stroke="midnightblue" points="270.54,-13.5 280.54,-10 270.54,-6.5 270.54,-13.5"/>
</g>
</g>
</svg>
