<?xml version="1.0" encoding="UTF-8" standalone="no"?>
<!DOCTYPE svg PUBLIC "-//W3C//DTD SVG 1.1//EN"
 "http://www.w3.org/Graphics/SVG/1.1/DTD/svg11.dtd">
<!-- Generated by graphviz version 2.49.3 (20211027.1534)
 -->
<!-- Title: NodeType Pages: 1 -->
<svg width="115pt" height="314pt"
 viewBox="0.00 0.00 115.00 314.00" xmlns="http://www.w3.org/2000/svg" xmlns:xlink="http://www.w3.org/1999/xlink">
<g id="graph0" class="graph" transform="scale(1 1) rotate(0) translate(4 310)">
<title>NodeType</title>
<polygon fill="white" stroke="transparent" points="-4,4 -4,-310 111,-310 111,4 -4,4"/>
<!-- Node1 -->
<g id="node1" class="node">
<title>Node1</title>
<g id="a_node1"><a xlink:title="Wrapper to CAEN_FELib_NodeType_t.">
<polygon fill="#bfbfbf" stroke="black" points="0,-0.5 0,-211.5 107,-211.5 107,-0.5 0,-0.5"/>
<text text-anchor="middle" x="53.5" y="-199.5" font-family="Helvetica,sans-Serif" font-size="10.00">NodeType</text>
<polyline fill="none" stroke="black" points="0,-192.5 107,-192.5 "/>
<text text-anchor="start" x="8" y="-180.5" font-family="Helvetica,sans-Serif" font-size="10.00">+ UNKNOWN</text>
<text text-anchor="start" x="8" y="-169.5" font-family="Helvetica,sans-Serif" font-size="10.00">+ PARAMETER</text>
<text text-anchor="start" x="8" y="-158.5" font-family="Helvetica,sans-Serif" font-size="10.00">+ COMMAND</text>
<text text-anchor="start" x="8" y="-147.5" font-family="Helvetica,sans-Serif" font-size="10.00">+ FEATURE</text>
<text text-anchor="start" x="8" y="-136.5" font-family="Helvetica,sans-Serif" font-size="10.00">+ ATTRIBUTE</text>
<text text-anchor="start" x="8" y="-125.5" font-family="Helvetica,sans-Serif" font-size="10.00">+ ENDPOINT</text>
<text text-anchor="start" x="8" y="-114.5" font-family="Helvetica,sans-Serif" font-size="10.00">+ CHANNEL</text>
<text text-anchor="start" x="8" y="-103.5" font-family="Helvetica,sans-Serif" font-size="10.00">+ DIGITIZER</text>
<text text-anchor="start" x="8" y="-92.5" font-family="Helvetica,sans-Serif" font-size="10.00">+ FOLDER</text>
<text text-anchor="start" x="8" y="-81.5" font-family="Helvetica,sans-Serif" font-size="10.00">+ LVDS</text>
<text text-anchor="start" x="8" y="-70.5" font-family="Helvetica,sans-Serif" font-size="10.00">+ VGA</text>
<text text-anchor="start" x="8" y="-59.5" font-family="Helvetica,sans-Serif" font-size="10.00">+ HV_CHANNEL</text>
<text text-anchor="start" x="8" y="-48.5" font-family="Helvetica,sans-Serif" font-size="10.00">+ MONOUT</text>
<text text-anchor="start" x="8" y="-37.5" font-family="Helvetica,sans-Serif" font-size="10.00">+ VTRACE</text>
<text text-anchor="start" x="8" y="-26.5" font-family="Helvetica,sans-Serif" font-size="10.00">+ GROUP</text>
<polyline fill="none" stroke="black" points="0,-19.5 107,-19.5 "/>
<text text-anchor="middle" x="53.5" y="-7.5" font-family="Helvetica,sans-Serif" font-size="10.00"> </text>
</a>
</g>
</g>
<!-- Node2 -->
<g id="node2" class="node">
<title>Node2</title>
<g id="a_node2"><a xlink:title=" ">
<polygon fill="white" stroke="#bfbfbf" points="19,-248.5 19,-305.5 88,-305.5 88,-248.5 19,-248.5"/>
<text text-anchor="middle" x="53.5" y="-293.5" font-family="Helvetica,sans-Serif" font-size="10.00">IntEnum</text>
<polyline fill="none" stroke="#bfbfbf" points="19,-286.5 88,-286.5 "/>
<text text-anchor="middle" x="53.5" y="-274.5" font-family="Helvetica,sans-Serif" font-size="10.00"> </text>
<polyline fill="none" stroke="#bfbfbf" points="19,-267.5 88,-267.5 "/>
<text text-anchor="middle" x="53.5" y="-255.5" font-family="Helvetica,sans-Serif" font-size="10.00"> </text>
</a>
</g>
</g>
<!-- Node2&#45;&gt;Node1 -->
<g id="edge1" class="edge">
<title>Node2&#45;&gt;Node1</title>
<path fill="none" stroke="midnightblue" d="M53.5,-238.23C53.5,-230.04 53.5,-220.99 53.5,-211.58"/>
<polygon fill="none" stroke="midnightblue" points="50,-238.47 53.5,-248.47 57,-238.47 50,-238.47"/>
</g>
</g>
</svg>
