<?xml version="1.0" encoding="UTF-8" standalone="no"?>
<!DOCTYPE svg PUBLIC "-//W3C//DTD SVG 1.1//EN"
 "http://www.w3.org/Graphics/SVG/1.1/DTD/svg11.dtd">
<!-- Generated by graphviz version 2.49.3 (20211027.1534)
 -->
<!-- Title: get_parent_node Pages: 1 -->
<svg width="843pt" height="122pt"
 viewBox="0.00 0.00 843.00 122.00" xmlns="http://www.w3.org/2000/svg" xmlns:xlink="http://www.w3.org/1999/xlink">
<g id="graph0" class="graph" transform="scale(1 1) rotate(0) translate(4 118)">
<title>get_parent_node</title>
<polygon fill="white" stroke="transparent" points="-4,4 -4,-118 839,-118 839,4 -4,4"/>
<!-- Node1 -->
<g id="node1" class="node">
<title>Node1</title>
<g id="a_node1"><a xlink:title="Wrapper to CAEN_FELib_GetParentHandle()">
<polygon fill="#bfbfbf" stroke="black" points="0,-56.5 0,-75.5 129,-75.5 129,-56.5 0,-56.5"/>
<text text-anchor="middle" x="64.5" y="-63.5" font-family="Helvetica,sans-Serif" font-size="10.00">get_parent_node</text>
</a>
</g>
</g>
<!-- Node1&#45;&gt;Node1 -->
<g id="edge3" class="edge">
<title>Node1&#45;&gt;Node1</title>
<path fill="none" stroke="midnightblue" d="M32.75,-75.76C17.3,-84.57 27.89,-94 64.5,-94 90.82,-94 103.68,-89.13 103.11,-83.11"/>
<polygon fill="midnightblue" stroke="midnightblue" points="105.63,-80.69 96.25,-75.76 100.51,-85.46 105.63,-80.69"/>
</g>
<!-- Node2 -->
<g id="node2" class="node">
<title>Node2</title>
<g id="a_node2"><a xlink:href="a00118.html#" target="_top" xlink:title=" ">
<polygon fill="white" stroke="black" points="221.5,-94.5 221.5,-113.5 320.5,-113.5 320.5,-94.5 221.5,-94.5"/>
<text text-anchor="middle" x="271" y="-101.5" font-family="Helvetica,sans-Serif" font-size="10.00">__root_node</text>
</a>
</g>
</g>
<!-- Node1&#45;&gt;Node2 -->
<g id="edge1" class="edge">
<title>Node1&#45;&gt;Node2</title>
<path fill="none" stroke="midnightblue" d="M114.83,-75.52C130.83,-78.58 148.66,-81.96 165,-85 179.95,-87.78 196.1,-90.73 211.15,-93.45"/>
<polygon fill="midnightblue" stroke="midnightblue" points="210.9,-96.97 221.37,-95.3 212.15,-90.08 210.9,-96.97"/>
</g>
<!-- Node3 -->
<g id="node3" class="node">
<title>Node3</title>
<g id="a_node3"><a xlink:href="a00092.html#gac9459f6a283f1caf4c991057b66e40ef" target="_top" xlink:title="Get the parent handle of a node.">
<polygon fill="white" stroke="black" points="165,-56.5 165,-75.5 377,-75.5 377,-56.5 165,-56.5"/>
<text text-anchor="middle" x="271" y="-63.5" font-family="Helvetica,sans-Serif" font-size="10.00">CAEN_FELib_GetParentHandle</text>
</a>
</g>
</g>
<!-- Node1&#45;&gt;Node3 -->
<g id="edge2" class="edge">
<title>Node1&#45;&gt;Node3</title>
<path fill="none" stroke="midnightblue" d="M129.08,-66C137.26,-66 145.82,-66 154.51,-66"/>
<polygon fill="midnightblue" stroke="midnightblue" points="154.76,-69.5 164.76,-66 154.76,-62.5 154.76,-69.5"/>
</g>
<!-- Node4 -->
<g id="node4" class="node">
<title>Node4</title>
<g id="a_node4"><a xlink:href="a00118.html#ab640bd6bd3ecc06e6a89e62ac1961696" target="_top" xlink:title="Node type.">
<polygon fill="white" stroke="black" points="247.5,-0.5 247.5,-19.5 294.5,-19.5 294.5,-0.5 247.5,-0.5"/>
<text text-anchor="middle" x="271" y="-7.5" font-family="Helvetica,sans-Serif" font-size="10.00">type</text>
</a>
</g>
</g>
<!-- Node1&#45;&gt;Node4 -->
<g id="edge4" class="edge">
<title>Node1&#45;&gt;Node4</title>
<path fill="none" stroke="midnightblue" d="M100.65,-56.37C139.07,-45.85 200.1,-29.14 237.45,-18.91"/>
<polygon fill="midnightblue" stroke="midnightblue" points="238.6,-22.23 247.32,-16.21 236.75,-15.48 238.6,-22.23"/>
</g>
<!-- Node4&#45;&gt;Node4 -->
<g id="edge8" class="edge">
<title>Node4&#45;&gt;Node4</title>
<path fill="none" stroke="midnightblue" d="M247.46,-16.05C221.31,-25.68 229.16,-38 271,-38 306.63,-38 317.61,-29.06 303.94,-20.47"/>
<polygon fill="midnightblue" stroke="midnightblue" points="305.08,-17.13 294.54,-16.05 302.1,-23.47 305.08,-17.13"/>
</g>
<!-- Node5 -->
<g id="node5" class="node">
<title>Node5</title>
<g id="a_node5"><a xlink:href="a00118.html#a628025186cdf85cf7459c5b3972172ac" target="_top" xlink:title="Wrapper to CAEN_FELib_GetNodeProperties()">
<polygon fill="white" stroke="black" points="413,-0.5 413,-19.5 572,-19.5 572,-0.5 413,-0.5"/>
<text text-anchor="middle" x="492.5" y="-7.5" font-family="Helvetica,sans-Serif" font-size="10.00">get_node_properties</text>
</a>
</g>
</g>
<!-- Node4&#45;&gt;Node5 -->
<g id="edge5" class="edge">
<title>Node4&#45;&gt;Node5</title>
<path fill="none" stroke="midnightblue" d="M294.66,-10C320.16,-10 363.15,-10 402.46,-10"/>
<polygon fill="midnightblue" stroke="midnightblue" points="402.63,-13.5 412.63,-10 402.63,-6.5 402.63,-13.5"/>
</g>
<!-- Node5&#45;&gt;Node5 -->
<g id="edge7" class="edge">
<title>Node5&#45;&gt;Node5</title>
<path fill="none" stroke="midnightblue" d="M458.87,-19.61C441.97,-28.46 453.18,-38 492.5,-38 521.37,-38 535.09,-32.86 533.65,-26.62"/>
<polygon fill="midnightblue" stroke="midnightblue" points="535.83,-23.87 526.13,-19.61 531.06,-28.99 535.83,-23.87"/>
</g>
<!-- Node6 -->
<g id="node6" class="node">
<title>Node6</title>
<g id="a_node6"><a xlink:href="a00092.html#ga0c5b9e819cdb1f50c760866f0cf763bd" target="_top" xlink:title="Get the name and type of a node.">
<polygon fill="white" stroke="black" points="608,-0.5 608,-19.5 835,-19.5 835,-0.5 608,-0.5"/>
<text text-anchor="middle" x="721.5" y="-7.5" font-family="Helvetica,sans-Serif" font-size="10.00">CAEN_FELib_GetNodeProperties</text>
</a>
</g>
</g>
<!-- Node5&#45;&gt;Node6 -->
<g id="edge6" class="edge">
<title>Node5&#45;&gt;Node6</title>
<path fill="none" stroke="midnightblue" d="M572.26,-10C580.54,-10 589.1,-10 597.73,-10"/>
<polygon fill="midnightblue" stroke="midnightblue" points="597.88,-13.5 607.88,-10 597.88,-6.5 597.88,-13.5"/>
</g>
</g>
</svg>
