<?xml version="1.0" encoding="UTF-8" standalone="no"?>
<!DOCTYPE svg PUBLIC "-//W3C//DTD SVG 1.1//EN"
 "http://www.w3.org/Graphics/SVG/1.1/DTD/svg11.dtd">
<!-- Generated by graphviz version 2.49.3 (20211027.1534)
 -->
<!-- Title: get_last_error Pages: 1 -->
<svg width="258pt" height="46pt"
 viewBox="0.00 0.00 258.00 46.00" xmlns="http://www.w3.org/2000/svg" xmlns:xlink="http://www.w3.org/1999/xlink">
<g id="graph0" class="graph" transform="scale(1 1) rotate(0) translate(4 42)">
<title>get_last_error</title>
<polygon fill="white" stroke="transparent" points="-4,4 -4,-42 254,-42 254,4 -4,4"/>
<!-- Node1 -->
<g id="node1" class="node">
<title>Node1</title>
<g id="a_node1"><a xlink:title="Wrapper to CAEN_FELib_GetLastError()">
<polygon fill="#bfbfbf" stroke="black" points="128,-0.5 128,-19.5 250,-19.5 250,-0.5 128,-0.5"/>
<text text-anchor="middle" x="189" y="-7.5" font-family="Helvetica,sans-Serif" font-size="10.00">get_last_error</text>
</a>
</g>
</g>
<!-- Node1&#45;&gt;Node1 -->
<g id="edge1" class="edge">
<title>Node1&#45;&gt;Node1</title>
<path fill="none" stroke="midnightblue" d="M215.51,-28.65C214.4,-33.94 205.56,-38 189,-38 163.76,-38 156.47,-28.57 167.11,-19.76"/>
<polygon fill="midnightblue" stroke="midnightblue" points="218.6,-27.02 210.89,-19.76 212.39,-30.24 218.6,-27.02"/>
</g>
<!-- Node2 -->
<g id="node2" class="node">
<title>Node2</title>
<g id="a_node2"><a xlink:href="a00130.html#a773932634d1145aa71c5943a5ff10129" target="_top" xlink:title="Get last error.">
<polygon fill="white" stroke="black" points="0,-0.5 0,-19.5 92,-19.5 92,-0.5 0,-0.5"/>
<text text-anchor="middle" x="46" y="-7.5" font-family="Helvetica,sans-Serif" font-size="10.00">last_error</text>
</a>
</g>
</g>
<!-- Node1&#45;&gt;Node2 -->
<g id="edge2" class="edge">
<title>Node1&#45;&gt;Node2</title>
<path fill="none" stroke="midnightblue" d="M117.63,-10C108.93,-10 100.24,-10 92.07,-10"/>
<polygon fill="midnightblue" stroke="midnightblue" points="117.79,-13.5 127.79,-10 117.79,-6.5 117.79,-13.5"/>
</g>
<!-- Node2&#45;&gt;Node2 -->
<g id="edge3" class="edge">
<title>Node2&#45;&gt;Node2</title>
<path fill="none" stroke="midnightblue" d="M72.51,-28.65C71.4,-33.94 62.56,-38 46,-38 20.76,-38 13.47,-28.57 24.11,-19.76"/>
<polygon fill="midnightblue" stroke="midnightblue" points="75.6,-27.02 67.89,-19.76 69.39,-30.24 75.6,-27.02"/>
</g>
</g>
</svg>
