<?xml version="1.0" encoding="UTF-8" standalone="no"?>
<!DOCTYPE svg PUBLIC "-//W3C//DTD SVG 1.1//EN"
 "http://www.w3.org/Graphics/SVG/1.1/DTD/svg11.dtd">
<!-- Generated by graphviz version 2.49.3 (20211027.1534)
 -->
<!-- Title: get_impl_lib_version Pages: 1 -->
<svg width="438pt" height="46pt"
 viewBox="0.00 0.00 438.00 46.00" xmlns="http://www.w3.org/2000/svg" xmlns:xlink="http://www.w3.org/1999/xlink">
<g id="graph0" class="graph" transform="scale(1 1) rotate(0) translate(4 42)">
<title>get_impl_lib_version</title>
<polygon fill="white" stroke="transparent" points="-4,4 -4,-42 434,-42 434,4 -4,4"/>
<!-- Node1 -->
<g id="node1" class="node">
<title>Node1</title>
<g id="a_node1"><a xlink:title="Wrapper to CAEN_FELib_GetImplLibVersion()">
<polygon fill="#bfbfbf" stroke="black" points="0,-0.5 0,-19.5 167,-19.5 167,-0.5 0,-0.5"/>
<text text-anchor="middle" x="83.5" y="-7.5" font-family="Helvetica,sans-Serif" font-size="10.00">get_impl_lib_version</text>
</a>
</g>
</g>
<!-- Node1&#45;&gt;Node1 -->
<g id="edge2" class="edge">
<title>Node1&#45;&gt;Node1</title>
<path fill="none" stroke="midnightblue" d="M48.03,-19.61C30.22,-28.46 42.04,-38 83.5,-38 114.6,-38 129.02,-32.63 126.77,-26.22"/>
<polygon fill="midnightblue" stroke="midnightblue" points="128.86,-23.4 118.97,-19.61 124.34,-28.74 128.86,-23.4"/>
</g>
<!-- Node2 -->
<g id="node2" class="node">
<title>Node2</title>
<g id="a_node2"><a xlink:href="a00092.html#ga9d94cc1b9d54447f0a8bf7a431e4110f" target="_top" xlink:title="Get the version of the implementation library used by an handle.">
<polygon fill="white" stroke="black" points="203,-0.5 203,-19.5 430,-19.5 430,-0.5 203,-0.5"/>
<text text-anchor="middle" x="316.5" y="-7.5" font-family="Helvetica,sans-Serif" font-size="10.00">CAEN_FELib_GetImplLibVersion</text>
</a>
</g>
</g>
<!-- Node1&#45;&gt;Node2 -->
<g id="edge1" class="edge">
<title>Node1&#45;&gt;Node2</title>
<path fill="none" stroke="midnightblue" d="M167.24,-10C175.53,-10 184.05,-10 192.63,-10"/>
<polygon fill="midnightblue" stroke="midnightblue" points="192.72,-13.5 202.72,-10 192.72,-6.5 192.72,-13.5"/>
</g>
</g>
</svg>
