<?xml version="1.0" encoding="UTF-8" standalone="no"?>
<!DOCTYPE svg PUBLIC "-//W3C//DTD SVG 1.1//EN"
 "http://www.w3.org/Graphics/SVG/1.1/DTD/svg11.dtd">
<!-- Generated by graphviz version 2.49.3 (20211027.1534)
 -->
<!-- Title: get_lib_info Pages: 1 -->
<svg width="325pt" height="46pt"
 viewBox="0.00 0.00 325.00 46.00" xmlns="http://www.w3.org/2000/svg" xmlns:xlink="http://www.w3.org/1999/xlink">
<g id="graph0" class="graph" transform="scale(1 1) rotate(0) translate(4 42)">
<title>get_lib_info</title>
<polygon fill="white" stroke="transparent" points="-4,4 -4,-42 321,-42 321,4 -4,4"/>
<!-- Node1 -->
<g id="node1" class="node">
<title>Node1</title>
<g id="a_node1"><a xlink:title="Wrapper to CAEN_FELib_GetLibInfo()">
<polygon fill="#bfbfbf" stroke="black" points="0,-0.5 0,-19.5 107,-19.5 107,-0.5 0,-0.5"/>
<text text-anchor="middle" x="53.5" y="-7.5" font-family="Helvetica,sans-Serif" font-size="10.00">get_lib_info</text>
</a>
</g>
</g>
<!-- Node1&#45;&gt;Node1 -->
<g id="edge2" class="edge">
<title>Node1&#45;&gt;Node1</title>
<path fill="none" stroke="midnightblue" d="M26.37,-19.76C13.18,-28.57 22.22,-38 53.5,-38 75.01,-38 86,-33.54 86.48,-27.89"/>
<polygon fill="midnightblue" stroke="midnightblue" points="89.31,-25.83 80.63,-19.76 83.63,-29.92 89.31,-25.83"/>
</g>
<!-- Node2 -->
<g id="node2" class="node">
<title>Node2</title>
<g id="a_node2"><a xlink:href="a00092.html#ga5638b652efd6778baaa08cc7456b5f06" target="_top" xlink:title="Get a JSON string that contains informations about this library, like version, supported devices,...">
<polygon fill="white" stroke="black" points="143,-0.5 143,-19.5 317,-19.5 317,-0.5 143,-0.5"/>
<text text-anchor="middle" x="230" y="-7.5" font-family="Helvetica,sans-Serif" font-size="10.00">CAEN_FELib_GetLibInfo</text>
</a>
</g>
</g>
<!-- Node1&#45;&gt;Node2 -->
<g id="edge1" class="edge">
<title>Node1&#45;&gt;Node2</title>
<path fill="none" stroke="midnightblue" d="M107.33,-10C115.4,-10 123.95,-10 132.61,-10"/>
<polygon fill="midnightblue" stroke="midnightblue" points="132.82,-13.5 142.82,-10 132.82,-6.5 132.82,-13.5"/>
</g>
</g>
</svg>
