<?xml version="1.0" encoding="UTF-8" standalone="no"?>
<!DOCTYPE svg PUBLIC "-//W3C//DTD SVG 1.1//EN"
 "http://www.w3.org/Graphics/SVG/1.1/DTD/svg11.dtd">
<!-- Generated by graphviz version 2.49.3 (20211027.1534)
 -->
<!-- Title: get_user_register Pages: 1 -->
<svg width="400pt" height="46pt"
 viewBox="0.00 0.00 400.00 46.00" xmlns="http://www.w3.org/2000/svg" xmlns:xlink="http://www.w3.org/1999/xlink">
<g id="graph0" class="graph" transform="scale(1 1) rotate(0) translate(4 42)">
<title>get_user_register</title>
<polygon fill="white" stroke="transparent" points="-4,4 -4,-42 396,-42 396,4 -4,4"/>
<!-- Node1 -->
<g id="node1" class="node">
<title>Node1</title>
<g id="a_node1"><a xlink:title="Wrapper to CAEN_FELib_GetUserRegister()">
<polygon fill="#bfbfbf" stroke="black" points="0,-0.5 0,-19.5 144,-19.5 144,-0.5 0,-0.5"/>
<text text-anchor="middle" x="72" y="-7.5" font-family="Helvetica,sans-Serif" font-size="10.00">get_user_register</text>
</a>
</g>
</g>
<!-- Node1&#45;&gt;Node1 -->
<g id="edge2" class="edge">
<title>Node1&#45;&gt;Node1</title>
<path fill="none" stroke="midnightblue" d="M39.28,-19.61C22.85,-28.46 33.76,-38 72,-38 100.09,-38 113.43,-32.86 112.02,-26.62"/>
<polygon fill="midnightblue" stroke="midnightblue" points="114.36,-24.01 104.72,-19.61 109.51,-29.06 114.36,-24.01"/>
</g>
<!-- Node2 -->
<g id="node2" class="node">
<title>Node2</title>
<g id="a_node2"><a xlink:href="a00092.html#ga8c8cbd9a7580636a7e947dbf5fabe53c" target="_top" xlink:title="Get the value of a user register.">
<polygon fill="white" stroke="black" points="180,-0.5 180,-19.5 392,-19.5 392,-0.5 180,-0.5"/>
<text text-anchor="middle" x="286" y="-7.5" font-family="Helvetica,sans-Serif" font-size="10.00">CAEN_FELib_GetUserRegister</text>
</a>
</g>
</g>
<!-- Node1&#45;&gt;Node2 -->
<g id="edge1" class="edge">
<title>Node1&#45;&gt;Node2</title>
<path fill="none" stroke="midnightblue" d="M144.18,-10C152.4,-10 160.92,-10 169.53,-10"/>
<polygon fill="midnightblue" stroke="midnightblue" points="169.67,-13.5 179.67,-10 169.67,-6.5 169.67,-13.5"/>
</g>
</g>
</svg>
