<?xml version="1.0" encoding="UTF-8" standalone="no"?>
<!DOCTYPE svg PUBLIC "-//W3C//DTD SVG 1.1//EN"
 "http://www.w3.org/Graphics/SVG/1.1/DTD/svg11.dtd">
<!-- Generated by graphviz version 2.49.3 (20211027.1534)
 -->
<!-- Title: get_parent_node Pages: 1 -->
<svg width="272pt" height="46pt"
 viewBox="0.00 0.00 272.00 46.00" xmlns="http://www.w3.org/2000/svg" xmlns:xlink="http://www.w3.org/1999/xlink">
<g id="graph0" class="graph" transform="scale(1 1) rotate(0) translate(4 42)">
<title>get_parent_node</title>
<polygon fill="white" stroke="transparent" points="-4,4 -4,-42 268,-42 268,4 -4,4"/>
<!-- Node1 -->
<g id="node1" class="node">
<title>Node1</title>
<g id="a_node1"><a xlink:title="Wrapper to CAEN_FELib_GetParentHandle()">
<polygon fill="#bfbfbf" stroke="black" points="135,-0.5 135,-19.5 264,-19.5 264,-0.5 135,-0.5"/>
<text text-anchor="middle" x="199.5" y="-7.5" font-family="Helvetica,sans-Serif" font-size="10.00">get_parent_node</text>
</a>
</g>
</g>
<!-- Node1&#45;&gt;Node1 -->
<g id="edge1" class="edge">
<title>Node1&#45;&gt;Node1</title>
<path fill="none" stroke="midnightblue" d="M227.5,-28.65C226.33,-33.94 217,-38 199.5,-38 172.84,-38 165.13,-28.57 176.38,-19.76"/>
<polygon fill="midnightblue" stroke="midnightblue" points="230.5,-26.84 222.62,-19.76 224.36,-30.21 230.5,-26.84"/>
</g>
<!-- Node2 -->
<g id="node2" class="node">
<title>Node2</title>
<g id="a_node2"><a xlink:href="a00118.html#a6d10ab1e9b6a00bb00122421cd922b7c" target="_top" xlink:title="Parent node.">
<polygon fill="white" stroke="black" points="0,-0.5 0,-19.5 99,-19.5 99,-0.5 0,-0.5"/>
<text text-anchor="middle" x="49.5" y="-7.5" font-family="Helvetica,sans-Serif" font-size="10.00">parent_node</text>
</a>
</g>
</g>
<!-- Node1&#45;&gt;Node2 -->
<g id="edge2" class="edge">
<title>Node1&#45;&gt;Node2</title>
<path fill="none" stroke="midnightblue" d="M124.77,-10C116.13,-10 107.49,-10 99.32,-10"/>
<polygon fill="midnightblue" stroke="midnightblue" points="124.88,-13.5 134.88,-10 124.88,-6.5 124.88,-13.5"/>
</g>
<!-- Node2&#45;&gt;Node2 -->
<g id="edge3" class="edge">
<title>Node2&#45;&gt;Node2</title>
<path fill="none" stroke="midnightblue" d="M77.5,-28.65C76.33,-33.94 67,-38 49.5,-38 22.84,-38 15.13,-28.57 26.38,-19.76"/>
<polygon fill="midnightblue" stroke="midnightblue" points="80.5,-26.84 72.62,-19.76 74.36,-30.21 80.5,-26.84"/>
</g>
</g>
</svg>
