<?xml version="1.0" encoding="UTF-8" standalone="no"?>
<!DOCTYPE svg PUBLIC "-//W3C//DTD SVG 1.1//EN"
 "http://www.w3.org/Graphics/SVG/1.1/DTD/svg11.dtd">
<!-- Generated by graphviz version 2.49.3 (20211027.1534)
 -->
<!-- Title: get_child_nodes Pages: 1 -->
<svg width="362pt" height="46pt"
 viewBox="0.00 0.00 362.00 46.00" xmlns="http://www.w3.org/2000/svg" xmlns:xlink="http://www.w3.org/1999/xlink">
<g id="graph0" class="graph" transform="scale(1 1) rotate(0) translate(4 42)">
<title>get_child_nodes</title>
<polygon fill="white" stroke="transparent" points="-4,4 -4,-42 358,-42 358,4 -4,4"/>
<!-- Node1 -->
<g id="node1" class="node">
<title>Node1</title>
<g id="a_node1"><a xlink:title="Wrapper to CAEN_FELib_GetChildHandles()">
<polygon fill="#bfbfbf" stroke="black" points="225,-0.5 225,-19.5 354,-19.5 354,-0.5 225,-0.5"/>
<text text-anchor="middle" x="289.5" y="-7.5" font-family="Helvetica,sans-Serif" font-size="10.00">get_child_nodes</text>
</a>
</g>
</g>
<!-- Node1&#45;&gt;Node1 -->
<g id="edge4" class="edge">
<title>Node1&#45;&gt;Node1</title>
<path fill="none" stroke="midnightblue" d="M317.5,-28.65C316.33,-33.94 307,-38 289.5,-38 262.84,-38 255.13,-28.57 266.38,-19.76"/>
<polygon fill="midnightblue" stroke="midnightblue" points="320.5,-26.84 312.62,-19.76 314.36,-30.21 320.5,-26.84"/>
</g>
<!-- Node2 -->
<g id="node2" class="node">
<title>Node2</title>
<g id="a_node2"><a xlink:href="a00118.html#a97bc987c78a57409e1972473bdc0befb" target="_top" xlink:title="List of child nodes.">
<polygon fill="white" stroke="black" points="90,-0.5 90,-19.5 189,-19.5 189,-0.5 90,-0.5"/>
<text text-anchor="middle" x="139.5" y="-7.5" font-family="Helvetica,sans-Serif" font-size="10.00">child_nodes</text>
</a>
</g>
</g>
<!-- Node1&#45;&gt;Node2 -->
<g id="edge1" class="edge">
<title>Node1&#45;&gt;Node2</title>
<path fill="none" stroke="midnightblue" d="M214.77,-10C206.13,-10 197.49,-10 189.32,-10"/>
<polygon fill="midnightblue" stroke="midnightblue" points="214.88,-13.5 224.88,-10 214.88,-6.5 214.88,-13.5"/>
</g>
<!-- Node2&#45;&gt;Node2 -->
<g id="edge2" class="edge">
<title>Node2&#45;&gt;Node2</title>
<path fill="none" stroke="midnightblue" d="M160.24,-29.4C158.85,-34.31 151.94,-38 139.5,-38 119.59,-38 113.84,-28.57 122.24,-19.76"/>
<polygon fill="midnightblue" stroke="midnightblue" points="163.45,-27.98 156.76,-19.76 156.86,-30.35 163.45,-27.98"/>
</g>
<!-- Node3 -->
<g id="node3" class="node">
<title>Node3</title>
<g id="a_node3"><a xlink:href="a00118.html#a44c1c6b558a3bb1e5f628f5999b0ba46" target="_top" xlink:title=" ">
<polygon fill="white" stroke="black" points="0,-0.5 0,-19.5 54,-19.5 54,-0.5 0,-0.5"/>
<text text-anchor="middle" x="27" y="-7.5" font-family="Helvetica,sans-Serif" font-size="10.00">value</text>
</a>
</g>
</g>
<!-- Node2&#45;&gt;Node3 -->
<g id="edge3" class="edge">
<title>Node2&#45;&gt;Node3</title>
<path fill="none" stroke="midnightblue" d="M79.61,-10C70.67,-10 61.85,-10 54.11,-10"/>
<polygon fill="midnightblue" stroke="midnightblue" points="79.71,-13.5 89.71,-10 79.71,-6.5 79.71,-13.5"/>
</g>
</g>
</svg>
