<?xml version="1.0" encoding="UTF-8" standalone="no"?>
<!DOCTYPE svg PUBLIC "-//W3C//DTD SVG 1.1//EN"
 "http://www.w3.org/Graphics/SVG/1.1/DTD/svg11.dtd">
<!-- Generated by graphviz version 2.49.3 (20211027.1534)
 -->
<!-- Title: get_lib_info Pages: 1 -->
<svg width="198pt" height="46pt"
 viewBox="0.00 0.00 198.00 46.00" xmlns="http://www.w3.org/2000/svg" xmlns:xlink="http://www.w3.org/1999/xlink">
<g id="graph0" class="graph" transform="scale(1 1) rotate(0) translate(4 42)">
<title>get_lib_info</title>
<polygon fill="white" stroke="transparent" points="-4,4 -4,-42 194,-42 194,4 -4,4"/>
<!-- Node1 -->
<g id="node1" class="node">
<title>Node1</title>
<g id="a_node1"><a xlink:title="Wrapper to CAEN_FELib_GetLibInfo()">
<polygon fill="#bfbfbf" stroke="black" points="83,-0.5 83,-19.5 190,-19.5 190,-0.5 83,-0.5"/>
<text text-anchor="middle" x="136.5" y="-7.5" font-family="Helvetica,sans-Serif" font-size="10.00">get_lib_info</text>
</a>
</g>
</g>
<!-- Node1&#45;&gt;Node1 -->
<g id="edge1" class="edge">
<title>Node1&#45;&gt;Node1</title>
<path fill="none" stroke="midnightblue" d="M157.24,-29.4C155.85,-34.31 148.94,-38 136.5,-38 116.59,-38 110.84,-28.57 119.24,-19.76"/>
<polygon fill="midnightblue" stroke="midnightblue" points="160.45,-27.98 153.76,-19.76 153.86,-30.35 160.45,-27.98"/>
</g>
<!-- Node2 -->
<g id="node2" class="node">
<title>Node2</title>
<g id="a_node2"><a xlink:href="a00130.html#a22e9bd4746ccfb2f993ae33be877c7ad" target="_top" xlink:title="Get library info.">
<polygon fill="white" stroke="black" points="0,-0.5 0,-19.5 47,-19.5 47,-0.5 0,-0.5"/>
<text text-anchor="middle" x="23.5" y="-7.5" font-family="Helvetica,sans-Serif" font-size="10.00">info</text>
</a>
</g>
</g>
<!-- Node1&#45;&gt;Node2 -->
<g id="edge2" class="edge">
<title>Node1&#45;&gt;Node2</title>
<path fill="none" stroke="midnightblue" d="M72.64,-10C63.58,-10 54.78,-10 47.25,-10"/>
<polygon fill="midnightblue" stroke="midnightblue" points="72.93,-13.5 82.93,-10 72.93,-6.5 72.93,-13.5"/>
</g>
<!-- Node2&#45;&gt;Node2 -->
<g id="edge3" class="edge">
<title>Node2&#45;&gt;Node2</title>
<path fill="none" stroke="midnightblue" d="M44.24,-29.4C42.85,-34.31 35.94,-38 23.5,-38 3.59,-38 -2.16,-28.57 6.24,-19.76"/>
<polygon fill="midnightblue" stroke="midnightblue" points="47.45,-27.98 40.76,-19.76 40.86,-30.35 47.45,-27.98"/>
</g>
</g>
</svg>
