<?xml version="1.0" encoding="UTF-8" standalone="no"?>
<!DOCTYPE svg PUBLIC "-//W3C//DTD SVG 1.1//EN"
 "http://www.w3.org/Graphics/SVG/1.1/DTD/svg11.dtd">
<!-- Generated by graphviz version 2.49.3 (20211027.1534)
 -->
<!-- Title: close Pages: 1 -->
<svg width="152pt" height="46pt"
 viewBox="0.00 0.00 152.00 46.00" xmlns="http://www.w3.org/2000/svg" xmlns:xlink="http://www.w3.org/1999/xlink">
<g id="graph0" class="graph" transform="scale(1 1) rotate(0) translate(4 42)">
<title>close</title>
<polygon fill="white" stroke="transparent" points="-4,4 -4,-42 148,-42 148,4 -4,4"/>
<!-- Node1 -->
<g id="node1" class="node">
<title>Node1</title>
<g id="a_node1"><a xlink:title="Wrapper to CAEN_FELib_Close()">
<polygon fill="#bfbfbf" stroke="black" points="90,-0.5 90,-19.5 144,-19.5 144,-0.5 90,-0.5"/>
<text text-anchor="middle" x="117" y="-7.5" font-family="Helvetica,sans-Serif" font-size="10.00">close</text>
</a>
</g>
</g>
<!-- Node1&#45;&gt;Node1 -->
<g id="edge1" class="edge">
<title>Node1&#45;&gt;Node1</title>
<path fill="none" stroke="midnightblue" d="M133.67,-29.4C132.55,-34.31 127,-38 117,-38 101,-38 96.38,-28.57 103.13,-19.76"/>
<polygon fill="midnightblue" stroke="midnightblue" points="137.02,-28.39 130.87,-19.76 130.29,-30.34 137.02,-28.39"/>
</g>
<!-- Node2 -->
<g id="node2" class="node">
<title>Node2</title>
<g id="a_node2"><a xlink:href="a00118.html#a44c1c6b558a3bb1e5f628f5999b0ba46" target="_top" xlink:title=" ">
<polygon fill="white" stroke="black" points="0,-0.5 0,-19.5 54,-19.5 54,-0.5 0,-0.5"/>
<text text-anchor="middle" x="27" y="-7.5" font-family="Helvetica,sans-Serif" font-size="10.00">value</text>
</a>
</g>
</g>
<!-- Node1&#45;&gt;Node2 -->
<g id="edge2" class="edge">
<title>Node1&#45;&gt;Node2</title>
<path fill="none" stroke="midnightblue" d="M79.48,-10C70.96,-10 62.05,-10 54.08,-10"/>
<polygon fill="midnightblue" stroke="midnightblue" points="79.6,-13.5 89.6,-10 79.6,-6.5 79.6,-13.5"/>
</g>
</g>
</svg>
