<?xml version="1.0" encoding="UTF-8" standalone="no"?>
<!DOCTYPE svg PUBLIC "-//W3C//DTD SVG 1.1//EN"
 "http://www.w3.org/Graphics/SVG/1.1/DTD/svg11.dtd">
<!-- Generated by graphviz version 2.49.3 (20211027.1534)
 -->
<!-- Title: send_command Pages: 1 -->
<svg width="333pt" height="46pt"
 viewBox="0.00 0.00 333.00 46.00" xmlns="http://www.w3.org/2000/svg" xmlns:xlink="http://www.w3.org/1999/xlink">
<g id="graph0" class="graph" transform="scale(1 1) rotate(0) translate(4 42)">
<title>send_command</title>
<polygon fill="white" stroke="transparent" points="-4,4 -4,-42 329,-42 329,4 -4,4"/>
<!-- Node1 -->
<g id="node1" class="node">
<title>Node1</title>
<g id="a_node1"><a xlink:title="Wrapper to CAEN_FELib_SendCommand()">
<polygon fill="#bfbfbf" stroke="black" points="0,-0.5 0,-19.5 107,-19.5 107,-0.5 0,-0.5"/>
<text text-anchor="middle" x="53.5" y="-7.5" font-family="Helvetica,sans-Serif" font-size="10.00">send_command</text>
</a>
</g>
</g>
<!-- Node1&#45;&gt;Node1 -->
<g id="edge2" class="edge">
<title>Node1&#45;&gt;Node1</title>
<path fill="none" stroke="midnightblue" d="M25.76,-19.76C12.26,-28.57 21.51,-38 53.5,-38 75.49,-38 86.74,-33.54 87.23,-27.89"/>
<polygon fill="midnightblue" stroke="midnightblue" points="89.99,-25.73 81.24,-19.76 84.35,-29.88 89.99,-25.73"/>
</g>
<!-- Node2 -->
<g id="node2" class="node">
<title>Node2</title>
<g id="a_node2"><a xlink:href="a00092.html#ga21ec1b970adad5267b722e50c058c8c5" target="_top" xlink:title="Send a command specified by a node.">
<polygon fill="white" stroke="black" points="143,-0.5 143,-19.5 325,-19.5 325,-0.5 143,-0.5"/>
<text text-anchor="middle" x="234" y="-7.5" font-family="Helvetica,sans-Serif" font-size="10.00">CAEN_FELib_SendCommand</text>
</a>
</g>
</g>
<!-- Node1&#45;&gt;Node2 -->
<g id="edge1" class="edge">
<title>Node1&#45;&gt;Node2</title>
<path fill="none" stroke="midnightblue" d="M107.09,-10C115.31,-10 124.03,-10 132.9,-10"/>
<polygon fill="midnightblue" stroke="midnightblue" points="132.95,-13.5 142.95,-10 132.95,-6.5 132.95,-13.5"/>
</g>
</g>
</svg>
