<?xml version="1.0" encoding="UTF-8" standalone="no"?>
<!DOCTYPE svg PUBLIC "-//W3C//DTD SVG 1.1//EN"
 "http://www.w3.org/Graphics/SVG/1.1/DTD/svg11.dtd">
<!-- Generated by graphviz version 2.49.3 (20211027.1534)
 -->
<!-- Title: close Pages: 1 -->
<svg width="235pt" height="46pt"
 viewBox="0.00 0.00 235.00 46.00" xmlns="http://www.w3.org/2000/svg" xmlns:xlink="http://www.w3.org/1999/xlink">
<g id="graph0" class="graph" transform="scale(1 1) rotate(0) translate(4 42)">
<title>close</title>
<polygon fill="white" stroke="transparent" points="-4,4 -4,-42 231,-42 231,4 -4,4"/>
<!-- Node1 -->
<g id="node1" class="node">
<title>Node1</title>
<g id="a_node1"><a xlink:title="Wrapper to CAEN_FELib_Close()">
<polygon fill="#bfbfbf" stroke="black" points="0,-0.5 0,-19.5 54,-19.5 54,-0.5 0,-0.5"/>
<text text-anchor="middle" x="27" y="-7.5" font-family="Helvetica,sans-Serif" font-size="10.00">close</text>
</a>
</g>
</g>
<!-- Node1&#45;&gt;Node1 -->
<g id="edge2" class="edge">
<title>Node1&#45;&gt;Node1</title>
<path fill="none" stroke="midnightblue" d="M6.96,-19.76C-2.78,-28.57 3.89,-38 27,-38 41.8,-38 49.86,-34.13 51.18,-29.03"/>
<polygon fill="midnightblue" stroke="midnightblue" points="54.31,-27.46 47.04,-19.76 47.92,-30.31 54.31,-27.46"/>
</g>
<!-- Node2 -->
<g id="node2" class="node">
<title>Node2</title>
<g id="a_node2"><a xlink:href="a00092.html#ga920585fb5cbd9faf8c83e80be736f7c6" target="_top" xlink:title="Close the connection with device.">
<polygon fill="white" stroke="black" points="90,-0.5 90,-19.5 227,-19.5 227,-0.5 90,-0.5"/>
<text text-anchor="middle" x="158.5" y="-7.5" font-family="Helvetica,sans-Serif" font-size="10.00">CAEN_FELib_Close</text>
</a>
</g>
</g>
<!-- Node1&#45;&gt;Node2 -->
<g id="edge1" class="edge">
<title>Node1&#45;&gt;Node2</title>
<path fill="none" stroke="midnightblue" d="M54.21,-10C61.86,-10 70.64,-10 79.78,-10"/>
<polygon fill="midnightblue" stroke="midnightblue" points="79.81,-13.5 89.81,-10 79.81,-6.5 79.81,-13.5"/>
</g>
</g>
</svg>
