<?xml version="1.0" encoding="UTF-8" standalone="no"?>
<!DOCTYPE svg PUBLIC "-//W3C//DTD SVG 1.1//EN"
 "http://www.w3.org/Graphics/SVG/1.1/DTD/svg11.dtd">
<!-- Generated by graphviz version 2.49.3 (20211027.1534)
 -->
<!-- Title: path Pages: 1 -->
<svg width="356pt" height="46pt"
 viewBox="0.00 0.00 356.00 46.00" xmlns="http://www.w3.org/2000/svg" xmlns:xlink="http://www.w3.org/1999/xlink">
<g id="graph0" class="graph" transform="scale(1 1) rotate(0) translate(4 42)">
<title>path</title>
<polygon fill="white" stroke="transparent" points="-4,4 -4,-42 352,-42 352,4 -4,4"/>
<!-- Node1 -->
<g id="node1" class="node">
<title>Node1</title>
<g id="a_node1"><a xlink:title="Node absolute path.">
<polygon fill="#bfbfbf" stroke="black" points="0,-0.5 0,-19.5 47,-19.5 47,-0.5 0,-0.5"/>
<text text-anchor="middle" x="23.5" y="-7.5" font-family="Helvetica,sans-Serif" font-size="10.00">path</text>
</a>
</g>
</g>
<!-- Node1&#45;&gt;Node1 -->
<g id="edge4" class="edge">
<title>Node1&#45;&gt;Node1</title>
<path fill="none" stroke="midnightblue" d="M8.4,-19.76C1.05,-28.57 6.08,-38 23.5,-38 34.39,-38 40.44,-34.31 41.65,-29.4"/>
<polygon fill="midnightblue" stroke="midnightblue" points="44.95,-28.24 38.6,-19.76 38.28,-30.35 44.95,-28.24"/>
</g>
<!-- Node2 -->
<g id="node2" class="node">
<title>Node2</title>
<g id="a_node2"><a xlink:href="a00118.html#aa71a67fa5e66158c8d03b25aa9dec9e6" target="_top" xlink:title="Wrapper to CAEN_FELib_GetPath()">
<polygon fill="white" stroke="black" points="83,-0.5 83,-19.5 160,-19.5 160,-0.5 83,-0.5"/>
<text text-anchor="middle" x="121.5" y="-7.5" font-family="Helvetica,sans-Serif" font-size="10.00">get_path</text>
</a>
</g>
</g>
<!-- Node1&#45;&gt;Node2 -->
<g id="edge1" class="edge">
<title>Node1&#45;&gt;Node2</title>
<path fill="none" stroke="midnightblue" d="M47.25,-10C54.99,-10 63.94,-10 72.88,-10"/>
<polygon fill="midnightblue" stroke="midnightblue" points="72.9,-13.5 82.9,-10 72.9,-6.5 72.9,-13.5"/>
</g>
<!-- Node2&#45;&gt;Node2 -->
<g id="edge3" class="edge">
<title>Node2&#45;&gt;Node2</title>
<path fill="none" stroke="midnightblue" d="M106.4,-19.76C99.05,-28.57 104.08,-38 121.5,-38 132.39,-38 138.44,-34.31 139.65,-29.4"/>
<polygon fill="midnightblue" stroke="midnightblue" points="142.95,-28.24 136.6,-19.76 136.28,-30.35 142.95,-28.24"/>
</g>
<!-- Node3 -->
<g id="node3" class="node">
<title>Node3</title>
<g id="a_node3"><a xlink:href="a00092.html#gacf9d43143f79079c83ff5c37c27cd1a3" target="_top" xlink:title="Get the absolute path of a node.">
<polygon fill="white" stroke="black" points="196,-0.5 196,-19.5 348,-19.5 348,-0.5 196,-0.5"/>
<text text-anchor="middle" x="272" y="-7.5" font-family="Helvetica,sans-Serif" font-size="10.00">CAEN_FELib_GetPath</text>
</a>
</g>
</g>
<!-- Node2&#45;&gt;Node3 -->
<g id="edge2" class="edge">
<title>Node2&#45;&gt;Node3</title>
<path fill="none" stroke="midnightblue" d="M160.36,-10C168.29,-10 176.95,-10 185.83,-10"/>
<polygon fill="midnightblue" stroke="midnightblue" points="185.91,-13.5 195.91,-10 185.91,-6.5 185.91,-13.5"/>
</g>
</g>
</svg>
