<?xml version="1.0" encoding="UTF-8" standalone="no"?>
<!DOCTYPE svg PUBLIC "-//W3C//DTD SVG 1.1//EN"
 "http://www.w3.org/Graphics/SVG/1.1/DTD/svg11.dtd">
<!-- Generated by graphviz version 12.2.1 (20241206.2353)
 -->
<!-- Title: Lib Pages: 1 -->
<svg width="87pt" height="220pt"
 viewBox="0.00 0.00 86.75 219.50" xmlns="http://www.w3.org/2000/svg" xmlns:xlink="http://www.w3.org/1999/xlink">
<g id="graph0" class="graph" transform="scale(1 1) rotate(0) translate(4 215.5)">
<title>Lib</title>
<!-- Node1 -->
<g id="Node000001" class="node">
<title>Node1</title>
<g id="a_Node000001"><a xlink:title="This class loads the shared library and exposes its functions on its public attributes using ctypes.">
<polygon fill="#999999" stroke="none" points="78.75,-121.25 0,-121.25 0,0 78.75,0 78.75,-121.25"/>
<text text-anchor="start" x="32.62" y="-107.75" font-family="Helvetica,sans-Serif" font-size="10.00">Lib</text>
<text text-anchor="start" x="38.25" y="-91" font-family="Helvetica,sans-Serif" font-size="10.00"> </text>
<text text-anchor="start" x="4" y="-74.25" font-family="Helvetica,sans-Serif" font-size="10.00">+</text>
<text text-anchor="start" x="14" y="-74.25" font-family="Helvetica,sans-Serif" font-size="10.00">name()</text>
<text text-anchor="start" x="4" y="-57.5" font-family="Helvetica,sans-Serif" font-size="10.00">+</text>
<text text-anchor="start" x="14" y="-57.5" font-family="Helvetica,sans-Serif" font-size="10.00">path()</text>
<text text-anchor="start" x="4" y="-40.75" font-family="Helvetica,sans-Serif" font-size="10.00">+</text>
<text text-anchor="start" x="14" y="-40.75" font-family="Helvetica,sans-Serif" font-size="10.00">sw_release()</text>
<text text-anchor="start" x="4" y="-24" font-family="Helvetica,sans-Serif" font-size="10.00">+</text>
<text text-anchor="start" x="14" y="-24" font-family="Helvetica,sans-Serif" font-size="10.00">ver_at_least()</text>
<text text-anchor="start" x="4" y="-7.25" font-family="Helvetica,sans-Serif" font-size="10.00">+</text>
<text text-anchor="start" x="14" y="-7.25" font-family="Helvetica,sans-Serif" font-size="10.00">get()</text>
<polygon fill="#666666" stroke="#666666" points="0,-102.5 0,-102.5 78.75,-102.5 78.75,-102.5 0,-102.5"/>
<polygon fill="#666666" stroke="#666666" points="0,-85.75 0,-85.75 78.75,-85.75 78.75,-85.75 0,-85.75"/>
<polygon fill="none" stroke="#666666" points="0,0 0,-121.25 78.75,-121.25 78.75,0 0,0"/>
</a>
</g>
</g>
<!-- Node2 -->
<g id="Node000002" class="node">
<title>Node2</title>
<g id="a_Node000002"><a xlink:title=" ">
<polygon fill="white" stroke="none" points="52.75,-211.5 26,-211.5 26,-157.25 52.75,-157.25 52.75,-211.5"/>
<text text-anchor="start" x="30" y="-198" font-family="Helvetica,sans-Serif" font-size="10.00">ABC</text>
<text text-anchor="start" x="38.25" y="-181.25" font-family="Helvetica,sans-Serif" font-size="10.00"> </text>
<text text-anchor="start" x="38.25" y="-164.5" font-family="Helvetica,sans-Serif" font-size="10.00"> </text>
<polygon fill="#666666" stroke="#666666" points="26,-192.75 26,-192.75 52.75,-192.75 52.75,-192.75 26,-192.75"/>
<polygon fill="#666666" stroke="#666666" points="26,-176 26,-176 52.75,-176 52.75,-176 26,-176"/>
<polygon fill="none" stroke="#666666" points="26,-157.25 26,-211.5 52.75,-211.5 52.75,-157.25 26,-157.25"/>
</a>
</g>
</g>
<!-- Node2&#45;&gt;Node1 -->
<g id="edge1_Node000001_Node000002" class="edge">
<title>Node2&#45;&gt;Node1</title>
<g id="a_edge1_Node000001_Node000002"><a xlink:title=" ">
<path fill="none" stroke="#63b8ff" d="M39.38,-145.92C39.38,-138.08 39.38,-129.64 39.38,-121.22"/>
<polygon fill="none" stroke="#63b8ff" points="35.88,-145.74 39.38,-155.74 42.88,-145.74 35.88,-145.74"/>
</a>
</g>
</g>
</g>
</svg>
