<?xml version="1.0" encoding="UTF-8" standalone="no"?>
<!DOCTYPE svg PUBLIC "-//W3C//DTD SVG 1.1//EN"
 "http://www.w3.org/Graphics/SVG/1.1/DTD/svg11.dtd">
<!-- Generated by graphviz version 2.49.3 (20211027.1534)
 -->
<!-- Title: get_value Pages: 1 -->
<svg width="182pt" height="46pt"
 viewBox="0.00 0.00 182.00 46.00" xmlns="http://www.w3.org/2000/svg" xmlns:xlink="http://www.w3.org/1999/xlink">
<g id="graph0" class="graph" transform="scale(1 1) rotate(0) translate(4 42)">
<title>get_value</title>
<polygon fill="white" stroke="transparent" points="-4,4 -4,-42 178,-42 178,4 -4,4"/>
<!-- Node1 -->
<g id="node1" class="node">
<title>Node1</title>
<g id="a_node1"><a xlink:title="Wrapper to CAEN_FELib_GetValue()">
<polygon fill="#bfbfbf" stroke="black" points="90,-0.5 90,-19.5 174,-19.5 174,-0.5 90,-0.5"/>
<text text-anchor="middle" x="132" y="-7.5" font-family="Helvetica,sans-Serif" font-size="10.00">get_value</text>
</a>
</g>
</g>
<!-- Node1&#45;&gt;Node1 -->
<g id="edge1" class="edge">
<title>Node1&#45;&gt;Node1</title>
<path fill="none" stroke="midnightblue" d="M151.26,-29.4C149.97,-34.31 143.55,-38 132,-38 113.52,-38 108.17,-28.57 115.97,-19.76"/>
<polygon fill="midnightblue" stroke="midnightblue" points="154.52,-28.13 148.03,-19.76 147.89,-30.35 154.52,-28.13"/>
</g>
<!-- Node2 -->
<g id="node2" class="node">
<title>Node2</title>
<g id="a_node2"><a xlink:href="a00118.html#ab641d2363302f9d39887ef556a621b7a" target="_top" xlink:title="Current value.">
<polygon fill="white" stroke="black" points="0,-0.5 0,-19.5 54,-19.5 54,-0.5 0,-0.5"/>
<text text-anchor="middle" x="27" y="-7.5" font-family="Helvetica,sans-Serif" font-size="10.00">value</text>
</a>
</g>
</g>
<!-- Node1&#45;&gt;Node2 -->
<g id="edge2" class="edge">
<title>Node1&#45;&gt;Node2</title>
<path fill="none" stroke="midnightblue" d="M79.93,-10C70.96,-10 61.97,-10 54.05,-10"/>
<polygon fill="midnightblue" stroke="midnightblue" points="80,-13.5 90,-10 80,-6.5 80,-13.5"/>
</g>
<!-- Node2&#45;&gt;Node2 -->
<g id="edge3" class="edge">
<title>Node2&#45;&gt;Node2</title>
<path fill="none" stroke="midnightblue" d="M46.26,-29.4C44.97,-34.31 38.55,-38 27,-38 8.52,-38 3.17,-28.57 10.97,-19.76"/>
<polygon fill="midnightblue" stroke="midnightblue" points="49.52,-28.13 43.03,-19.76 42.89,-30.35 49.52,-28.13"/>
</g>
</g>
</svg>
