<?xml version="1.0" encoding="UTF-8" standalone="no"?>
<!DOCTYPE svg PUBLIC "-//W3C//DTD SVG 1.1//EN"
 "http://www.w3.org/Graphics/SVG/1.1/DTD/svg11.dtd">
<!-- Generated by graphviz version 2.49.3 (20211027.1534)
 -->
<!-- Title: parent_node Pages: 1 -->
<svg width="978pt" height="122pt"
 viewBox="0.00 0.00 978.00 122.00" xmlns="http://www.w3.org/2000/svg" xmlns:xlink="http://www.w3.org/1999/xlink">
<g id="graph0" class="graph" transform="scale(1 1) rotate(0) translate(4 118)">
<title>parent_node</title>
<polygon fill="white" stroke="transparent" points="-4,4 -4,-118 974,-118 974,4 -4,4"/>
<!-- Node1 -->
<g id="node1" class="node">
<title>Node1</title>
<g id="a_node1"><a xlink:title="Parent node.">
<polygon fill="#bfbfbf" stroke="black" points="0,-56.5 0,-75.5 99,-75.5 99,-56.5 0,-56.5"/>
<text text-anchor="middle" x="49.5" y="-63.5" font-family="Helvetica,sans-Serif" font-size="10.00">parent_node</text>
</a>
</g>
</g>
<!-- Node1&#45;&gt;Node1 -->
<g id="edge10" class="edge">
<title>Node1&#45;&gt;Node1</title>
<path fill="none" stroke="midnightblue" d="M26.38,-75.76C15.13,-84.57 22.84,-94 49.5,-94 67,-94 76.33,-89.94 77.5,-84.65"/>
<polygon fill="midnightblue" stroke="midnightblue" points="80.5,-82.84 72.62,-75.76 74.36,-86.21 80.5,-82.84"/>
</g>
<!-- Node2 -->
<g id="node2" class="node">
<title>Node2</title>
<g id="a_node2"><a xlink:href="a00118.html#a1ff942b5fadf7fcc3cb91f8323b8497a" target="_top" xlink:title="Wrapper to CAEN_FELib_GetParentHandle()">
<polygon fill="white" stroke="black" points="135,-56.5 135,-75.5 264,-75.5 264,-56.5 135,-56.5"/>
<text text-anchor="middle" x="199.5" y="-63.5" font-family="Helvetica,sans-Serif" font-size="10.00">get_parent_node</text>
</a>
</g>
</g>
<!-- Node1&#45;&gt;Node2 -->
<g id="edge1" class="edge">
<title>Node1&#45;&gt;Node2</title>
<path fill="none" stroke="midnightblue" d="M99.37,-66C107.54,-66 116.17,-66 124.8,-66"/>
<polygon fill="midnightblue" stroke="midnightblue" points="124.9,-69.5 134.9,-66 124.9,-62.5 124.9,-69.5"/>
</g>
<!-- Node2&#45;&gt;Node2 -->
<g id="edge4" class="edge">
<title>Node2&#45;&gt;Node2</title>
<path fill="none" stroke="midnightblue" d="M176.38,-75.76C165.13,-84.57 172.84,-94 199.5,-94 217,-94 226.33,-89.94 227.5,-84.65"/>
<polygon fill="midnightblue" stroke="midnightblue" points="230.5,-82.84 222.62,-75.76 224.36,-86.21 230.5,-82.84"/>
</g>
<!-- Node3 -->
<g id="node3" class="node">
<title>Node3</title>
<g id="a_node3"><a xlink:href="a00118.html#" target="_top" xlink:title=" ">
<polygon fill="white" stroke="black" points="356.5,-94.5 356.5,-113.5 455.5,-113.5 455.5,-94.5 356.5,-94.5"/>
<text text-anchor="middle" x="406" y="-101.5" font-family="Helvetica,sans-Serif" font-size="10.00">__root_node</text>
</a>
</g>
</g>
<!-- Node2&#45;&gt;Node3 -->
<g id="edge2" class="edge">
<title>Node2&#45;&gt;Node3</title>
<path fill="none" stroke="midnightblue" d="M249.83,-75.52C265.83,-78.58 283.66,-81.96 300,-85 314.95,-87.78 331.1,-90.73 346.15,-93.45"/>
<polygon fill="midnightblue" stroke="midnightblue" points="345.9,-96.97 356.37,-95.3 347.15,-90.08 345.9,-96.97"/>
</g>
<!-- Node4 -->
<g id="node4" class="node">
<title>Node4</title>
<g id="a_node4"><a xlink:href="a00092.html#gac9459f6a283f1caf4c991057b66e40ef" target="_top" xlink:title="Get the parent handle of a node.">
<polygon fill="white" stroke="black" points="300,-56.5 300,-75.5 512,-75.5 512,-56.5 300,-56.5"/>
<text text-anchor="middle" x="406" y="-63.5" font-family="Helvetica,sans-Serif" font-size="10.00">CAEN_FELib_GetParentHandle</text>
</a>
</g>
</g>
<!-- Node2&#45;&gt;Node4 -->
<g id="edge3" class="edge">
<title>Node2&#45;&gt;Node4</title>
<path fill="none" stroke="midnightblue" d="M264.08,-66C272.26,-66 280.82,-66 289.51,-66"/>
<polygon fill="midnightblue" stroke="midnightblue" points="289.76,-69.5 299.76,-66 289.76,-62.5 289.76,-69.5"/>
</g>
<!-- Node5 -->
<g id="node5" class="node">
<title>Node5</title>
<g id="a_node5"><a xlink:href="a00118.html#ab640bd6bd3ecc06e6a89e62ac1961696" target="_top" xlink:title="Node type.">
<polygon fill="white" stroke="black" points="382.5,-0.5 382.5,-19.5 429.5,-19.5 429.5,-0.5 382.5,-0.5"/>
<text text-anchor="middle" x="406" y="-7.5" font-family="Helvetica,sans-Serif" font-size="10.00">type</text>
</a>
</g>
</g>
<!-- Node2&#45;&gt;Node5 -->
<g id="edge5" class="edge">
<title>Node2&#45;&gt;Node5</title>
<path fill="none" stroke="midnightblue" d="M235.65,-56.37C274.07,-45.85 335.1,-29.14 372.45,-18.91"/>
<polygon fill="midnightblue" stroke="midnightblue" points="373.6,-22.23 382.32,-16.21 371.75,-15.48 373.6,-22.23"/>
</g>
<!-- Node5&#45;&gt;Node5 -->
<g id="edge9" class="edge">
<title>Node5&#45;&gt;Node5</title>
<path fill="none" stroke="midnightblue" d="M382.46,-16.05C356.31,-25.68 364.16,-38 406,-38 441.63,-38 452.61,-29.06 438.94,-20.47"/>
<polygon fill="midnightblue" stroke="midnightblue" points="440.08,-17.13 429.54,-16.05 437.1,-23.47 440.08,-17.13"/>
</g>
<!-- Node6 -->
<g id="node6" class="node">
<title>Node6</title>
<g id="a_node6"><a xlink:href="a00118.html#a628025186cdf85cf7459c5b3972172ac" target="_top" xlink:title="Wrapper to CAEN_FELib_GetNodeProperties()">
<polygon fill="white" stroke="black" points="548,-0.5 548,-19.5 707,-19.5 707,-0.5 548,-0.5"/>
<text text-anchor="middle" x="627.5" y="-7.5" font-family="Helvetica,sans-Serif" font-size="10.00">get_node_properties</text>
</a>
</g>
</g>
<!-- Node5&#45;&gt;Node6 -->
<g id="edge6" class="edge">
<title>Node5&#45;&gt;Node6</title>
<path fill="none" stroke="midnightblue" d="M429.66,-10C455.16,-10 498.15,-10 537.46,-10"/>
<polygon fill="midnightblue" stroke="midnightblue" points="537.63,-13.5 547.63,-10 537.63,-6.5 537.63,-13.5"/>
</g>
<!-- Node6&#45;&gt;Node6 -->
<g id="edge8" class="edge">
<title>Node6&#45;&gt;Node6</title>
<path fill="none" stroke="midnightblue" d="M593.87,-19.61C576.97,-28.46 588.18,-38 627.5,-38 656.37,-38 670.09,-32.86 668.65,-26.62"/>
<polygon fill="midnightblue" stroke="midnightblue" points="670.83,-23.87 661.13,-19.61 666.06,-28.99 670.83,-23.87"/>
</g>
<!-- Node7 -->
<g id="node7" class="node">
<title>Node7</title>
<g id="a_node7"><a xlink:href="a00092.html#ga0c5b9e819cdb1f50c760866f0cf763bd" target="_top" xlink:title="Get the name and type of a node.">
<polygon fill="white" stroke="black" points="743,-0.5 743,-19.5 970,-19.5 970,-0.5 743,-0.5"/>
<text text-anchor="middle" x="856.5" y="-7.5" font-family="Helvetica,sans-Serif" font-size="10.00">CAEN_FELib_GetNodeProperties</text>
</a>
</g>
</g>
<!-- Node6&#45;&gt;Node7 -->
<g id="edge7" class="edge">
<title>Node6&#45;&gt;Node7</title>
<path fill="none" stroke="midnightblue" d="M707.26,-10C715.54,-10 724.1,-10 732.73,-10"/>
<polygon fill="midnightblue" stroke="midnightblue" points="732.88,-13.5 742.88,-10 732.88,-6.5 732.88,-13.5"/>
</g>
</g>
</svg>
