<?xml version="1.0" encoding="UTF-8" standalone="no"?>
<!DOCTYPE svg PUBLIC "-//W3C//DTD SVG 1.1//EN"
 "http://www.w3.org/Graphics/SVG/1.1/DTD/svg11.dtd">
<!-- Generated by graphviz version 2.49.3 (20211027.1534)
 -->
<!-- Title: has_data Pages: 1 -->
<svg width="273pt" height="46pt"
 viewBox="0.00 0.00 273.00 46.00" xmlns="http://www.w3.org/2000/svg" xmlns:xlink="http://www.w3.org/1999/xlink">
<g id="graph0" class="graph" transform="scale(1 1) rotate(0) translate(4 42)">
<title>has_data</title>
<polygon fill="white" stroke="transparent" points="-4,4 -4,-42 269,-42 269,4 -4,4"/>
<!-- Node1 -->
<g id="node1" class="node">
<title>Node1</title>
<g id="a_node1"><a xlink:title="Wrapper to CAEN_FELib_HasData()">
<polygon fill="#bfbfbf" stroke="black" points="0,-0.5 0,-19.5 77,-19.5 77,-0.5 0,-0.5"/>
<text text-anchor="middle" x="38.5" y="-7.5" font-family="Helvetica,sans-Serif" font-size="10.00">has_data</text>
</a>
</g>
</g>
<!-- Node1&#45;&gt;Node1 -->
<g id="edge2" class="edge">
<title>Node1&#45;&gt;Node1</title>
<path fill="none" stroke="midnightblue" d="M15.38,-19.76C4.13,-28.57 11.84,-38 38.5,-38 56,-38 65.33,-33.94 66.5,-28.65"/>
<polygon fill="midnightblue" stroke="midnightblue" points="69.5,-26.84 61.62,-19.76 63.36,-30.21 69.5,-26.84"/>
</g>
<!-- Node2 -->
<g id="node2" class="node">
<title>Node2</title>
<g id="a_node2"><a xlink:href="a00092.html#ga1b02c21c94c3206194ff5741e85eb6ef" target="_top" xlink:title="Check if an endpoint node has data to be read with a subsequent call to CAEN_FELib_ReadData().">
<polygon fill="white" stroke="black" points="113,-0.5 113,-19.5 265,-19.5 265,-0.5 113,-0.5"/>
<text text-anchor="middle" x="189" y="-7.5" font-family="Helvetica,sans-Serif" font-size="10.00">CAEN_FELib_HasData</text>
</a>
</g>
</g>
<!-- Node1&#45;&gt;Node2 -->
<g id="edge1" class="edge">
<title>Node1&#45;&gt;Node2</title>
<path fill="none" stroke="midnightblue" d="M77.36,-10C85.29,-10 93.95,-10 102.83,-10"/>
<polygon fill="midnightblue" stroke="midnightblue" points="102.91,-13.5 112.91,-10 102.91,-6.5 102.91,-13.5"/>
</g>
</g>
</svg>
