<?xml version="1.0" encoding="UTF-8" standalone="no"?>
<!DOCTYPE svg PUBLIC "-//W3C//DTD SVG 1.1//EN"
 "http://www.w3.org/Graphics/SVG/1.1/DTD/svg11.dtd">
<!-- Generated by graphviz version 2.49.3 (20211027.1534)
 -->
<!-- Title: set_read_data_format Pages: 1 -->
<svg width="633pt" height="84pt"
 viewBox="0.00 0.00 633.00 84.00" xmlns="http://www.w3.org/2000/svg" xmlns:xlink="http://www.w3.org/1999/xlink">
<g id="graph0" class="graph" transform="scale(1 1) rotate(0) translate(4 80)">
<title>set_read_data_format</title>
<polygon fill="white" stroke="transparent" points="-4,4 -4,-80 629,-80 629,4 -4,4"/>
<!-- Node1 -->
<g id="node1" class="node">
<title>Node1</title>
<g id="a_node1"><a xlink:title="Wrapper to CAEN_FELib_SetReadDataFormat()">
<polygon fill="#bfbfbf" stroke="black" points="0,-0.5 0,-19.5 167,-19.5 167,-0.5 0,-0.5"/>
<text text-anchor="middle" x="83.5" y="-7.5" font-family="Helvetica,sans-Serif" font-size="10.00">set_read_data_format</text>
</a>
</g>
</g>
<!-- Node1&#45;&gt;Node1 -->
<g id="edge6" class="edge">
<title>Node1&#45;&gt;Node1</title>
<path fill="none" stroke="midnightblue" d="M48.03,-19.61C30.22,-28.46 42.04,-38 83.5,-38 114.6,-38 129.02,-32.63 126.77,-26.22"/>
<polygon fill="midnightblue" stroke="midnightblue" points="128.86,-23.4 118.97,-19.61 124.34,-28.74 128.86,-23.4"/>
</g>
<!-- Node2 -->
<g id="node2" class="node">
<title>Node2</title>
<g id="a_node2"><a xlink:href="a00092.html#gaf8d7562389a677f080d566da093cf062" target="_top" xlink:title="Set the format for the ReadData function to a endpoint node.">
<polygon fill="white" stroke="black" points="203,-56.5 203,-75.5 430,-75.5 430,-56.5 203,-56.5"/>
<text text-anchor="middle" x="316.5" y="-63.5" font-family="Helvetica,sans-Serif" font-size="10.00">CAEN_FELib_SetReadDataFormat</text>
</a>
</g>
</g>
<!-- Node1&#45;&gt;Node2 -->
<g id="edge1" class="edge">
<title>Node1&#45;&gt;Node2</title>
<path fill="none" stroke="midnightblue" d="M111.51,-19.58C135.34,-27.76 171.14,-39.37 203,-47 214.93,-49.86 227.68,-52.44 240.14,-54.72"/>
<polygon fill="midnightblue" stroke="midnightblue" points="239.6,-58.18 250.06,-56.49 240.82,-51.29 239.6,-58.18"/>
</g>
<!-- Node3 -->
<g id="node3" class="node">
<title>Node3</title>
<g id="a_node3"><a xlink:href="a00118.html#aca96c568506870ce155c05e5a9b01b11" target="_top" xlink:title="Wrapper to CAEN_FELib_ReadData()">
<polygon fill="white" stroke="black" points="274.5,-0.5 274.5,-19.5 358.5,-19.5 358.5,-0.5 274.5,-0.5"/>
<text text-anchor="middle" x="316.5" y="-7.5" font-family="Helvetica,sans-Serif" font-size="10.00">read_data</text>
</a>
</g>
</g>
<!-- Node1&#45;&gt;Node3 -->
<g id="edge2" class="edge">
<title>Node1&#45;&gt;Node3</title>
<path fill="none" stroke="midnightblue" d="M167.24,-3.5C199.64,-3 235.79,-3.26 264.28,-4.28"/>
<polygon fill="midnightblue" stroke="midnightblue" points="264.28,-7.78 274.41,-4.69 264.56,-0.79 264.28,-7.78"/>
</g>
<!-- Node3&#45;&gt;Node1 -->
<g id="edge5" class="edge">
<title>Node3&#45;&gt;Node1</title>
<path fill="none" stroke="midnightblue" d="M274.41,-15.31C247.51,-16.54 211.23,-16.98 177.59,-16.64"/>
<polygon fill="midnightblue" stroke="midnightblue" points="177.29,-13.13 167.24,-16.5 177.2,-20.13 177.29,-13.13"/>
</g>
<!-- Node3&#45;&gt;Node3 -->
<g id="edge4" class="edge">
<title>Node3&#45;&gt;Node3</title>
<path fill="none" stroke="midnightblue" d="M281.64,-19.61C264.13,-28.46 275.75,-38 316.5,-38 347.06,-38 361.24,-32.63 359.03,-26.22"/>
<polygon fill="midnightblue" stroke="midnightblue" points="361.22,-23.49 351.36,-19.61 356.65,-28.79 361.22,-23.49"/>
</g>
<!-- Node4 -->
<g id="node4" class="node">
<title>Node4</title>
<g id="a_node4"><a xlink:href="a00092.html#ga3513d9316bfabd58fd9680f76c07985c" target="_top" xlink:title="Read the data provided by an endpoint node.">
<polygon fill="white" stroke="black" points="466,-0.5 466,-19.5 625,-19.5 625,-0.5 466,-0.5"/>
<text text-anchor="middle" x="545.5" y="-7.5" font-family="Helvetica,sans-Serif" font-size="10.00">CAEN_FELib_ReadData</text>
</a>
</g>
</g>
<!-- Node3&#45;&gt;Node4 -->
<g id="edge3" class="edge">
<title>Node3&#45;&gt;Node4</title>
<path fill="none" stroke="midnightblue" d="M358.61,-10C385.59,-10 421.93,-10 455.32,-10"/>
<polygon fill="midnightblue" stroke="midnightblue" points="455.58,-13.5 465.58,-10 455.58,-6.5 455.58,-13.5"/>
</g>
</g>
</svg>
