<?xml version="1.0" encoding="UTF-8" standalone="no"?>
<!DOCTYPE svg PUBLIC "-//W3C//DTD SVG 1.1//EN"
 "http://www.w3.org/Graphics/SVG/1.1/DTD/svg11.dtd">
<!-- Generated by graphviz version 2.49.3 (20211027.1534)
 -->
<!-- Title: get_lib_version Pages: 1 -->
<svg width="242pt" height="46pt"
 viewBox="0.00 0.00 242.00 46.00" xmlns="http://www.w3.org/2000/svg" xmlns:xlink="http://www.w3.org/1999/xlink">
<g id="graph0" class="graph" transform="scale(1 1) rotate(0) translate(4 42)">
<title>get_lib_version</title>
<polygon fill="white" stroke="transparent" points="-4,4 -4,-42 238,-42 238,4 -4,4"/>
<!-- Node1 -->
<g id="node1" class="node">
<title>Node1</title>
<g id="a_node1"><a xlink:title="Wrapper to CAEN_FELib_GetLibVersion()">
<polygon fill="#bfbfbf" stroke="black" points="105,-0.5 105,-19.5 234,-19.5 234,-0.5 105,-0.5"/>
<text text-anchor="middle" x="169.5" y="-7.5" font-family="Helvetica,sans-Serif" font-size="10.00">get_lib_version</text>
</a>
</g>
</g>
<!-- Node1&#45;&gt;Node1 -->
<g id="edge1" class="edge">
<title>Node1&#45;&gt;Node1</title>
<path fill="none" stroke="midnightblue" d="M194.43,-29.03C193.07,-34.13 184.76,-38 169.5,-38 145.68,-38 138.8,-28.57 148.85,-19.76"/>
<polygon fill="midnightblue" stroke="midnightblue" points="197.52,-27.37 190.15,-19.76 191.16,-30.3 197.52,-27.37"/>
</g>
<!-- Node2 -->
<g id="node2" class="node">
<title>Node2</title>
<g id="a_node2"><a xlink:href="a00130.html#a1e436b61f937ea687fa3897d286899cf" target="_top" xlink:title="Get library version.">
<polygon fill="white" stroke="black" points="0,-0.5 0,-19.5 69,-19.5 69,-0.5 0,-0.5"/>
<text text-anchor="middle" x="34.5" y="-7.5" font-family="Helvetica,sans-Serif" font-size="10.00">version</text>
</a>
</g>
</g>
<!-- Node1&#45;&gt;Node2 -->
<g id="edge2" class="edge">
<title>Node1&#45;&gt;Node2</title>
<path fill="none" stroke="midnightblue" d="M94.67,-10C85.8,-10 77.1,-10 69.23,-10"/>
<polygon fill="midnightblue" stroke="midnightblue" points="94.73,-13.5 104.73,-10 94.73,-6.5 94.73,-13.5"/>
</g>
<!-- Node2&#45;&gt;Node2 -->
<g id="edge3" class="edge">
<title>Node2&#45;&gt;Node2</title>
<path fill="none" stroke="midnightblue" d="M59.43,-29.03C58.07,-34.13 49.76,-38 34.5,-38 10.68,-38 3.8,-28.57 13.85,-19.76"/>
<polygon fill="midnightblue" stroke="midnightblue" points="62.52,-27.37 55.15,-19.76 56.16,-30.3 62.52,-27.37"/>
</g>
</g>
</svg>
