<?xml version="1.0" encoding="UTF-8" standalone="no"?>
<!DOCTYPE svg PUBLIC "-//W3C//DTD SVG 1.1//EN"
 "http://www.w3.org/Graphics/SVG/1.1/DTD/svg11.dtd">
<!-- Generated by graphviz version 2.49.3 (20211027.1534)
 -->
<!-- Title: get_device_tree Pages: 1 -->
<svg width="370pt" height="46pt"
 viewBox="0.00 0.00 370.00 46.00" xmlns="http://www.w3.org/2000/svg" xmlns:xlink="http://www.w3.org/1999/xlink">
<g id="graph0" class="graph" transform="scale(1 1) rotate(0) translate(4 42)">
<title>get_device_tree</title>
<polygon fill="white" stroke="transparent" points="-4,4 -4,-42 366,-42 366,4 -4,4"/>
<!-- Node1 -->
<g id="node1" class="node">
<title>Node1</title>
<g id="a_node1"><a xlink:title="Wrapper to CAEN_FELib_GetDeviceTree()">
<polygon fill="#bfbfbf" stroke="black" points="0,-0.5 0,-19.5 129,-19.5 129,-0.5 0,-0.5"/>
<text text-anchor="middle" x="64.5" y="-7.5" font-family="Helvetica,sans-Serif" font-size="10.00">get_device_tree</text>
</a>
</g>
</g>
<!-- Node1&#45;&gt;Node1 -->
<g id="edge2" class="edge">
<title>Node1&#45;&gt;Node1</title>
<path fill="none" stroke="midnightblue" d="M33.98,-19.76C19.14,-28.57 29.31,-38 64.5,-38 89.24,-38 101.62,-33.34 101.62,-27.5"/>
<polygon fill="midnightblue" stroke="midnightblue" points="104.17,-25.09 95.02,-19.76 98.84,-29.64 104.17,-25.09"/>
</g>
<!-- Node2 -->
<g id="node2" class="node">
<title>Node2</title>
<g id="a_node2"><a xlink:href="a00092.html#ga8d412b5131135555e316443425310d3f" target="_top" xlink:title="Get the tree that describe all the structure of the device in JSON format.">
<polygon fill="white" stroke="black" points="165,-0.5 165,-19.5 362,-19.5 362,-0.5 165,-0.5"/>
<text text-anchor="middle" x="263.5" y="-7.5" font-family="Helvetica,sans-Serif" font-size="10.00">CAEN_FELib_GetDeviceTree</text>
</a>
</g>
</g>
<!-- Node1&#45;&gt;Node2 -->
<g id="edge1" class="edge">
<title>Node1&#45;&gt;Node2</title>
<path fill="none" stroke="midnightblue" d="M129.19,-10C137.35,-10 145.88,-10 154.5,-10"/>
<polygon fill="midnightblue" stroke="midnightblue" points="154.65,-13.5 164.65,-10 154.65,-6.5 154.65,-13.5"/>
</g>
</g>
</svg>
