<?xml version="1.0" encoding="UTF-8" standalone="no"?>
<!DOCTYPE svg PUBLIC "-//W3C//DTD SVG 1.1//EN"
 "http://www.w3.org/Graphics/SVG/1.1/DTD/svg11.dtd">
<!-- Generated by graphviz version 2.49.3 (20211027.1534)
 -->
<!-- Title: get_value_with_arg Pages: 1 -->
<svg width="355pt" height="46pt"
 viewBox="0.00 0.00 355.00 46.00" xmlns="http://www.w3.org/2000/svg" xmlns:xlink="http://www.w3.org/1999/xlink">
<g id="graph0" class="graph" transform="scale(1 1) rotate(0) translate(4 42)">
<title>get_value_with_arg</title>
<polygon fill="white" stroke="transparent" points="-4,4 -4,-42 351,-42 351,4 -4,4"/>
<!-- Node1 -->
<g id="node1" class="node">
<title>Node1</title>
<g id="a_node1"><a xlink:title="Wrapper to CAEN_FELib_GetValue()">
<polygon fill="#bfbfbf" stroke="black" points="0,-0.5 0,-19.5 152,-19.5 152,-0.5 0,-0.5"/>
<text text-anchor="middle" x="76" y="-7.5" font-family="Helvetica,sans-Serif" font-size="10.00">get_value_with_arg</text>
</a>
</g>
</g>
<!-- Node1&#45;&gt;Node1 -->
<g id="edge2" class="edge">
<title>Node1&#45;&gt;Node1</title>
<path fill="none" stroke="midnightblue" d="M46.72,-19.76C32.47,-28.57 42.23,-38 76,-38 99.74,-38 111.62,-33.34 111.62,-27.5"/>
<polygon fill="midnightblue" stroke="midnightblue" points="114.33,-25.28 105.28,-19.76 108.91,-29.71 114.33,-25.28"/>
</g>
<!-- Node2 -->
<g id="node2" class="node">
<title>Node2</title>
<g id="a_node2"><a xlink:href="a00092.html#gab185d86b3a52a45fcc23d58f61c2a457" target="_top" xlink:title="Get the value of a readable node.">
<polygon fill="white" stroke="black" points="188,-0.5 188,-19.5 347,-19.5 347,-0.5 188,-0.5"/>
<text text-anchor="middle" x="267.5" y="-7.5" font-family="Helvetica,sans-Serif" font-size="10.00">CAEN_FELib_GetValue</text>
</a>
</g>
</g>
<!-- Node1&#45;&gt;Node2 -->
<g id="edge1" class="edge">
<title>Node1&#45;&gt;Node2</title>
<path fill="none" stroke="midnightblue" d="M152.17,-10C160.47,-10 168.98,-10 177.43,-10"/>
<polygon fill="midnightblue" stroke="midnightblue" points="177.69,-13.5 187.69,-10 177.69,-6.5 177.69,-13.5"/>
</g>
</g>
</svg>
