<?xml version="1.0" encoding="UTF-8" standalone="no"?>
<!DOCTYPE svg PUBLIC "-//W3C//DTD SVG 1.1//EN"
 "http://www.w3.org/Graphics/SVG/1.1/DTD/svg11.dtd">
<!-- Generated by graphviz version 2.49.3 (20211027.1534)
 -->
<!-- Title: get_node Pages: 1 -->
<svg width="746pt" height="122pt"
 viewBox="0.00 0.00 746.00 122.00" xmlns="http://www.w3.org/2000/svg" xmlns:xlink="http://www.w3.org/1999/xlink">
<g id="graph0" class="graph" transform="scale(1 1) rotate(0) translate(4 118)">
<title>get_node</title>
<polygon fill="white" stroke="transparent" points="-4,4 -4,-118 742,-118 742,4 -4,4"/>
<!-- Node1 -->
<g id="node1" class="node">
<title>Node1</title>
<g id="a_node1"><a xlink:title="Wrapper to CAEN_FELib_GetHandle()">
<polygon fill="#bfbfbf" stroke="black" points="0,-56.5 0,-75.5 77,-75.5 77,-56.5 0,-56.5"/>
<text text-anchor="middle" x="38.5" y="-63.5" font-family="Helvetica,sans-Serif" font-size="10.00">get_node</text>
</a>
</g>
</g>
<!-- Node1&#45;&gt;Node1 -->
<g id="edge3" class="edge">
<title>Node1&#45;&gt;Node1</title>
<path fill="none" stroke="midnightblue" d="M14.15,-75.76C2.3,-84.57 10.42,-94 38.5,-94 56.93,-94 66.76,-89.94 67.99,-84.65"/>
<polygon fill="midnightblue" stroke="midnightblue" points="70.89,-82.66 62.85,-75.76 64.82,-86.17 70.89,-82.66"/>
</g>
<!-- Node2 -->
<g id="node2" class="node">
<title>Node2</title>
<g id="a_node2"><a xlink:href="a00118.html#" target="_top" xlink:title=" ">
<polygon fill="white" stroke="black" points="147,-94.5 147,-113.5 246,-113.5 246,-94.5 147,-94.5"/>
<text text-anchor="middle" x="196.5" y="-101.5" font-family="Helvetica,sans-Serif" font-size="10.00">__root_node</text>
</a>
</g>
</g>
<!-- Node1&#45;&gt;Node2 -->
<g id="edge1" class="edge">
<title>Node1&#45;&gt;Node2</title>
<path fill="none" stroke="midnightblue" d="M75.71,-75.57C87.58,-78.65 100.84,-82.03 113,-85 122.74,-87.38 133.16,-89.84 143.19,-92.17"/>
<polygon fill="midnightblue" stroke="midnightblue" points="142.52,-95.61 153.05,-94.45 144.1,-88.79 142.52,-95.61"/>
</g>
<!-- Node3 -->
<g id="node3" class="node">
<title>Node3</title>
<g id="a_node3"><a xlink:href="a00092.html#gaa6f146f6a1e6f98416ee35fba5edfffc" target="_top" xlink:title="Get the handle of a node.">
<polygon fill="white" stroke="black" points="113,-56.5 113,-75.5 280,-75.5 280,-56.5 113,-56.5"/>
<text text-anchor="middle" x="196.5" y="-63.5" font-family="Helvetica,sans-Serif" font-size="10.00">CAEN_FELib_GetHandle</text>
</a>
</g>
</g>
<!-- Node1&#45;&gt;Node3 -->
<g id="edge2" class="edge">
<title>Node1&#45;&gt;Node3</title>
<path fill="none" stroke="midnightblue" d="M77.26,-66C85.13,-66 93.74,-66 102.62,-66"/>
<polygon fill="midnightblue" stroke="midnightblue" points="102.73,-69.5 112.73,-66 102.73,-62.5 102.73,-69.5"/>
</g>
<!-- Node4 -->
<g id="node4" class="node">
<title>Node4</title>
<g id="a_node4"><a xlink:href="a00118.html#ab640bd6bd3ecc06e6a89e62ac1961696" target="_top" xlink:title="Node type.">
<polygon fill="white" stroke="black" points="173,-0.5 173,-19.5 220,-19.5 220,-0.5 173,-0.5"/>
<text text-anchor="middle" x="196.5" y="-7.5" font-family="Helvetica,sans-Serif" font-size="10.00">type</text>
</a>
</g>
</g>
<!-- Node1&#45;&gt;Node4 -->
<g id="edge4" class="edge">
<title>Node1&#45;&gt;Node4</title>
<path fill="none" stroke="midnightblue" d="M66.32,-56.37C93.12,-46.75 134.37,-31.94 163.02,-21.66"/>
<polygon fill="midnightblue" stroke="midnightblue" points="164.35,-24.9 172.58,-18.23 161.99,-18.31 164.35,-24.9"/>
</g>
<!-- Node4&#45;&gt;Node4 -->
<g id="edge8" class="edge">
<title>Node4&#45;&gt;Node4</title>
<path fill="none" stroke="midnightblue" d="M172.96,-19.18C159.95,-28.15 167.8,-38 196.5,-38 216.23,-38 226.11,-33.34 226.12,-27.52"/>
<polygon fill="midnightblue" stroke="midnightblue" points="228.76,-25.19 220.04,-19.18 223.11,-29.32 228.76,-25.19"/>
</g>
<!-- Node5 -->
<g id="node5" class="node">
<title>Node5</title>
<g id="a_node5"><a xlink:href="a00118.html#a628025186cdf85cf7459c5b3972172ac" target="_top" xlink:title="Wrapper to CAEN_FELib_GetNodeProperties()">
<polygon fill="white" stroke="black" points="316,-0.5 316,-19.5 475,-19.5 475,-0.5 316,-0.5"/>
<text text-anchor="middle" x="395.5" y="-7.5" font-family="Helvetica,sans-Serif" font-size="10.00">get_node_properties</text>
</a>
</g>
</g>
<!-- Node4&#45;&gt;Node5 -->
<g id="edge5" class="edge">
<title>Node4&#45;&gt;Node5</title>
<path fill="none" stroke="midnightblue" d="M220.1,-10C241.16,-10 273.98,-10 305.49,-10"/>
<polygon fill="midnightblue" stroke="midnightblue" points="305.66,-13.5 315.66,-10 305.66,-6.5 305.66,-13.5"/>
</g>
<!-- Node5&#45;&gt;Node5 -->
<g id="edge7" class="edge">
<title>Node5&#45;&gt;Node5</title>
<path fill="none" stroke="midnightblue" d="M364.98,-19.76C350.14,-28.57 360.31,-38 395.5,-38 420.24,-38 432.62,-33.34 432.62,-27.5"/>
<polygon fill="midnightblue" stroke="midnightblue" points="435.17,-25.09 426.02,-19.76 429.84,-29.64 435.17,-25.09"/>
</g>
<!-- Node6 -->
<g id="node6" class="node">
<title>Node6</title>
<g id="a_node6"><a xlink:href="a00092.html#ga0c5b9e819cdb1f50c760866f0cf763bd" target="_top" xlink:title="Get the name and type of a node.">
<polygon fill="white" stroke="black" points="511,-0.5 511,-19.5 738,-19.5 738,-0.5 511,-0.5"/>
<text text-anchor="middle" x="624.5" y="-7.5" font-family="Helvetica,sans-Serif" font-size="10.00">CAEN_FELib_GetNodeProperties</text>
</a>
</g>
</g>
<!-- Node5&#45;&gt;Node6 -->
<g id="edge6" class="edge">
<title>Node5&#45;&gt;Node6</title>
<path fill="none" stroke="midnightblue" d="M475.26,-10C483.54,-10 492.1,-10 500.73,-10"/>
<polygon fill="midnightblue" stroke="midnightblue" points="500.88,-13.5 510.88,-10 500.88,-6.5 500.88,-13.5"/>
</g>
</g>
</svg>
