<?xml version="1.0" encoding="UTF-8" standalone="no"?>
<!DOCTYPE svg PUBLIC "-//W3C//DTD SVG 1.1//EN"
 "http://www.w3.org/Graphics/SVG/1.1/DTD/svg11.dtd">
<!-- Generated by graphviz version 2.49.3 (20211027.1534)
 -->
<!-- Title: CAEN_FELib_GetPath Pages: 1 -->
<svg width="940pt" height="57pt"
 viewBox="0.00 0.00 940.00 57.00" xmlns="http://www.w3.org/2000/svg" xmlns:xlink="http://www.w3.org/1999/xlink">
<g id="graph0" class="graph" transform="scale(1 1) rotate(0) translate(4 53)">
<title>CAEN_FELib_GetPath</title>
<polygon fill="white" stroke="transparent" points="-4,4 -4,-53 936,-53 936,4 -4,4"/>
<!-- Node1 -->
<g id="node1" class="node">
<title>Node1</title>
<g id="a_node1"><a xlink:title="Get the absolute path of a node.">
<polygon fill="#bfbfbf" stroke="black" points="780,-6 780,-25 932,-25 932,-6 780,-6"/>
<text text-anchor="middle" x="856" y="-13" font-family="Helvetica,sans-Serif" font-size="10.00">CAEN_FELib_GetPath</text>
</a>
</g>
</g>
<!-- Node2 -->
<g id="node2" class="node">
<title>Node2</title>
<g id="a_node2"><a xlink:href="a00130.html#aa71a67fa5e66158c8d03b25aa9dec9e6" target="_top" xlink:title="Binding of CAEN_FELib_GetPath()">
<polygon fill="white" stroke="black" points="495,-6 495,-25 744,-25 744,-6 495,-6"/>
<text text-anchor="middle" x="619.5" y="-13" font-family="Helvetica,sans-Serif" font-size="10.00">caen_felib.device.Node.get_path</text>
</a>
</g>
</g>
<!-- Node1&#45;&gt;Node2 -->
<g id="edge1" class="edge">
<title>Node1&#45;&gt;Node2</title>
<path fill="none" stroke="midnightblue" d="M769.82,-15.5C761.5,-15.5 752.96,-15.5 744.36,-15.5"/>
<polygon fill="midnightblue" stroke="midnightblue" points="769.84,-19 779.84,-15.5 769.84,-12 769.84,-19"/>
</g>
<!-- Node2&#45;&gt;Node2 -->
<g id="edge2" class="edge">
<title>Node2&#45;&gt;Node2</title>
<path fill="none" stroke="midnightblue" d="M663.52,-31.72C665.8,-38.13 651.13,-43.5 619.5,-43.5 577.32,-43.5 565.3,-33.96 583.42,-25.11"/>
<polygon fill="midnightblue" stroke="midnightblue" points="665.51,-28.82 655.58,-25.11 661.03,-34.2 665.51,-28.82"/>
</g>
<!-- Node3 -->
<g id="node3" class="node">
<title>Node3</title>
<g id="a_node3"><a xlink:href="a00130.html#ab73e6efc52ce7a21b22cbf9f3465df91" target="_top" xlink:title="Node absolute path.">
<polygon fill="white" stroke="black" points="240,-6 240,-25 459,-25 459,-6 240,-6"/>
<text text-anchor="middle" x="349.5" y="-13" font-family="Helvetica,sans-Serif" font-size="10.00">caen_felib.device.Node.path</text>
</a>
</g>
</g>
<!-- Node2&#45;&gt;Node3 -->
<g id="edge3" class="edge">
<title>Node2&#45;&gt;Node3</title>
<path fill="none" stroke="midnightblue" d="M484.45,-15.5C476.05,-15.5 467.64,-15.5 459.36,-15.5"/>
<polygon fill="midnightblue" stroke="midnightblue" points="484.7,-19 494.7,-15.5 484.7,-12 484.7,-19"/>
</g>
<!-- Node3&#45;&gt;Node3 -->
<g id="edge6" class="edge">
<title>Node3&#45;&gt;Node3</title>
<path fill="none" stroke="midnightblue" d="M395.21,-31.32C398.4,-37.91 383.16,-43.5 349.5,-43.5 305.54,-43.5 293,-33.96 311.89,-25.11"/>
<polygon fill="midnightblue" stroke="midnightblue" points="397.18,-28.41 387.11,-25.11 392.92,-33.97 397.18,-28.41"/>
</g>
<!-- Node4 -->
<g id="node4" class="node">
<title>Node4</title>
<g id="a_node4"><a xlink:href="a00118.html#a65ddcf05a86535530abb7519860d6fd3" target="_top" xlink:title="ctypes object to shared library (for variadic functions)">
<polygon fill="white" stroke="black" points="0,-0.5 0,-30.5 204,-30.5 204,-0.5 0,-0.5"/>
<text text-anchor="start" x="8" y="-18.5" font-family="Helvetica,sans-Serif" font-size="10.00">caen_felib._utils.Lib.lib</text>
<text text-anchor="middle" x="102" y="-7.5" font-family="Helvetica,sans-Serif" font-size="10.00">_variadic</text>
</a>
</g>
</g>
<!-- Node3&#45;&gt;Node4 -->
<g id="edge4" class="edge">
<title>Node3&#45;&gt;Node4</title>
<path fill="none" stroke="midnightblue" d="M229.48,-15.5C221.05,-15.5 212.59,-15.5 204.27,-15.5"/>
<polygon fill="midnightblue" stroke="midnightblue" points="229.75,-19 239.75,-15.5 229.75,-12 229.75,-19"/>
</g>
<!-- Node4&#45;&gt;Node4 -->
<g id="edge5" class="edge">
<title>Node4&#45;&gt;Node4</title>
<path fill="none" stroke="midnightblue" d="M146.11,-40.59C141.03,-45.51 126.32,-49 102,-49 63.08,-49 48.79,-40.06 59.13,-30.66"/>
<polygon fill="midnightblue" stroke="midnightblue" points="149.58,-40.15 144.87,-30.66 142.64,-41.02 149.58,-40.15"/>
</g>
</g>
</svg>
