<?xml version="1.0" encoding="UTF-8" standalone="no"?>
<!DOCTYPE svg PUBLIC "-//W3C//DTD SVG 1.1//EN"
 "http://www.w3.org/Graphics/SVG/1.1/DTD/svg11.dtd">
<!-- Generated by graphviz version 12.2.1 (20241206.2353)
 -->
<!-- Title: DppDigitalProbeType Pages: 1 -->
<svg width="153pt" height="358pt"
 viewBox="0.00 0.00 152.75 358.25" xmlns="http://www.w3.org/2000/svg" xmlns:xlink="http://www.w3.org/1999/xlink">
<g id="graph0" class="graph" transform="scale(1 1) rotate(0) translate(4 354.25)">
<title>DppDigitalProbeType</title>
<!-- Node1 -->
<g id="Node000001" class="node">
<title>Node1</title>
<g id="a_Node000001"><a xlink:title="Digital probe types for Dig2 DPP&#45;PSD and DPP&#45;PHA events.">
<polygon fill="#999999" stroke="none" points="144.75,-260 0,-260 0,0 144.75,0 144.75,-260"/>
<text text-anchor="start" x="24" y="-246.5" font-family="Helvetica,sans-Serif" font-size="10.00">DppDigitalProbeType</text>
<text text-anchor="start" x="4" y="-229.75" font-family="Helvetica,sans-Serif" font-size="10.00">+</text>
<text text-anchor="start" x="14" y="-229.75" font-family="Helvetica,sans-Serif" font-size="10.00">UNKNOWN</text>
<text text-anchor="start" x="4" y="-213" font-family="Helvetica,sans-Serif" font-size="10.00">+</text>
<text text-anchor="start" x="14" y="-213" font-family="Helvetica,sans-Serif" font-size="10.00">TRIGGER</text>
<text text-anchor="start" x="4" y="-196.25" font-family="Helvetica,sans-Serif" font-size="10.00">+</text>
<text text-anchor="start" x="14" y="-196.25" font-family="Helvetica,sans-Serif" font-size="10.00">TIME_FILTER_ARMED</text>
<text text-anchor="start" x="4" y="-179.5" font-family="Helvetica,sans-Serif" font-size="10.00">+</text>
<text text-anchor="start" x="14" y="-179.5" font-family="Helvetica,sans-Serif" font-size="10.00">RE_TRIGGER_GUARD</text>
<text text-anchor="start" x="4" y="-162.75" font-family="Helvetica,sans-Serif" font-size="10.00">+</text>
<text text-anchor="start" x="14" y="-162.75" font-family="Helvetica,sans-Serif" font-size="10.00">ENERGY_FILTER_BASELINE</text>
<text text-anchor="start" x="14" y="-150" font-family="Helvetica,sans-Serif" font-size="10.00">_FREEZE</text>
<text text-anchor="start" x="4" y="-133.25" font-family="Helvetica,sans-Serif" font-size="10.00">+</text>
<text text-anchor="start" x="14" y="-133.25" font-family="Helvetica,sans-Serif" font-size="10.00">EVENT_PILE_UP</text>
<text text-anchor="start" x="4" y="-116.5" font-family="Helvetica,sans-Serif" font-size="10.00">+</text>
<text text-anchor="start" x="14" y="-116.5" font-family="Helvetica,sans-Serif" font-size="10.00">ENERGY_FILTER_PEAKING</text>
<text text-anchor="start" x="4" y="-99.75" font-family="Helvetica,sans-Serif" font-size="10.00">+</text>
<text text-anchor="start" x="14" y="-99.75" font-family="Helvetica,sans-Serif" font-size="10.00">ENERGY_FILTER_PEAK</text>
<text text-anchor="start" x="14" y="-87" font-family="Helvetica,sans-Serif" font-size="10.00">_READY</text>
<text text-anchor="start" x="4" y="-70.25" font-family="Helvetica,sans-Serif" font-size="10.00">+</text>
<text text-anchor="start" x="14" y="-70.25" font-family="Helvetica,sans-Serif" font-size="10.00">ENERGY_FILTER_PILE</text>
<text text-anchor="start" x="14" y="-57.5" font-family="Helvetica,sans-Serif" font-size="10.00">_UP_GUARD</text>
<text text-anchor="start" x="4" y="-40.75" font-family="Helvetica,sans-Serif" font-size="10.00">+</text>
<text text-anchor="start" x="14" y="-40.75" font-family="Helvetica,sans-Serif" font-size="10.00">ADC_SATURATION</text>
<text text-anchor="start" x="14" y="-24" font-family="Helvetica,sans-Serif" font-size="10.00">and 11 more...</text>
<text text-anchor="start" x="71.25" y="-7.25" font-family="Helvetica,sans-Serif" font-size="10.00"> </text>
<polygon fill="#666666" stroke="#666666" points="0,-241.25 0,-241.25 144.75,-241.25 144.75,-241.25 0,-241.25"/>
<polygon fill="#666666" stroke="#666666" points="0,-18.75 0,-18.75 12,-18.75 12,-18.75 0,-18.75"/>
<polygon fill="#666666" stroke="#666666" points="12,-18.75 12,-18.75 144.75,-18.75 144.75,-18.75 12,-18.75"/>
<polygon fill="none" stroke="#666666" points="0,0 0,-260 144.75,-260 144.75,0 0,0"/>
</a>
</g>
</g>
<!-- Node2 -->
<g id="Node000002" class="node">
<title>Node2</title>
<g id="a_Node000002"><a xlink:title=" ">
<polygon fill="white" stroke="none" points="95.88,-350.25 48.88,-350.25 48.88,-296 95.88,-296 95.88,-350.25"/>
<text text-anchor="start" x="52.88" y="-336.75" font-family="Helvetica,sans-Serif" font-size="10.00">IntEnum</text>
<text text-anchor="start" x="71.25" y="-320" font-family="Helvetica,sans-Serif" font-size="10.00"> </text>
<text text-anchor="start" x="71.25" y="-303.25" font-family="Helvetica,sans-Serif" font-size="10.00"> </text>
<polygon fill="#666666" stroke="#666666" points="48.88,-331.5 48.88,-331.5 95.88,-331.5 95.88,-331.5 48.88,-331.5"/>
<polygon fill="#666666" stroke="#666666" points="48.88,-314.75 48.88,-314.75 95.88,-314.75 95.88,-314.75 48.88,-314.75"/>
<polygon fill="none" stroke="#666666" points="48.88,-296 48.88,-350.25 95.88,-350.25 95.88,-296 48.88,-296"/>
</a>
</g>
</g>
<!-- Node2&#45;&gt;Node1 -->
<g id="edge1_Node000001_Node000002" class="edge">
<title>Node2&#45;&gt;Node1</title>
<g id="a_edge1_Node000001_Node000002"><a xlink:title=" ">
<path fill="none" stroke="#63b8ff" d="M72.38,-284.95C72.38,-277.23 72.38,-268.68 72.38,-259.69"/>
<polygon fill="none" stroke="#63b8ff" points="68.88,-284.84 72.38,-294.84 75.88,-284.84 68.88,-284.84"/>
</a>
</g>
</g>
</g>
</svg>
