<?xml version="1.0" encoding="UTF-8" standalone="no"?>
<!DOCTYPE svg PUBLIC "-//W3C//DTD SVG 1.1//EN"
 "http://www.w3.org/Graphics/SVG/1.1/DTD/svg11.dtd">
<!-- Generated by graphviz version 12.2.1 (20241206.2353)
 -->
<!-- Title: DataType Pages: 1 -->
<svg width="112pt" height="404pt"
 viewBox="0.00 0.00 111.50 403.75" xmlns="http://www.w3.org/2000/svg" xmlns:xlink="http://www.w3.org/1999/xlink">
<g id="graph0" class="graph" transform="scale(1 1) rotate(0) translate(4 399.75)">
<title>DataType</title>
<!-- Node1 -->
<g id="Node000001" class="node">
<title>Node1</title>
<g id="a_Node000001"><a xlink:title="Data types for Data class.">
<polygon fill="#999999" stroke="none" points="103.5,-305.5 0,-305.5 0,0 103.5,0 103.5,-305.5"/>
<text text-anchor="start" x="30.38" y="-292" font-family="Helvetica,sans-Serif" font-size="10.00">DataType</text>
<text text-anchor="start" x="4.38" y="-275.25" font-family="Helvetica,sans-Serif" font-size="10.00">+</text>
<text text-anchor="start" x="14.75" y="-275.25" font-family="Helvetica,sans-Serif" font-size="10.00">U8</text>
<text text-anchor="start" x="4.38" y="-258.5" font-family="Helvetica,sans-Serif" font-size="10.00">+</text>
<text text-anchor="start" x="14.75" y="-258.5" font-family="Helvetica,sans-Serif" font-size="10.00">U16</text>
<text text-anchor="start" x="4.38" y="-241.75" font-family="Helvetica,sans-Serif" font-size="10.00">+</text>
<text text-anchor="start" x="14.75" y="-241.75" font-family="Helvetica,sans-Serif" font-size="10.00">U32</text>
<text text-anchor="start" x="4.38" y="-225" font-family="Helvetica,sans-Serif" font-size="10.00">+</text>
<text text-anchor="start" x="14.75" y="-225" font-family="Helvetica,sans-Serif" font-size="10.00">U64</text>
<text text-anchor="start" x="4.38" y="-208.25" font-family="Helvetica,sans-Serif" font-size="10.00">+</text>
<text text-anchor="start" x="14.75" y="-208.25" font-family="Helvetica,sans-Serif" font-size="10.00">I8</text>
<text text-anchor="start" x="4.38" y="-191.5" font-family="Helvetica,sans-Serif" font-size="10.00">+</text>
<text text-anchor="start" x="14.75" y="-191.5" font-family="Helvetica,sans-Serif" font-size="10.00">I16</text>
<text text-anchor="start" x="4.38" y="-174.75" font-family="Helvetica,sans-Serif" font-size="10.00">+</text>
<text text-anchor="start" x="14.75" y="-174.75" font-family="Helvetica,sans-Serif" font-size="10.00">I32</text>
<text text-anchor="start" x="4.38" y="-158" font-family="Helvetica,sans-Serif" font-size="10.00">+</text>
<text text-anchor="start" x="14.75" y="-158" font-family="Helvetica,sans-Serif" font-size="10.00">I64</text>
<text text-anchor="start" x="4.38" y="-141.25" font-family="Helvetica,sans-Serif" font-size="10.00">+</text>
<text text-anchor="start" x="14.75" y="-141.25" font-family="Helvetica,sans-Serif" font-size="10.00">CHAR</text>
<text text-anchor="start" x="4.38" y="-124.5" font-family="Helvetica,sans-Serif" font-size="10.00">+</text>
<text text-anchor="start" x="14.75" y="-124.5" font-family="Helvetica,sans-Serif" font-size="10.00">BOOL</text>
<text text-anchor="start" x="4.38" y="-107.75" font-family="Helvetica,sans-Serif" font-size="10.00">+</text>
<text text-anchor="start" x="14.75" y="-107.75" font-family="Helvetica,sans-Serif" font-size="10.00">SIZE_T</text>
<text text-anchor="start" x="4.38" y="-91" font-family="Helvetica,sans-Serif" font-size="10.00">+</text>
<text text-anchor="start" x="14.75" y="-91" font-family="Helvetica,sans-Serif" font-size="10.00">PTRDIFF_T</text>
<text text-anchor="start" x="4.38" y="-74.25" font-family="Helvetica,sans-Serif" font-size="10.00">+</text>
<text text-anchor="start" x="14.75" y="-74.25" font-family="Helvetica,sans-Serif" font-size="10.00">FLOAT</text>
<text text-anchor="start" x="4.38" y="-57.5" font-family="Helvetica,sans-Serif" font-size="10.00">+</text>
<text text-anchor="start" x="14.75" y="-57.5" font-family="Helvetica,sans-Serif" font-size="10.00">DOUBLE</text>
<text text-anchor="start" x="4.38" y="-40.75" font-family="Helvetica,sans-Serif" font-size="10.00">+</text>
<text text-anchor="start" x="14.75" y="-40.75" font-family="Helvetica,sans-Serif" font-size="10.00">LONG_DOUBLE</text>
<text text-anchor="start" x="4" y="-24" font-family="Helvetica,sans-Serif" font-size="10.00">#</text>
<text text-anchor="start" x="14.75" y="-24" font-family="Helvetica,sans-Serif" font-size="10.00">_DATA_TYPE_MAP</text>
<text text-anchor="start" x="50.62" y="-7.25" font-family="Helvetica,sans-Serif" font-size="10.00"> </text>
<polygon fill="#666666" stroke="#666666" points="0,-286.75 0,-286.75 103.5,-286.75 103.5,-286.75 0,-286.75"/>
<polygon fill="#666666" stroke="#666666" points="0,-18.75 0,-18.75 12.75,-18.75 12.75,-18.75 0,-18.75"/>
<polygon fill="#666666" stroke="#666666" points="12.75,-18.75 12.75,-18.75 103.5,-18.75 103.5,-18.75 12.75,-18.75"/>
<polygon fill="none" stroke="#666666" points="0,0 0,-305.5 103.5,-305.5 103.5,0 0,0"/>
</a>
</g>
</g>
<!-- Node2 -->
<g id="Node000002" class="node">
<title>Node2</title>
<g id="a_Node000002"><a xlink:title=" ">
<polygon fill="white" stroke="none" points="75.25,-395.75 28.25,-395.75 28.25,-341.5 75.25,-341.5 75.25,-395.75"/>
<text text-anchor="start" x="32.25" y="-382.25" font-family="Helvetica,sans-Serif" font-size="10.00">StrEnum</text>
<text text-anchor="start" x="50.62" y="-365.5" font-family="Helvetica,sans-Serif" font-size="10.00"> </text>
<text text-anchor="start" x="50.62" y="-348.75" font-family="Helvetica,sans-Serif" font-size="10.00"> </text>
<polygon fill="#666666" stroke="#666666" points="28.25,-377 28.25,-377 75.25,-377 75.25,-377 28.25,-377"/>
<polygon fill="#666666" stroke="#666666" points="28.25,-360.25 28.25,-360.25 75.25,-360.25 75.25,-360.25 28.25,-360.25"/>
<polygon fill="none" stroke="#666666" points="28.25,-341.5 28.25,-395.75 75.25,-395.75 75.25,-341.5 28.25,-341.5"/>
</a>
</g>
</g>
<!-- Node2&#45;&gt;Node1 -->
<g id="edge1_Node000001_Node000002" class="edge">
<title>Node2&#45;&gt;Node1</title>
<g id="a_edge1_Node000001_Node000002"><a xlink:title=" ">
<path fill="none" stroke="#63b8ff" d="M51.75,-330.48C51.75,-322.79 51.75,-314.23 51.75,-305.16"/>
<polygon fill="none" stroke="#63b8ff" points="48.25,-330.31 51.75,-340.31 55.25,-330.31 48.25,-330.31"/>
</a>
</g>
</g>
</g>
</svg>
