<?xml version="1.0" encoding="UTF-8" standalone="no"?>
<!DOCTYPE svg PUBLIC "-//W3C//DTD SVG 1.1//EN"
 "http://www.w3.org/Graphics/SVG/1.1/DTD/svg11.dtd">
<!-- Generated by graphviz version 2.49.3 (20211027.1534)
 -->
<!-- Title: value Pages: 1 -->
<svg width="1129pt" height="426pt"
 viewBox="0.00 0.00 1129.00 425.66" xmlns="http://www.w3.org/2000/svg" xmlns:xlink="http://www.w3.org/1999/xlink">
<g id="graph0" class="graph" transform="scale(1 1) rotate(0) translate(4 421.66)">
<title>value</title>
<polygon fill="white" stroke="transparent" points="-4,4 -4,-421.66 1125,-421.66 1125,4 -4,4"/>
<!-- Node1 -->
<g id="node1" class="node">
<title>Node1</title>
<g id="a_node1"><a xlink:title=" ">
<polygon fill="#bfbfbf" stroke="black" points="0,-196.5 0,-215.5 54,-215.5 54,-196.5 0,-196.5"/>
<text text-anchor="middle" x="27" y="-203.5" font-family="Helvetica,sans-Serif" font-size="10.00">value</text>
</a>
</g>
</g>
<!-- Node2 -->
<g id="node2" class="node">
<title>Node2</title>
<g id="a_node2"><a xlink:href="a00118.html#" target="_top" xlink:title=" ">
<polygon fill="white" stroke="black" points="507.5,-356.5 507.5,-375.5 606.5,-375.5 606.5,-356.5 507.5,-356.5"/>
<text text-anchor="middle" x="557" y="-363.5" font-family="Helvetica,sans-Serif" font-size="10.00">__getitem__</text>
</a>
</g>
</g>
<!-- Node1&#45;&gt;Node2 -->
<g id="edge1" class="edge">
<title>Node1&#45;&gt;Node2</title>
<path fill="none" stroke="midnightblue" d="M28.29,-215.74C29.75,-244.57 38.42,-329.67 90,-365 224.05,-456.82 434.58,-405.19 519.08,-378.67"/>
<polygon fill="midnightblue" stroke="midnightblue" points="520.3,-381.96 528.75,-375.57 518.16,-375.29 520.3,-381.96"/>
</g>
<!-- Node3 -->
<g id="node3" class="node">
<title>Node3</title>
<g id="a_node3"><a xlink:href="a00118.html#a97bc987c78a57409e1972473bdc0befb" target="_top" xlink:title="List of child nodes.">
<polygon fill="white" stroke="black" points="94,-318.5 94,-337.5 193,-337.5 193,-318.5 94,-318.5"/>
<text text-anchor="middle" x="143.5" y="-325.5" font-family="Helvetica,sans-Serif" font-size="10.00">child_nodes</text>
</a>
</g>
</g>
<!-- Node1&#45;&gt;Node3 -->
<g id="edge2" class="edge">
<title>Node1&#45;&gt;Node3</title>
<path fill="none" stroke="midnightblue" d="M31.85,-215.64C39.93,-234.83 60.43,-278.18 90,-304 94.29,-307.75 99.27,-311.02 104.42,-313.83"/>
<polygon fill="midnightblue" stroke="midnightblue" points="103.23,-317.15 113.75,-318.42 106.32,-310.87 103.23,-317.15"/>
</g>
<!-- Node9 -->
<g id="node9" class="node">
<title>Node9</title>
<g id="a_node9"><a xlink:href="a00118.html#a0931e4315d67c08986a0c4a9bfc43ca9" target="_top" xlink:title="Wrapper to CAEN_FELib_Close()">
<polygon fill="white" stroke="black" points="116.5,-224.5 116.5,-243.5 170.5,-243.5 170.5,-224.5 116.5,-224.5"/>
<text text-anchor="middle" x="143.5" y="-231.5" font-family="Helvetica,sans-Serif" font-size="10.00">close</text>
</a>
</g>
</g>
<!-- Node1&#45;&gt;Node9 -->
<g id="edge13" class="edge">
<title>Node1&#45;&gt;Node9</title>
<path fill="none" stroke="midnightblue" d="M54.27,-212.42C69.69,-216.19 89.4,-221.01 106.27,-225.14"/>
<polygon fill="midnightblue" stroke="midnightblue" points="105.81,-228.63 116.35,-227.61 107.47,-221.83 105.81,-228.63"/>
</g>
<!-- Node11 -->
<g id="node11" class="node">
<title>Node11</title>
<g id="a_node11"><a xlink:href="a00118.html#afd75849228bcddd607859a36d8347ed5" target="_top" xlink:title="Wrapper to CAEN_FELib_GetHandle()">
<polygon fill="white" stroke="black" points="285.5,-262.5 285.5,-281.5 362.5,-281.5 362.5,-262.5 285.5,-262.5"/>
<text text-anchor="middle" x="324" y="-269.5" font-family="Helvetica,sans-Serif" font-size="10.00">get_node</text>
</a>
</g>
</g>
<!-- Node1&#45;&gt;Node11 -->
<g id="edge16" class="edge">
<title>Node1&#45;&gt;Node11</title>
<path fill="none" stroke="midnightblue" d="M33.7,-215.84C43.15,-231.04 63.65,-259.65 90,-271 149.83,-296.77 226.59,-290.51 275.31,-282.32"/>
<polygon fill="midnightblue" stroke="midnightblue" points="276.03,-285.75 285.26,-280.56 274.8,-278.86 276.03,-285.75"/>
</g>
<!-- Node13 -->
<g id="node13" class="node">
<title>Node13</title>
<g id="a_node13"><a xlink:href="a00118.html#ab73e6efc52ce7a21b22cbf9f3465df91" target="_top" xlink:title="Node absolute path.">
<polygon fill="white" stroke="black" points="120,-168.5 120,-187.5 167,-187.5 167,-168.5 120,-168.5"/>
<text text-anchor="middle" x="143.5" y="-175.5" font-family="Helvetica,sans-Serif" font-size="10.00">path</text>
</a>
</g>
</g>
<!-- Node1&#45;&gt;Node13 -->
<g id="edge21" class="edge">
<title>Node1&#45;&gt;Node13</title>
<path fill="none" stroke="midnightblue" d="M54.27,-199.58C70.83,-195.53 92.33,-190.27 109.97,-185.96"/>
<polygon fill="midnightblue" stroke="midnightblue" points="110.95,-189.32 119.83,-183.54 109.29,-182.52 110.95,-189.32"/>
</g>
<!-- Node16 -->
<g id="node16" class="node">
<title>Node16</title>
<g id="a_node16"><a xlink:href="a00118.html#a7b766e4d985df8ecf7b35c7287710dd4" target="_top" xlink:title="Wrapper to CAEN_FELib_SendCommand()">
<polygon fill="white" stroke="black" points="90,-112.5 90,-131.5 197,-131.5 197,-112.5 90,-112.5"/>
<text text-anchor="middle" x="143.5" y="-119.5" font-family="Helvetica,sans-Serif" font-size="10.00">send_command</text>
</a>
</g>
</g>
<!-- Node1&#45;&gt;Node16 -->
<g id="edge26" class="edge">
<title>Node1&#45;&gt;Node16</title>
<path fill="none" stroke="midnightblue" d="M40.73,-196.15C53.19,-186.55 72.77,-171.6 90,-159 99.82,-151.82 110.81,-144.04 120.19,-137.47"/>
<polygon fill="midnightblue" stroke="midnightblue" points="122.39,-140.2 128.59,-131.61 118.39,-134.46 122.39,-140.2"/>
</g>
<!-- Node18 -->
<g id="node18" class="node">
<title>Node18</title>
<g id="a_node18"><a xlink:href="a00118.html#a4bcc21bbe32ae0fe6707ee9c7e41aa5a" target="_top" xlink:title="Wrapper to CAEN_FELib_SetValue()">
<polygon fill="white" stroke="black" points="101.5,-56.5 101.5,-75.5 185.5,-75.5 185.5,-56.5 101.5,-56.5"/>
<text text-anchor="middle" x="143.5" y="-63.5" font-family="Helvetica,sans-Serif" font-size="10.00">set_value</text>
</a>
</g>
</g>
<!-- Node1&#45;&gt;Node18 -->
<g id="edge29" class="edge">
<title>Node1&#45;&gt;Node18</title>
<path fill="none" stroke="midnightblue" d="M32.16,-196.32C40.81,-176.96 62.28,-132.8 90,-103 97.63,-94.8 107.36,-87.33 116.37,-81.29"/>
<polygon fill="midnightblue" stroke="midnightblue" points="118.49,-84.09 125.03,-75.75 114.72,-78.19 118.49,-84.09"/>
</g>
<!-- Node20 -->
<g id="node20" class="node">
<title>Node20</title>
<g id="a_node20"><a xlink:href="a00118.html#ab641d2363302f9d39887ef556a621b7a" target="_top" xlink:title="Current value.">
<polygon fill="white" stroke="black" points="116.5,-0.5 116.5,-19.5 170.5,-19.5 170.5,-0.5 116.5,-0.5"/>
<text text-anchor="middle" x="143.5" y="-7.5" font-family="Helvetica,sans-Serif" font-size="10.00">value</text>
</a>
</g>
</g>
<!-- Node1&#45;&gt;Node20 -->
<g id="edge32" class="edge">
<title>Node1&#45;&gt;Node20</title>
<path fill="none" stroke="midnightblue" d="M29.71,-196.44C34.82,-170.16 52,-95.52 90,-47 96.75,-38.37 106.06,-30.92 114.96,-25.01"/>
<polygon fill="midnightblue" stroke="midnightblue" points="116.97,-27.88 123.61,-19.62 113.27,-21.93 116.97,-27.88"/>
</g>
<!-- Node3&#45;&gt;Node3 -->
<g id="edge3" class="edge">
<title>Node3&#45;&gt;Node3</title>
<path fill="none" stroke="midnightblue" d="M125.62,-337.76C116.92,-346.57 122.88,-356 143.5,-356 156.39,-356 163.55,-352.31 164.98,-347.4"/>
<polygon fill="midnightblue" stroke="midnightblue" points="168.16,-345.9 161.38,-337.76 161.6,-348.35 168.16,-345.9"/>
</g>
<!-- Node4 -->
<g id="node4" class="node">
<title>Node4</title>
<g id="a_node4"><a xlink:href="a00118.html#a7aa9c6de2f6259fcc67f346e744ea8af" target="_top" xlink:title="Wrapper to CAEN_FELib_GetChildHandles()">
<polygon fill="white" stroke="black" points="259.5,-318.5 259.5,-337.5 388.5,-337.5 388.5,-318.5 259.5,-318.5"/>
<text text-anchor="middle" x="324" y="-325.5" font-family="Helvetica,sans-Serif" font-size="10.00">get_child_nodes</text>
</a>
</g>
</g>
<!-- Node3&#45;&gt;Node4 -->
<g id="edge4" class="edge">
<title>Node3&#45;&gt;Node4</title>
<path fill="none" stroke="midnightblue" d="M193.28,-328C210.51,-328 230.31,-328 249.15,-328"/>
<polygon fill="midnightblue" stroke="midnightblue" points="249.2,-331.5 259.2,-328 249.2,-324.5 249.2,-331.5"/>
</g>
<!-- Node4&#45;&gt;Node2 -->
<g id="edge5" class="edge">
<title>Node4&#45;&gt;Node2</title>
<path fill="none" stroke="midnightblue" d="M382.99,-337.54C417.9,-343.28 462.22,-350.57 497.27,-356.34"/>
<polygon fill="midnightblue" stroke="midnightblue" points="496.92,-359.83 507.35,-358 498.05,-352.92 496.92,-359.83"/>
</g>
<!-- Node4&#45;&gt;Node4 -->
<g id="edge7" class="edge">
<title>Node4&#45;&gt;Node4</title>
<path fill="none" stroke="midnightblue" d="M296.26,-337.76C282.76,-346.57 292.01,-356 324,-356 345.99,-356 357.24,-351.54 357.73,-345.89"/>
<polygon fill="midnightblue" stroke="midnightblue" points="360.49,-343.73 351.74,-337.76 354.85,-347.88 360.49,-343.73"/>
</g>
<!-- Node5 -->
<g id="node5" class="node">
<title>Node5</title>
<g id="a_node5"><a xlink:href="a00092.html#ga1d99692257fe29f36cca78b6b58dc28c" target="_top" xlink:title="Get handles that represent nodes of the tree.">
<polygon fill="white" stroke="black" points="451,-318.5 451,-337.5 663,-337.5 663,-318.5 451,-318.5"/>
<text text-anchor="middle" x="557" y="-325.5" font-family="Helvetica,sans-Serif" font-size="10.00">CAEN_FELib_GetChildHandles</text>
</a>
</g>
</g>
<!-- Node4&#45;&gt;Node5 -->
<g id="edge6" class="edge">
<title>Node4&#45;&gt;Node5</title>
<path fill="none" stroke="midnightblue" d="M388.73,-328C404.81,-328 422.57,-328 440.34,-328"/>
<polygon fill="midnightblue" stroke="midnightblue" points="440.79,-331.5 450.79,-328 440.79,-324.5 440.79,-331.5"/>
</g>
<!-- Node6 -->
<g id="node6" class="node">
<title>Node6</title>
<g id="a_node6"><a xlink:href="a00118.html#ab640bd6bd3ecc06e6a89e62ac1961696" target="_top" xlink:title="Node type.">
<polygon fill="white" stroke="black" points="533.5,-262.5 533.5,-281.5 580.5,-281.5 580.5,-262.5 533.5,-262.5"/>
<text text-anchor="middle" x="557" y="-269.5" font-family="Helvetica,sans-Serif" font-size="10.00">type</text>
</a>
</g>
</g>
<!-- Node4&#45;&gt;Node6 -->
<g id="edge8" class="edge">
<title>Node4&#45;&gt;Node6</title>
<path fill="none" stroke="midnightblue" d="M372.27,-318.47C386.08,-315.57 401.17,-312.27 415,-309 452.29,-300.18 494.79,-288.85 523.3,-281.06"/>
<polygon fill="midnightblue" stroke="midnightblue" points="524.41,-284.39 533.13,-278.37 522.56,-277.64 524.41,-284.39"/>
</g>
<!-- Node6&#45;&gt;Node6 -->
<g id="edge12" class="edge">
<title>Node6&#45;&gt;Node6</title>
<path fill="none" stroke="midnightblue" d="M533.09,-277.63C503.7,-287.32 511.67,-300 557,-300 596.31,-300 607.52,-290.46 590.64,-281.62"/>
<polygon fill="midnightblue" stroke="midnightblue" points="591.49,-278.18 580.91,-277.63 588.84,-284.66 591.49,-278.18"/>
</g>
<!-- Node7 -->
<g id="node7" class="node">
<title>Node7</title>
<g id="a_node7"><a xlink:href="a00118.html#a628025186cdf85cf7459c5b3972172ac" target="_top" xlink:title="Wrapper to CAEN_FELib_GetNodeProperties()">
<polygon fill="white" stroke="black" points="699,-262.5 699,-281.5 858,-281.5 858,-262.5 699,-262.5"/>
<text text-anchor="middle" x="778.5" y="-269.5" font-family="Helvetica,sans-Serif" font-size="10.00">get_node_properties</text>
</a>
</g>
</g>
<!-- Node6&#45;&gt;Node7 -->
<g id="edge9" class="edge">
<title>Node6&#45;&gt;Node7</title>
<path fill="none" stroke="midnightblue" d="M580.66,-272C606.16,-272 649.15,-272 688.46,-272"/>
<polygon fill="midnightblue" stroke="midnightblue" points="688.63,-275.5 698.63,-272 688.63,-268.5 688.63,-275.5"/>
</g>
<!-- Node7&#45;&gt;Node7 -->
<g id="edge11" class="edge">
<title>Node7&#45;&gt;Node7</title>
<path fill="none" stroke="midnightblue" d="M744.87,-281.61C727.97,-290.46 739.18,-300 778.5,-300 807.37,-300 821.09,-294.86 819.65,-288.62"/>
<polygon fill="midnightblue" stroke="midnightblue" points="821.83,-285.87 812.13,-281.61 817.06,-290.99 821.83,-285.87"/>
</g>
<!-- Node8 -->
<g id="node8" class="node">
<title>Node8</title>
<g id="a_node8"><a xlink:href="a00092.html#ga0c5b9e819cdb1f50c760866f0cf763bd" target="_top" xlink:title="Get the name and type of a node.">
<polygon fill="white" stroke="black" points="894,-262.5 894,-281.5 1121,-281.5 1121,-262.5 894,-262.5"/>
<text text-anchor="middle" x="1007.5" y="-269.5" font-family="Helvetica,sans-Serif" font-size="10.00">CAEN_FELib_GetNodeProperties</text>
</a>
</g>
</g>
<!-- Node7&#45;&gt;Node8 -->
<g id="edge10" class="edge">
<title>Node7&#45;&gt;Node8</title>
<path fill="none" stroke="midnightblue" d="M858.26,-272C866.54,-272 875.1,-272 883.73,-272"/>
<polygon fill="midnightblue" stroke="midnightblue" points="883.88,-275.5 893.88,-272 883.88,-268.5 883.88,-275.5"/>
</g>
<!-- Node9&#45;&gt;Node9 -->
<g id="edge15" class="edge">
<title>Node9&#45;&gt;Node9</title>
<path fill="none" stroke="midnightblue" d="M125.62,-243.76C116.92,-252.57 122.88,-262 143.5,-262 156.39,-262 163.55,-258.31 164.98,-253.4"/>
<polygon fill="midnightblue" stroke="midnightblue" points="168.16,-251.9 161.38,-243.76 161.6,-254.35 168.16,-251.9"/>
</g>
<!-- Node10 -->
<g id="node10" class="node">
<title>Node10</title>
<g id="a_node10"><a xlink:href="a00092.html#ga920585fb5cbd9faf8c83e80be736f7c6" target="_top" xlink:title="Close the connection with device.">
<polygon fill="white" stroke="black" points="255.5,-224.5 255.5,-243.5 392.5,-243.5 392.5,-224.5 255.5,-224.5"/>
<text text-anchor="middle" x="324" y="-231.5" font-family="Helvetica,sans-Serif" font-size="10.00">CAEN_FELib_Close</text>
</a>
</g>
</g>
<!-- Node9&#45;&gt;Node10 -->
<g id="edge14" class="edge">
<title>Node9&#45;&gt;Node10</title>
<path fill="none" stroke="midnightblue" d="M170.84,-234C190.53,-234 218.54,-234 245.16,-234"/>
<polygon fill="midnightblue" stroke="midnightblue" points="245.28,-237.5 255.28,-234 245.28,-230.5 245.28,-237.5"/>
</g>
<!-- Node11&#45;&gt;Node2 -->
<g id="edge17" class="edge">
<title>Node11&#45;&gt;Node2</title>
<path fill="none" stroke="midnightblue" d="M357.47,-281.62C375.37,-287.81 397.45,-296.96 415,-309 434.18,-322.16 430.54,-335.93 451,-347 465.04,-354.59 481.51,-359.22 497.2,-362.03"/>
<polygon fill="midnightblue" stroke="midnightblue" points="496.94,-365.53 507.36,-363.62 498.02,-358.62 496.94,-365.53"/>
</g>
<!-- Node11&#45;&gt;Node6 -->
<g id="edge20" class="edge">
<title>Node11&#45;&gt;Node6</title>
<path fill="none" stroke="midnightblue" d="M362.63,-272C407.3,-272 481.05,-272 523.39,-272"/>
<polygon fill="midnightblue" stroke="midnightblue" points="523.44,-275.5 533.44,-272 523.44,-268.5 523.44,-275.5"/>
</g>
<!-- Node11&#45;&gt;Node11 -->
<g id="edge19" class="edge">
<title>Node11&#45;&gt;Node11</title>
<path fill="none" stroke="midnightblue" d="M296.26,-281.76C282.76,-290.57 292.01,-300 324,-300 345.99,-300 357.24,-295.54 357.73,-289.89"/>
<polygon fill="midnightblue" stroke="midnightblue" points="360.49,-287.73 351.74,-281.76 354.85,-291.88 360.49,-287.73"/>
</g>
<!-- Node12 -->
<g id="node12" class="node">
<title>Node12</title>
<g id="a_node12"><a xlink:href="a00092.html#gaa6f146f6a1e6f98416ee35fba5edfffc" target="_top" xlink:title="Get the handle of a node.">
<polygon fill="white" stroke="black" points="473.5,-224.5 473.5,-243.5 640.5,-243.5 640.5,-224.5 473.5,-224.5"/>
<text text-anchor="middle" x="557" y="-231.5" font-family="Helvetica,sans-Serif" font-size="10.00">CAEN_FELib_GetHandle</text>
</a>
</g>
</g>
<!-- Node11&#45;&gt;Node12 -->
<g id="edge18" class="edge">
<title>Node11&#45;&gt;Node12</title>
<path fill="none" stroke="midnightblue" d="M362.63,-265.81C396.52,-260.23 447.17,-251.9 488.13,-245.16"/>
<polygon fill="midnightblue" stroke="midnightblue" points="488.75,-248.61 498.05,-243.53 487.61,-241.7 488.75,-248.61"/>
</g>
<!-- Node13&#45;&gt;Node13 -->
<g id="edge25" class="edge">
<title>Node13&#45;&gt;Node13</title>
<path fill="none" stroke="midnightblue" d="M125.62,-187.76C116.92,-196.57 122.88,-206 143.5,-206 156.39,-206 163.55,-202.31 164.98,-197.4"/>
<polygon fill="midnightblue" stroke="midnightblue" points="168.16,-195.9 161.38,-187.76 161.6,-198.35 168.16,-195.9"/>
</g>
<!-- Node14 -->
<g id="node14" class="node">
<title>Node14</title>
<g id="a_node14"><a xlink:href="a00118.html#aa71a67fa5e66158c8d03b25aa9dec9e6" target="_top" xlink:title="Wrapper to CAEN_FELib_GetPath()">
<polygon fill="white" stroke="black" points="285.5,-168.5 285.5,-187.5 362.5,-187.5 362.5,-168.5 285.5,-168.5"/>
<text text-anchor="middle" x="324" y="-175.5" font-family="Helvetica,sans-Serif" font-size="10.00">get_path</text>
</a>
</g>
</g>
<!-- Node13&#45;&gt;Node14 -->
<g id="edge22" class="edge">
<title>Node13&#45;&gt;Node14</title>
<path fill="none" stroke="midnightblue" d="M167.11,-178C194.17,-178 240.24,-178 275.3,-178"/>
<polygon fill="midnightblue" stroke="midnightblue" points="275.33,-181.5 285.33,-178 275.33,-174.5 275.33,-181.5"/>
</g>
<!-- Node14&#45;&gt;Node14 -->
<g id="edge24" class="edge">
<title>Node14&#45;&gt;Node14</title>
<path fill="none" stroke="midnightblue" d="M296.26,-187.76C282.76,-196.57 292.01,-206 324,-206 345.99,-206 357.24,-201.54 357.73,-195.89"/>
<polygon fill="midnightblue" stroke="midnightblue" points="360.49,-193.73 351.74,-187.76 354.85,-197.88 360.49,-193.73"/>
</g>
<!-- Node15 -->
<g id="node15" class="node">
<title>Node15</title>
<g id="a_node15"><a xlink:href="a00092.html#gacf9d43143f79079c83ff5c37c27cd1a3" target="_top" xlink:title="Get the absolute path of a node.">
<polygon fill="white" stroke="black" points="481,-168.5 481,-187.5 633,-187.5 633,-168.5 481,-168.5"/>
<text text-anchor="middle" x="557" y="-175.5" font-family="Helvetica,sans-Serif" font-size="10.00">CAEN_FELib_GetPath</text>
</a>
</g>
</g>
<!-- Node14&#45;&gt;Node15 -->
<g id="edge23" class="edge">
<title>Node14&#45;&gt;Node15</title>
<path fill="none" stroke="midnightblue" d="M362.63,-178C391.73,-178 433.17,-178 470.23,-178"/>
<polygon fill="midnightblue" stroke="midnightblue" points="470.55,-181.5 480.55,-178 470.55,-174.5 470.55,-181.5"/>
</g>
<!-- Node16&#45;&gt;Node16 -->
<g id="edge28" class="edge">
<title>Node16&#45;&gt;Node16</title>
<path fill="none" stroke="midnightblue" d="M125.62,-131.76C116.92,-140.57 122.88,-150 143.5,-150 156.39,-150 163.55,-146.31 164.98,-141.4"/>
<polygon fill="midnightblue" stroke="midnightblue" points="168.16,-139.9 161.38,-131.76 161.6,-142.35 168.16,-139.9"/>
</g>
<!-- Node17 -->
<g id="node17" class="node">
<title>Node17</title>
<g id="a_node17"><a xlink:href="a00092.html#ga21ec1b970adad5267b722e50c058c8c5" target="_top" xlink:title="Send a command specified by a node.">
<polygon fill="white" stroke="black" points="233,-112.5 233,-131.5 415,-131.5 415,-112.5 233,-112.5"/>
<text text-anchor="middle" x="324" y="-119.5" font-family="Helvetica,sans-Serif" font-size="10.00">CAEN_FELib_SendCommand</text>
</a>
</g>
</g>
<!-- Node16&#45;&gt;Node17 -->
<g id="edge27" class="edge">
<title>Node16&#45;&gt;Node17</title>
<path fill="none" stroke="midnightblue" d="M197.09,-122C205.31,-122 214.03,-122 222.9,-122"/>
<polygon fill="midnightblue" stroke="midnightblue" points="222.95,-125.5 232.95,-122 222.95,-118.5 222.95,-125.5"/>
</g>
<!-- Node18&#45;&gt;Node18 -->
<g id="edge31" class="edge">
<title>Node18&#45;&gt;Node18</title>
<path fill="none" stroke="midnightblue" d="M125.62,-75.76C116.92,-84.57 122.88,-94 143.5,-94 156.39,-94 163.55,-90.31 164.98,-85.4"/>
<polygon fill="midnightblue" stroke="midnightblue" points="168.16,-83.9 161.38,-75.76 161.6,-86.35 168.16,-83.9"/>
</g>
<!-- Node19 -->
<g id="node19" class="node">
<title>Node19</title>
<g id="a_node19"><a xlink:href="a00092.html#gafb0504a48713f8fb9e4f6602eeacf99c" target="_top" xlink:title="Set the value of a writable node.">
<polygon fill="white" stroke="black" points="244.5,-56.5 244.5,-75.5 403.5,-75.5 403.5,-56.5 244.5,-56.5"/>
<text text-anchor="middle" x="324" y="-63.5" font-family="Helvetica,sans-Serif" font-size="10.00">CAEN_FELib_SetValue</text>
</a>
</g>
</g>
<!-- Node18&#45;&gt;Node19 -->
<g id="edge30" class="edge">
<title>Node18&#45;&gt;Node19</title>
<path fill="none" stroke="midnightblue" d="M185.9,-66C200.31,-66 217.09,-66 233.86,-66"/>
<polygon fill="midnightblue" stroke="midnightblue" points="234.29,-69.5 244.29,-66 234.29,-62.5 234.29,-69.5"/>
</g>
<!-- Node20&#45;&gt;Node20 -->
<g id="edge36" class="edge">
<title>Node20&#45;&gt;Node20</title>
<path fill="none" stroke="midnightblue" d="M125.62,-19.76C116.92,-28.57 122.88,-38 143.5,-38 156.39,-38 163.55,-34.31 164.98,-29.4"/>
<polygon fill="midnightblue" stroke="midnightblue" points="168.16,-27.9 161.38,-19.76 161.6,-30.35 168.16,-27.9"/>
</g>
<!-- Node21 -->
<g id="node21" class="node">
<title>Node21</title>
<g id="a_node21"><a xlink:href="a00118.html#a83080f6dc5715a81005bba6ad907da59" target="_top" xlink:title="Wrapper to CAEN_FELib_GetValue()">
<polygon fill="white" stroke="black" points="282,-0.5 282,-19.5 366,-19.5 366,-0.5 282,-0.5"/>
<text text-anchor="middle" x="324" y="-7.5" font-family="Helvetica,sans-Serif" font-size="10.00">get_value</text>
</a>
</g>
</g>
<!-- Node20&#45;&gt;Node21 -->
<g id="edge33" class="edge">
<title>Node20&#45;&gt;Node21</title>
<path fill="none" stroke="midnightblue" d="M170.84,-10C197.27,-10 238.67,-10 271.61,-10"/>
<polygon fill="midnightblue" stroke="midnightblue" points="271.99,-13.5 281.99,-10 271.99,-6.5 271.99,-13.5"/>
</g>
<!-- Node21&#45;&gt;Node21 -->
<g id="edge35" class="edge">
<title>Node21&#45;&gt;Node21</title>
<path fill="none" stroke="midnightblue" d="M296.26,-19.76C282.76,-28.57 292.01,-38 324,-38 345.99,-38 357.24,-33.54 357.73,-27.89"/>
<polygon fill="midnightblue" stroke="midnightblue" points="360.49,-25.73 351.74,-19.76 354.85,-29.88 360.49,-25.73"/>
</g>
<!-- Node22 -->
<g id="node22" class="node">
<title>Node22</title>
<g id="a_node22"><a xlink:href="a00092.html#gab185d86b3a52a45fcc23d58f61c2a457" target="_top" xlink:title="Get the value of a readable node.">
<polygon fill="white" stroke="black" points="477.5,-0.5 477.5,-19.5 636.5,-19.5 636.5,-0.5 477.5,-0.5"/>
<text text-anchor="middle" x="557" y="-7.5" font-family="Helvetica,sans-Serif" font-size="10.00">CAEN_FELib_GetValue</text>
</a>
</g>
</g>
<!-- Node21&#45;&gt;Node22 -->
<g id="edge34" class="edge">
<title>Node21&#45;&gt;Node22</title>
<path fill="none" stroke="midnightblue" d="M366.03,-10C394,-10 432.12,-10 466.87,-10"/>
<polygon fill="midnightblue" stroke="midnightblue" points="467.05,-13.5 477.05,-10 467.05,-6.5 467.05,-13.5"/>
</g>
</g>
</svg>
