<?xml version="1.0" encoding="UTF-8" standalone="no"?>
<!DOCTYPE svg PUBLIC "-//W3C//DTD SVG 1.1//EN"
 "http://www.w3.org/Graphics/SVG/1.1/DTD/svg11.dtd">
<!-- Generated by graphviz version 2.49.3 (20211027.1534)
 -->
<!-- Title: type Pages: 1 -->
<svg width="445pt" height="158pt"
 viewBox="0.00 0.00 445.00 158.00" xmlns="http://www.w3.org/2000/svg" xmlns:xlink="http://www.w3.org/1999/xlink">
<g id="graph0" class="graph" transform="scale(1 1) rotate(0) translate(4 154)">
<title>type</title>
<polygon fill="white" stroke="transparent" points="-4,4 -4,-154 441,-154 441,4 -4,4"/>
<!-- Node1 -->
<g id="node1" class="node">
<title>Node1</title>
<g id="a_node1"><a xlink:title="Node type.">
<polygon fill="#bfbfbf" stroke="black" points="390,-56.5 390,-75.5 437,-75.5 437,-56.5 390,-56.5"/>
<text text-anchor="middle" x="413.5" y="-63.5" font-family="Helvetica,sans-Serif" font-size="10.00">type</text>
</a>
</g>
</g>
<!-- Node1&#45;&gt;Node1 -->
<g id="edge13" class="edge">
<title>Node1&#45;&gt;Node1</title>
<path fill="none" stroke="midnightblue" d="M436.57,-85.03C435.31,-90.13 427.62,-94 413.5,-94 391.46,-94 385.09,-84.57 394.39,-75.76"/>
<polygon fill="midnightblue" stroke="midnightblue" points="439.75,-83.58 432.61,-75.76 433.31,-86.33 439.75,-83.58"/>
</g>
<!-- Node2 -->
<g id="node2" class="node">
<title>Node2</title>
<g id="a_node2"><a xlink:href="a00118.html#a7aa9c6de2f6259fcc67f346e744ea8af" target="_top" xlink:title="Wrapper to CAEN_FELib_GetChildHandles()">
<polygon fill="white" stroke="black" points="225,-103.5 225,-122.5 354,-122.5 354,-103.5 225,-103.5"/>
<text text-anchor="middle" x="289.5" y="-110.5" font-family="Helvetica,sans-Serif" font-size="10.00">get_child_nodes</text>
</a>
</g>
</g>
<!-- Node1&#45;&gt;Node2 -->
<g id="edge1" class="edge">
<title>Node1&#45;&gt;Node2</title>
<path fill="none" stroke="midnightblue" d="M380.39,-78.37C360.12,-86.18 334.32,-96.12 315.56,-103.34"/>
<polygon fill="midnightblue" stroke="midnightblue" points="381.77,-81.59 389.84,-74.73 379.25,-75.06 381.77,-81.59"/>
</g>
<!-- Node5 -->
<g id="node5" class="node">
<title>Node5</title>
<g id="a_node5"><a xlink:href="a00118.html#afd75849228bcddd607859a36d8347ed5" target="_top" xlink:title="Wrapper to CAEN_FELib_GetHandle()">
<polygon fill="white" stroke="black" points="101,-56.5 101,-75.5 178,-75.5 178,-56.5 101,-56.5"/>
<text text-anchor="middle" x="139.5" y="-63.5" font-family="Helvetica,sans-Serif" font-size="10.00">get_node</text>
</a>
</g>
</g>
<!-- Node1&#45;&gt;Node5 -->
<g id="edge6" class="edge">
<title>Node1&#45;&gt;Node5</title>
<path fill="none" stroke="midnightblue" d="M379.7,-66C329.02,-66 231.93,-66 178.35,-66"/>
<polygon fill="midnightblue" stroke="midnightblue" points="379.78,-69.5 389.78,-66 379.78,-62.5 379.78,-69.5"/>
</g>
<!-- Node6 -->
<g id="node6" class="node">
<title>Node6</title>
<g id="a_node6"><a xlink:href="a00118.html#a1ff942b5fadf7fcc3cb91f8323b8497a" target="_top" xlink:title="Wrapper to CAEN_FELib_GetParentHandle()">
<polygon fill="white" stroke="black" points="225,-0.5 225,-19.5 354,-19.5 354,-0.5 225,-0.5"/>
<text text-anchor="middle" x="289.5" y="-7.5" font-family="Helvetica,sans-Serif" font-size="10.00">get_parent_node</text>
</a>
</g>
</g>
<!-- Node1&#45;&gt;Node6 -->
<g id="edge9" class="edge">
<title>Node1&#45;&gt;Node6</title>
<path fill="none" stroke="midnightblue" d="M382.24,-52.11C360.12,-41.96 330.69,-28.45 311.2,-19.5"/>
<polygon fill="midnightblue" stroke="midnightblue" points="380.98,-55.38 391.53,-56.37 383.9,-49.02 380.98,-55.38"/>
</g>
<!-- Node2&#45;&gt;Node2 -->
<g id="edge5" class="edge">
<title>Node2&#45;&gt;Node2</title>
<path fill="none" stroke="midnightblue" d="M312.57,-132.03C311.31,-137.13 303.62,-141 289.5,-141 267.46,-141 261.09,-131.57 270.39,-122.76"/>
<polygon fill="midnightblue" stroke="midnightblue" points="315.75,-130.58 308.61,-122.76 309.31,-133.33 315.75,-130.58"/>
</g>
<!-- Node3 -->
<g id="node3" class="node">
<title>Node3</title>
<g id="a_node3"><a xlink:href="a00118.html#a97bc987c78a57409e1972473bdc0befb" target="_top" xlink:title="List of child nodes.">
<polygon fill="white" stroke="black" points="90,-112.5 90,-131.5 189,-131.5 189,-112.5 90,-112.5"/>
<text text-anchor="middle" x="139.5" y="-119.5" font-family="Helvetica,sans-Serif" font-size="10.00">child_nodes</text>
</a>
</g>
</g>
<!-- Node2&#45;&gt;Node3 -->
<g id="edge2" class="edge">
<title>Node2&#45;&gt;Node3</title>
<path fill="none" stroke="midnightblue" d="M214.77,-117.48C206.13,-118.01 197.49,-118.53 189.32,-119.03"/>
<polygon fill="midnightblue" stroke="midnightblue" points="215.11,-120.97 224.88,-116.87 214.68,-113.98 215.11,-120.97"/>
</g>
<!-- Node3&#45;&gt;Node3 -->
<g id="edge3" class="edge">
<title>Node3&#45;&gt;Node3</title>
<path fill="none" stroke="midnightblue" d="M160.24,-141.4C158.85,-146.31 151.94,-150 139.5,-150 119.59,-150 113.84,-140.57 122.24,-131.76"/>
<polygon fill="midnightblue" stroke="midnightblue" points="163.45,-139.98 156.76,-131.76 156.86,-142.35 163.45,-139.98"/>
</g>
<!-- Node4 -->
<g id="node4" class="node">
<title>Node4</title>
<g id="a_node4"><a xlink:href="a00118.html#a44c1c6b558a3bb1e5f628f5999b0ba46" target="_top" xlink:title=" ">
<polygon fill="white" stroke="black" points="0,-84.5 0,-103.5 54,-103.5 54,-84.5 0,-84.5"/>
<text text-anchor="middle" x="27" y="-91.5" font-family="Helvetica,sans-Serif" font-size="10.00">value</text>
</a>
</g>
</g>
<!-- Node3&#45;&gt;Node4 -->
<g id="edge4" class="edge">
<title>Node3&#45;&gt;Node4</title>
<path fill="none" stroke="midnightblue" d="M90.83,-109.92C78.21,-106.72 65.06,-103.39 54.07,-100.61"/>
<polygon fill="midnightblue" stroke="midnightblue" points="90.23,-113.38 100.78,-112.44 91.95,-106.59 90.23,-113.38"/>
</g>
<!-- Node5&#45;&gt;Node4 -->
<g id="edge8" class="edge">
<title>Node5&#45;&gt;Node4</title>
<path fill="none" stroke="midnightblue" d="M90.83,-78.08C78.21,-81.28 65.06,-84.61 54.07,-87.39"/>
<polygon fill="midnightblue" stroke="midnightblue" points="91.95,-81.41 100.78,-75.56 90.23,-74.62 91.95,-81.41"/>
</g>
<!-- Node5&#45;&gt;Node5 -->
<g id="edge7" class="edge">
<title>Node5&#45;&gt;Node5</title>
<path fill="none" stroke="midnightblue" d="M160.24,-85.4C158.85,-90.31 151.94,-94 139.5,-94 119.59,-94 113.84,-84.57 122.24,-75.76"/>
<polygon fill="midnightblue" stroke="midnightblue" points="163.45,-83.98 156.76,-75.76 156.86,-86.35 163.45,-83.98"/>
</g>
<!-- Node6&#45;&gt;Node6 -->
<g id="edge10" class="edge">
<title>Node6&#45;&gt;Node6</title>
<path fill="none" stroke="midnightblue" d="M312.57,-29.03C311.31,-34.13 303.62,-38 289.5,-38 267.46,-38 261.09,-28.57 270.39,-19.76"/>
<polygon fill="midnightblue" stroke="midnightblue" points="315.75,-27.58 308.61,-19.76 309.31,-30.33 315.75,-27.58"/>
</g>
<!-- Node7 -->
<g id="node7" class="node">
<title>Node7</title>
<g id="a_node7"><a xlink:href="a00118.html#a6d10ab1e9b6a00bb00122421cd922b7c" target="_top" xlink:title="Parent node.">
<polygon fill="white" stroke="black" points="90,-0.5 90,-19.5 189,-19.5 189,-0.5 90,-0.5"/>
<text text-anchor="middle" x="139.5" y="-7.5" font-family="Helvetica,sans-Serif" font-size="10.00">parent_node</text>
</a>
</g>
</g>
<!-- Node6&#45;&gt;Node7 -->
<g id="edge11" class="edge">
<title>Node6&#45;&gt;Node7</title>
<path fill="none" stroke="midnightblue" d="M214.77,-10C206.13,-10 197.49,-10 189.32,-10"/>
<polygon fill="midnightblue" stroke="midnightblue" points="214.88,-13.5 224.88,-10 214.88,-6.5 214.88,-13.5"/>
</g>
<!-- Node7&#45;&gt;Node7 -->
<g id="edge12" class="edge">
<title>Node7&#45;&gt;Node7</title>
<path fill="none" stroke="midnightblue" d="M160.24,-29.4C158.85,-34.31 151.94,-38 139.5,-38 119.59,-38 113.84,-28.57 122.24,-19.76"/>
<polygon fill="midnightblue" stroke="midnightblue" points="163.45,-27.98 156.76,-19.76 156.86,-30.35 163.45,-27.98"/>
</g>
</g>
</svg>
