<?xml version="1.0" encoding="UTF-8" standalone="no"?>
<!DOCTYPE svg PUBLIC "-//W3C//DTD SVG 1.1//EN"
 "http://www.w3.org/Graphics/SVG/1.1/DTD/svg11.dtd">
<!-- Generated by graphviz version 2.49.3 (20211027.1534)
 -->
<!-- Title: value Pages: 1 -->
<svg width="377pt" height="46pt"
 viewBox="0.00 0.00 377.00 46.00" xmlns="http://www.w3.org/2000/svg" xmlns:xlink="http://www.w3.org/1999/xlink">
<g id="graph0" class="graph" transform="scale(1 1) rotate(0) translate(4 42)">
<title>value</title>
<polygon fill="white" stroke="transparent" points="-4,4 -4,-42 373,-42 373,4 -4,4"/>
<!-- Node1 -->
<g id="node1" class="node">
<title>Node1</title>
<g id="a_node1"><a xlink:title="Current value.">
<polygon fill="#bfbfbf" stroke="black" points="0,-0.5 0,-19.5 54,-19.5 54,-0.5 0,-0.5"/>
<text text-anchor="middle" x="27" y="-7.5" font-family="Helvetica,sans-Serif" font-size="10.00">value</text>
</a>
</g>
</g>
<!-- Node1&#45;&gt;Node1 -->
<g id="edge4" class="edge">
<title>Node1&#45;&gt;Node1</title>
<path fill="none" stroke="midnightblue" d="M10.97,-19.76C3.17,-28.57 8.52,-38 27,-38 38.55,-38 44.97,-34.31 46.26,-29.4"/>
<polygon fill="midnightblue" stroke="midnightblue" points="49.52,-28.13 43.03,-19.76 42.89,-30.35 49.52,-28.13"/>
</g>
<!-- Node2 -->
<g id="node2" class="node">
<title>Node2</title>
<g id="a_node2"><a xlink:href="a00118.html#a83080f6dc5715a81005bba6ad907da59" target="_top" xlink:title="Wrapper to CAEN_FELib_GetValue()">
<polygon fill="white" stroke="black" points="90,-0.5 90,-19.5 174,-19.5 174,-0.5 90,-0.5"/>
<text text-anchor="middle" x="132" y="-7.5" font-family="Helvetica,sans-Serif" font-size="10.00">get_value</text>
</a>
</g>
</g>
<!-- Node1&#45;&gt;Node2 -->
<g id="edge1" class="edge">
<title>Node1&#45;&gt;Node2</title>
<path fill="none" stroke="midnightblue" d="M54.26,-10C62.05,-10 70.88,-10 79.69,-10"/>
<polygon fill="midnightblue" stroke="midnightblue" points="79.97,-13.5 89.97,-10 79.97,-6.5 79.97,-13.5"/>
</g>
<!-- Node2&#45;&gt;Node2 -->
<g id="edge3" class="edge">
<title>Node2&#45;&gt;Node2</title>
<path fill="none" stroke="midnightblue" d="M115.97,-19.76C108.17,-28.57 113.52,-38 132,-38 143.55,-38 149.97,-34.31 151.26,-29.4"/>
<polygon fill="midnightblue" stroke="midnightblue" points="154.52,-28.13 148.03,-19.76 147.89,-30.35 154.52,-28.13"/>
</g>
<!-- Node3 -->
<g id="node3" class="node">
<title>Node3</title>
<g id="a_node3"><a xlink:href="a00092.html#gab185d86b3a52a45fcc23d58f61c2a457" target="_top" xlink:title="Get the value of a readable node.">
<polygon fill="white" stroke="black" points="210,-0.5 210,-19.5 369,-19.5 369,-0.5 210,-0.5"/>
<text text-anchor="middle" x="289.5" y="-7.5" font-family="Helvetica,sans-Serif" font-size="10.00">CAEN_FELib_GetValue</text>
</a>
</g>
</g>
<!-- Node2&#45;&gt;Node3 -->
<g id="edge2" class="edge">
<title>Node2&#45;&gt;Node3</title>
<path fill="none" stroke="midnightblue" d="M174.26,-10C182.24,-10 190.88,-10 199.71,-10"/>
<polygon fill="midnightblue" stroke="midnightblue" points="199.74,-13.5 209.74,-10 199.74,-6.5 199.74,-13.5"/>
</g>
</g>
</svg>
