<?xml version="1.0" encoding="UTF-8" standalone="no"?>
<!DOCTYPE svg PUBLIC "-//W3C//DTD SVG 1.1//EN"
 "http://www.w3.org/Graphics/SVG/1.1/DTD/svg11.dtd">
<!-- Generated by graphviz version 12.2.1 (20241206.2353)
 -->
<!-- Title: HighPriorityFlagsPha Pages: 1 -->
<svg width="156pt" height="236pt"
 viewBox="0.00 0.00 155.75 236.25" xmlns="http://www.w3.org/2000/svg" xmlns:xlink="http://www.w3.org/1999/xlink">
<g id="graph0" class="graph" transform="scale(1 1) rotate(0) translate(4 232.25)">
<title>HighPriorityFlagsPha</title>
<!-- Node1 -->
<g id="Node000001" class="node">
<title>Node1</title>
<g id="a_Node000001"><a xlink:title="High priority flags on Dig2 DPP&#45;PHA events.">
<polygon fill="#999999" stroke="none" points="147.75,-138 0,-138 0,0 147.75,0 147.75,-138"/>
<text text-anchor="start" x="25.88" y="-124.5" font-family="Helvetica,sans-Serif" font-size="10.00">HighPriorityFlagsPha</text>
<text text-anchor="start" x="4" y="-107.75" font-family="Helvetica,sans-Serif" font-size="10.00">+</text>
<text text-anchor="start" x="14" y="-107.75" font-family="Helvetica,sans-Serif" font-size="10.00">PILE_UP</text>
<text text-anchor="start" x="4" y="-91" font-family="Helvetica,sans-Serif" font-size="10.00">+</text>
<text text-anchor="start" x="14" y="-91" font-family="Helvetica,sans-Serif" font-size="10.00">PILE_UP_REJECTOR_GUARD</text>
<text text-anchor="start" x="4" y="-74.25" font-family="Helvetica,sans-Serif" font-size="10.00">+</text>
<text text-anchor="start" x="14" y="-74.25" font-family="Helvetica,sans-Serif" font-size="10.00">EVENT_SATURATION</text>
<text text-anchor="start" x="4" y="-57.5" font-family="Helvetica,sans-Serif" font-size="10.00">+</text>
<text text-anchor="start" x="14" y="-57.5" font-family="Helvetica,sans-Serif" font-size="10.00">POST_SATURATION</text>
<text text-anchor="start" x="4" y="-40.75" font-family="Helvetica,sans-Serif" font-size="10.00">+</text>
<text text-anchor="start" x="14" y="-40.75" font-family="Helvetica,sans-Serif" font-size="10.00">TRAPEZOID_SATURATION</text>
<text text-anchor="start" x="4" y="-24" font-family="Helvetica,sans-Serif" font-size="10.00">+</text>
<text text-anchor="start" x="14" y="-24" font-family="Helvetica,sans-Serif" font-size="10.00">SCA_SELECTED</text>
<text text-anchor="start" x="72.75" y="-7.25" font-family="Helvetica,sans-Serif" font-size="10.00"> </text>
<polygon fill="#666666" stroke="#666666" points="0,-119.25 0,-119.25 147.75,-119.25 147.75,-119.25 0,-119.25"/>
<polygon fill="#666666" stroke="#666666" points="0,-18.75 0,-18.75 12,-18.75 12,-18.75 0,-18.75"/>
<polygon fill="#666666" stroke="#666666" points="12,-18.75 12,-18.75 147.75,-18.75 147.75,-18.75 12,-18.75"/>
<polygon fill="none" stroke="#666666" points="0,0 0,-138 147.75,-138 147.75,0 0,0"/>
</a>
</g>
</g>
<!-- Node2 -->
<g id="Node000002" class="node">
<title>Node2</title>
<g id="a_Node000002"><a xlink:title=" ">
<polygon fill="white" stroke="none" points="94.38,-228.25 53.38,-228.25 53.38,-174 94.38,-174 94.38,-228.25"/>
<text text-anchor="start" x="57.38" y="-214.75" font-family="Helvetica,sans-Serif" font-size="10.00">IntFlag</text>
<text text-anchor="start" x="72.75" y="-198" font-family="Helvetica,sans-Serif" font-size="10.00"> </text>
<text text-anchor="start" x="72.75" y="-181.25" font-family="Helvetica,sans-Serif" font-size="10.00"> </text>
<polygon fill="#666666" stroke="#666666" points="53.38,-209.5 53.38,-209.5 94.38,-209.5 94.38,-209.5 53.38,-209.5"/>
<polygon fill="#666666" stroke="#666666" points="53.38,-192.75 53.38,-192.75 94.38,-192.75 94.38,-192.75 53.38,-192.75"/>
<polygon fill="none" stroke="#666666" points="53.38,-174 53.38,-228.25 94.38,-228.25 94.38,-174 53.38,-174"/>
</a>
</g>
</g>
<!-- Node2&#45;&gt;Node1 -->
<g id="edge1_Node000001_Node000002" class="edge">
<title>Node2&#45;&gt;Node1</title>
<g id="a_edge1_Node000001_Node000002"><a xlink:title=" ">
<path fill="none" stroke="#63b8ff" d="M73.88,-162.75C73.88,-154.88 73.88,-146.35 73.88,-137.75"/>
<polygon fill="none" stroke="#63b8ff" points="70.38,-162.59 73.88,-172.59 77.38,-162.59 70.38,-162.59"/>
</a>
</g>
</g>
</g>
</svg>
