<?xml version="1.0" encoding="UTF-8" standalone="no"?>
<!DOCTYPE svg PUBLIC "-//W3C//DTD SVG 1.1//EN"
 "http://www.w3.org/Graphics/SVG/1.1/DTD/svg11.dtd">
<!-- Generated by graphviz version 2.49.3 (20211027.1534)
 -->
<!-- Title: set_read_data_format Pages: 1 -->
<svg width="295pt" height="46pt"
 viewBox="0.00 0.00 295.00 46.00" xmlns="http://www.w3.org/2000/svg" xmlns:xlink="http://www.w3.org/1999/xlink">
<g id="graph0" class="graph" transform="scale(1 1) rotate(0) translate(4 42)">
<title>set_read_data_format</title>
<polygon fill="white" stroke="transparent" points="-4,4 -4,-42 291,-42 291,4 -4,4"/>
<!-- Node1 -->
<g id="node1" class="node">
<title>Node1</title>
<g id="a_node1"><a xlink:title="Wrapper to CAEN_FELib_SetReadDataFormat()">
<polygon fill="#bfbfbf" stroke="black" points="120,-0.5 120,-19.5 287,-19.5 287,-0.5 120,-0.5"/>
<text text-anchor="middle" x="203.5" y="-7.5" font-family="Helvetica,sans-Serif" font-size="10.00">set_read_data_format</text>
</a>
</g>
</g>
<!-- Node1&#45;&gt;Node1 -->
<g id="edge4" class="edge">
<title>Node1&#45;&gt;Node1</title>
<path fill="none" stroke="midnightblue" d="M233.44,-28.27C232.59,-33.74 222.61,-38 203.5,-38 175.06,-38 166.84,-28.57 178.84,-19.76"/>
<polygon fill="midnightblue" stroke="midnightblue" points="236.4,-26.41 228.16,-19.76 230.45,-30.1 236.4,-26.41"/>
</g>
<!-- Node2 -->
<g id="node2" class="node">
<title>Node2</title>
<g id="a_node2"><a xlink:href="a00118.html#aca96c568506870ce155c05e5a9b01b11" target="_top" xlink:title="Wrapper to CAEN_FELib_ReadData()">
<polygon fill="white" stroke="black" points="0,-0.5 0,-19.5 84,-19.5 84,-0.5 0,-0.5"/>
<text text-anchor="middle" x="42" y="-7.5" font-family="Helvetica,sans-Serif" font-size="10.00">read_data</text>
</a>
</g>
</g>
<!-- Node1&#45;&gt;Node2 -->
<g id="edge1" class="edge">
<title>Node1&#45;&gt;Node2</title>
<path fill="none" stroke="midnightblue" d="M109.77,-3.33C100.81,-3.44 92.08,-3.67 84.04,-4.01"/>
<polygon fill="midnightblue" stroke="midnightblue" points="109.97,-6.83 119.95,-3.25 109.92,0.17 109.97,-6.83"/>
</g>
<!-- Node2&#45;&gt;Node1 -->
<g id="edge3" class="edge">
<title>Node2&#45;&gt;Node1</title>
<path fill="none" stroke="midnightblue" d="M94.21,-16.35C102.46,-16.59 111.18,-16.72 119.95,-16.75"/>
<polygon fill="midnightblue" stroke="midnightblue" points="94.16,-12.85 84.04,-15.99 93.91,-19.84 94.16,-12.85"/>
</g>
<!-- Node2&#45;&gt;Node2 -->
<g id="edge2" class="edge">
<title>Node2&#45;&gt;Node2</title>
<path fill="none" stroke="midnightblue" d="M71.94,-28.27C71.09,-33.74 61.11,-38 42,-38 13.56,-38 5.34,-28.57 17.34,-19.76"/>
<polygon fill="midnightblue" stroke="midnightblue" points="74.9,-26.41 66.66,-19.76 68.95,-30.1 74.9,-26.41"/>
</g>
</g>
</svg>
