<?xml version="1.0" encoding="UTF-8" standalone="no"?>
<!DOCTYPE svg PUBLIC "-//W3C//DTD SVG 1.1//EN"
 "http://www.w3.org/Graphics/SVG/1.1/DTD/svg11.dtd">
<!-- Generated by graphviz version 2.49.3 (20211027.1534)
 -->
<!-- Title: path Pages: 1 -->
<svg width="294pt" height="96pt"
 viewBox="0.00 0.00 294.12 95.50" xmlns="http://www.w3.org/2000/svg" xmlns:xlink="http://www.w3.org/1999/xlink">
<g id="graph0" class="graph" transform="scale(1 1) rotate(0) translate(4 91.5)">
<title>path</title>
<polygon fill="white" stroke="transparent" points="-4,4 -4,-91.5 290.12,-91.5 290.12,4 -4,4"/>
<!-- Node1 -->
<g id="node1" class="node">
<title>Node1</title>
<g id="a_node1"><a xlink:title="Node absolute path.">
<polygon fill="#bfbfbf" stroke="black" points="233,-22.5 233,-41.5 280,-41.5 280,-22.5 233,-22.5"/>
<text text-anchor="middle" x="256.5" y="-29.5" font-family="Helvetica,sans-Serif" font-size="10.00">path</text>
</a>
</g>
</g>
<!-- Node1&#45;&gt;Node1 -->
<g id="edge3" class="edge">
<title>Node1&#45;&gt;Node1</title>
<path fill="none" stroke="midnightblue" d="M286.12,-49.52C286.11,-55.34 276.23,-60 256.5,-60 227.8,-60 219.95,-50.15 232.96,-41.18"/>
<polygon fill="midnightblue" stroke="midnightblue" points="288.76,-47.19 280.04,-41.18 283.11,-51.32 288.76,-47.19"/>
</g>
<!-- Node2 -->
<g id="node2" class="node">
<title>Node2</title>
<g id="a_node2"><a xlink:href="a00130.html#a773932634d1145aa71c5943a5ff10129" target="_top" xlink:title="Get last error.">
<polygon fill="white" stroke="black" points="0,-39 0,-69 197,-69 197,-39 0,-39"/>
<text text-anchor="start" x="8" y="-57" font-family="Helvetica,sans-Serif" font-size="10.00">caen_felib.lib._Lib.last</text>
<text text-anchor="middle" x="98.5" y="-46" font-family="Helvetica,sans-Serif" font-size="10.00">_error</text>
</a>
</g>
</g>
<!-- Node1&#45;&gt;Node2 -->
<g id="edge1" class="edge">
<title>Node1&#45;&gt;Node2</title>
<path fill="none" stroke="midnightblue" d="M222.79,-36.61C214.98,-37.71 206.24,-38.95 197.12,-40.23"/>
<polygon fill="midnightblue" stroke="midnightblue" points="223.4,-40.06 232.82,-35.2 222.43,-33.13 223.4,-40.06"/>
</g>
<!-- Node3 -->
<g id="node3" class="node">
<title>Node3</title>
<g id="a_node3"><a xlink:href="a00118.html#a44c1c6b558a3bb1e5f628f5999b0ba46" target="_top" xlink:title=" ">
<polygon fill="white" stroke="black" points="71.5,-0.5 71.5,-19.5 125.5,-19.5 125.5,-0.5 71.5,-0.5"/>
<text text-anchor="middle" x="98.5" y="-7.5" font-family="Helvetica,sans-Serif" font-size="10.00">value</text>
</a>
</g>
</g>
<!-- Node1&#45;&gt;Node3 -->
<g id="edge4" class="edge">
<title>Node1&#45;&gt;Node3</title>
<path fill="none" stroke="midnightblue" d="M222.8,-27.39C193.9,-23.31 152.31,-17.45 125.6,-13.68"/>
<polygon fill="midnightblue" stroke="midnightblue" points="222.43,-30.87 232.82,-28.8 223.4,-23.94 222.43,-30.87"/>
</g>
<!-- Node2&#45;&gt;Node2 -->
<g id="edge2" class="edge">
<title>Node2&#45;&gt;Node2</title>
<path fill="none" stroke="midnightblue" d="M126.57,-79.46C123.09,-84.18 113.73,-87.5 98.5,-87.5 73.5,-87.5 64.33,-78.56 70.97,-69.16"/>
<polygon fill="midnightblue" stroke="midnightblue" points="130.05,-78.96 126.03,-69.16 123.06,-79.33 130.05,-78.96"/>
</g>
</g>
</svg>
