<?xml version="1.0" encoding="UTF-8" standalone="no"?>
<!DOCTYPE svg PUBLIC "-//W3C//DTD SVG 1.1//EN"
 "http://www.w3.org/Graphics/SVG/1.1/DTD/svg11.dtd">
<!-- Generated by graphviz version 2.49.3 (20211027.1534)
 -->
<!-- Title: get_path Pages: 1 -->
<svg width="401pt" height="96pt"
 viewBox="0.00 0.00 401.00 95.50" xmlns="http://www.w3.org/2000/svg" xmlns:xlink="http://www.w3.org/1999/xlink">
<g id="graph0" class="graph" transform="scale(1 1) rotate(0) translate(4 91.5)">
<title>get_path</title>
<polygon fill="white" stroke="transparent" points="-4,4 -4,-91.5 397,-91.5 397,4 -4,4"/>
<!-- Node1 -->
<g id="node1" class="node">
<title>Node1</title>
<g id="a_node1"><a xlink:title="Wrapper to CAEN_FELib_GetPath()">
<polygon fill="#bfbfbf" stroke="black" points="316,-22.5 316,-41.5 393,-41.5 393,-22.5 316,-22.5"/>
<text text-anchor="middle" x="354.5" y="-29.5" font-family="Helvetica,sans-Serif" font-size="10.00">get_path</text>
</a>
</g>
</g>
<!-- Node1&#45;&gt;Node1 -->
<g id="edge1" class="edge">
<title>Node1&#45;&gt;Node1</title>
<path fill="none" stroke="midnightblue" d="M372.65,-51.4C371.44,-56.31 365.39,-60 354.5,-60 337.08,-60 332.05,-50.57 339.4,-41.76"/>
<polygon fill="midnightblue" stroke="midnightblue" points="375.95,-50.24 369.6,-41.76 369.28,-52.35 375.95,-50.24"/>
</g>
<!-- Node2 -->
<g id="node2" class="node">
<title>Node2</title>
<g id="a_node2"><a xlink:href="a00118.html#ab73e6efc52ce7a21b22cbf9f3465df91" target="_top" xlink:title="Node absolute path.">
<polygon fill="white" stroke="black" points="233,-22.5 233,-41.5 280,-41.5 280,-22.5 233,-22.5"/>
<text text-anchor="middle" x="256.5" y="-29.5" font-family="Helvetica,sans-Serif" font-size="10.00">path</text>
</a>
</g>
</g>
<!-- Node1&#45;&gt;Node2 -->
<g id="edge2" class="edge">
<title>Node1&#45;&gt;Node2</title>
<path fill="none" stroke="midnightblue" d="M305.78,-32C296.82,-32 287.84,-32 280.1,-32"/>
<polygon fill="midnightblue" stroke="midnightblue" points="305.83,-35.5 315.83,-32 305.83,-28.5 305.83,-35.5"/>
</g>
<!-- Node2&#45;&gt;Node2 -->
<g id="edge5" class="edge">
<title>Node2&#45;&gt;Node2</title>
<path fill="none" stroke="midnightblue" d="M274.65,-51.4C273.44,-56.31 267.39,-60 256.5,-60 239.08,-60 234.05,-50.57 241.4,-41.76"/>
<polygon fill="midnightblue" stroke="midnightblue" points="277.95,-50.24 271.6,-41.76 271.28,-52.35 277.95,-50.24"/>
</g>
<!-- Node3 -->
<g id="node3" class="node">
<title>Node3</title>
<g id="a_node3"><a xlink:href="a00130.html#a773932634d1145aa71c5943a5ff10129" target="_top" xlink:title="Get last error.">
<polygon fill="white" stroke="black" points="0,-39 0,-69 197,-69 197,-39 0,-39"/>
<text text-anchor="start" x="8" y="-57" font-family="Helvetica,sans-Serif" font-size="10.00">caen_felib.lib._Lib.last</text>
<text text-anchor="middle" x="98.5" y="-46" font-family="Helvetica,sans-Serif" font-size="10.00">_error</text>
</a>
</g>
</g>
<!-- Node2&#45;&gt;Node3 -->
<g id="edge3" class="edge">
<title>Node2&#45;&gt;Node3</title>
<path fill="none" stroke="midnightblue" d="M222.79,-36.61C214.98,-37.71 206.24,-38.95 197.12,-40.23"/>
<polygon fill="midnightblue" stroke="midnightblue" points="223.4,-40.06 232.82,-35.2 222.43,-33.13 223.4,-40.06"/>
</g>
<!-- Node4 -->
<g id="node4" class="node">
<title>Node4</title>
<g id="a_node4"><a xlink:href="a00118.html#a44c1c6b558a3bb1e5f628f5999b0ba46" target="_top" xlink:title=" ">
<polygon fill="white" stroke="black" points="71.5,-0.5 71.5,-19.5 125.5,-19.5 125.5,-0.5 71.5,-0.5"/>
<text text-anchor="middle" x="98.5" y="-7.5" font-family="Helvetica,sans-Serif" font-size="10.00">value</text>
</a>
</g>
</g>
<!-- Node2&#45;&gt;Node4 -->
<g id="edge6" class="edge">
<title>Node2&#45;&gt;Node4</title>
<path fill="none" stroke="midnightblue" d="M222.8,-27.39C193.9,-23.31 152.31,-17.45 125.6,-13.68"/>
<polygon fill="midnightblue" stroke="midnightblue" points="222.43,-30.87 232.82,-28.8 223.4,-23.94 222.43,-30.87"/>
</g>
<!-- Node3&#45;&gt;Node3 -->
<g id="edge4" class="edge">
<title>Node3&#45;&gt;Node3</title>
<path fill="none" stroke="midnightblue" d="M126.57,-79.46C123.09,-84.18 113.73,-87.5 98.5,-87.5 73.5,-87.5 64.33,-78.56 70.97,-69.16"/>
<polygon fill="midnightblue" stroke="midnightblue" points="130.05,-78.96 126.03,-69.16 123.06,-79.33 130.05,-78.96"/>
</g>
</g>
</svg>
