<?xml version="1.0" encoding="UTF-8" standalone="no"?>
<!DOCTYPE svg PUBLIC "-//W3C//DTD SVG 1.1//EN"
 "http://www.w3.org/Graphics/SVG/1.1/DTD/svg11.dtd">
<!-- Generated by graphviz version 2.49.3 (20211027.1534)
 -->
<!-- Title: get_node Pages: 1 -->
<svg width="175pt" height="46pt"
 viewBox="0.00 0.00 175.00 46.00" xmlns="http://www.w3.org/2000/svg" xmlns:xlink="http://www.w3.org/1999/xlink">
<g id="graph0" class="graph" transform="scale(1 1) rotate(0) translate(4 42)">
<title>get_node</title>
<polygon fill="white" stroke="transparent" points="-4,4 -4,-42 171,-42 171,4 -4,4"/>
<!-- Node1 -->
<g id="node1" class="node">
<title>Node1</title>
<g id="a_node1"><a xlink:title="Wrapper to CAEN_FELib_GetHandle()">
<polygon fill="#bfbfbf" stroke="black" points="90,-0.5 90,-19.5 167,-19.5 167,-0.5 90,-0.5"/>
<text text-anchor="middle" x="128.5" y="-7.5" font-family="Helvetica,sans-Serif" font-size="10.00">get_node</text>
</a>
</g>
</g>
<!-- Node1&#45;&gt;Node1 -->
<g id="edge1" class="edge">
<title>Node1&#45;&gt;Node1</title>
<path fill="none" stroke="midnightblue" d="M147.02,-29.4C145.78,-34.31 139.61,-38 128.5,-38 110.73,-38 105.59,-28.57 113.09,-19.76"/>
<polygon fill="midnightblue" stroke="midnightblue" points="150.31,-28.2 143.91,-19.76 143.65,-30.35 150.31,-28.2"/>
</g>
<!-- Node2 -->
<g id="node2" class="node">
<title>Node2</title>
<g id="a_node2"><a xlink:href="a00118.html#a44c1c6b558a3bb1e5f628f5999b0ba46" target="_top" xlink:title=" ">
<polygon fill="white" stroke="black" points="0,-0.5 0,-19.5 54,-19.5 54,-0.5 0,-0.5"/>
<text text-anchor="middle" x="27" y="-7.5" font-family="Helvetica,sans-Serif" font-size="10.00">value</text>
</a>
</g>
</g>
<!-- Node1&#45;&gt;Node2 -->
<g id="edge2" class="edge">
<title>Node1&#45;&gt;Node2</title>
<path fill="none" stroke="midnightblue" d="M79.69,-10C70.91,-10 62.06,-10 54.22,-10"/>
<polygon fill="midnightblue" stroke="midnightblue" points="79.88,-13.5 89.88,-10 79.88,-6.5 79.88,-13.5"/>
</g>
</g>
</svg>
