<?xml version="1.0" encoding="UTF-8" standalone="no"?>
<!DOCTYPE svg PUBLIC "-//W3C//DTD SVG 1.1//EN"
 "http://www.w3.org/Graphics/SVG/1.1/DTD/svg11.dtd">
<!-- Generated by graphviz version 2.49.3 (20211027.1534)
 -->
<!-- Title: get_error_name Pages: 1 -->
<svg width="355pt" height="46pt"
 viewBox="0.00 0.00 355.00 46.00" xmlns="http://www.w3.org/2000/svg" xmlns:xlink="http://www.w3.org/1999/xlink">
<g id="graph0" class="graph" transform="scale(1 1) rotate(0) translate(4 42)">
<title>get_error_name</title>
<polygon fill="white" stroke="transparent" points="-4,4 -4,-42 351,-42 351,4 -4,4"/>
<!-- Node1 -->
<g id="node1" class="node">
<title>Node1</title>
<g id="a_node1"><a xlink:title="Wrapper to CAEN_FELib_GetErrorName()">
<polygon fill="#bfbfbf" stroke="black" points="0,-0.5 0,-19.5 122,-19.5 122,-0.5 0,-0.5"/>
<text text-anchor="middle" x="61" y="-7.5" font-family="Helvetica,sans-Serif" font-size="10.00">get_error_name</text>
</a>
</g>
</g>
<!-- Node1&#45;&gt;Node1 -->
<g id="edge2" class="edge">
<title>Node1&#45;&gt;Node1</title>
<path fill="none" stroke="midnightblue" d="M31.72,-19.76C17.47,-28.57 27.23,-38 61,-38 84.74,-38 96.62,-33.34 96.62,-27.5"/>
<polygon fill="midnightblue" stroke="midnightblue" points="99.33,-25.28 90.28,-19.76 93.91,-29.71 99.33,-25.28"/>
</g>
<!-- Node2 -->
<g id="node2" class="node">
<title>Node2</title>
<g id="a_node2"><a xlink:href="a00092.html#ga1f2a4c6b10c677e05c5b47f1c43534cd" target="_top" xlink:title="Get the short name of an error code.">
<polygon fill="white" stroke="black" points="158,-0.5 158,-19.5 347,-19.5 347,-0.5 158,-0.5"/>
<text text-anchor="middle" x="252.5" y="-7.5" font-family="Helvetica,sans-Serif" font-size="10.00">CAEN_FELib_GetErrorName</text>
</a>
</g>
</g>
<!-- Node1&#45;&gt;Node2 -->
<g id="edge1" class="edge">
<title>Node1&#45;&gt;Node2</title>
<path fill="none" stroke="midnightblue" d="M122.22,-10C130.4,-10 138.97,-10 147.65,-10"/>
<polygon fill="midnightblue" stroke="midnightblue" points="147.87,-13.5 157.87,-10 147.87,-6.5 147.87,-13.5"/>
</g>
</g>
</svg>
