<?xml version="1.0" encoding="UTF-8" standalone="no"?>
<!DOCTYPE svg PUBLIC "-//W3C//DTD SVG 1.1//EN"
 "http://www.w3.org/Graphics/SVG/1.1/DTD/svg11.dtd">
<!-- Generated by graphviz version 2.49.3 (20211027.1534)
 -->
<!-- Title: get_value Pages: 1 -->
<svg width="287pt" height="46pt"
 viewBox="0.00 0.00 287.00 46.00" xmlns="http://www.w3.org/2000/svg" xmlns:xlink="http://www.w3.org/1999/xlink">
<g id="graph0" class="graph" transform="scale(1 1) rotate(0) translate(4 42)">
<title>get_value</title>
<polygon fill="white" stroke="transparent" points="-4,4 -4,-42 283,-42 283,4 -4,4"/>
<!-- Node1 -->
<g id="node1" class="node">
<title>Node1</title>
<g id="a_node1"><a xlink:title="Wrapper to CAEN_FELib_GetValue()">
<polygon fill="#bfbfbf" stroke="black" points="0,-0.5 0,-19.5 84,-19.5 84,-0.5 0,-0.5"/>
<text text-anchor="middle" x="42" y="-7.5" font-family="Helvetica,sans-Serif" font-size="10.00">get_value</text>
</a>
</g>
</g>
<!-- Node1&#45;&gt;Node1 -->
<g id="edge2" class="edge">
<title>Node1&#45;&gt;Node1</title>
<path fill="none" stroke="midnightblue" d="M17.96,-19.76C6.26,-28.57 14.27,-38 42,-38 60.2,-38 69.9,-33.94 71.12,-28.65"/>
<polygon fill="midnightblue" stroke="midnightblue" points="74.04,-26.71 66.04,-19.76 67.96,-30.18 74.04,-26.71"/>
</g>
<!-- Node2 -->
<g id="node2" class="node">
<title>Node2</title>
<g id="a_node2"><a xlink:href="a00092.html#gab185d86b3a52a45fcc23d58f61c2a457" target="_top" xlink:title="Get the value of a readable node.">
<polygon fill="white" stroke="black" points="120,-0.5 120,-19.5 279,-19.5 279,-0.5 120,-0.5"/>
<text text-anchor="middle" x="199.5" y="-7.5" font-family="Helvetica,sans-Serif" font-size="10.00">CAEN_FELib_GetValue</text>
</a>
</g>
</g>
<!-- Node1&#45;&gt;Node2 -->
<g id="edge1" class="edge">
<title>Node1&#45;&gt;Node2</title>
<path fill="none" stroke="midnightblue" d="M84.26,-10C92.24,-10 100.88,-10 109.71,-10"/>
<polygon fill="midnightblue" stroke="midnightblue" points="109.74,-13.5 119.74,-10 109.74,-6.5 109.74,-13.5"/>
</g>
</g>
</svg>
