<?xml version="1.0" encoding="UTF-8" standalone="no"?>
<!DOCTYPE svg PUBLIC "-//W3C//DTD SVG 1.1//EN"
 "http://www.w3.org/Graphics/SVG/1.1/DTD/svg11.dtd">
<!-- Generated by graphviz version 2.49.3 (20211027.1534)
 -->
<!-- Title: CacheManager Pages: 1 -->
<svg width="226pt" height="160pt"
 viewBox="0.00 0.00 225.50 160.00" xmlns="http://www.w3.org/2000/svg" xmlns:xlink="http://www.w3.org/1999/xlink">
<g id="graph0" class="graph" transform="scale(1 1) rotate(0) translate(4 156)">
<title>CacheManager</title>
<polygon fill="white" stroke="transparent" points="-4,4 -4,-156 221.5,-156 221.5,4 -4,4"/>
<!-- Node1 -->
<g id="node1" class="node">
<title>Node1</title>
<g id="a_node1"><a xlink:title="A simple list of functions returned by @lru_cache decorator.">
<polygon fill="#bfbfbf" stroke="black" points="25.5,-0.5 25.5,-57.5 139.5,-57.5 139.5,-0.5 25.5,-0.5"/>
<text text-anchor="middle" x="82.5" y="-45.5" font-family="Helvetica,sans-Serif" font-size="10.00">CacheManager</text>
<polyline fill="none" stroke="black" points="25.5,-38.5 139.5,-38.5 "/>
<text text-anchor="middle" x="82.5" y="-26.5" font-family="Helvetica,sans-Serif" font-size="10.00"> </text>
<polyline fill="none" stroke="black" points="25.5,-19.5 139.5,-19.5 "/>
<text text-anchor="start" x="33.5" y="-7.5" font-family="Helvetica,sans-Serif" font-size="10.00">+ clear_all()</text>
</a>
</g>
</g>
<!-- Node2 -->
<g id="node2" class="node">
<title>Node2</title>
<g id="a_node2"><a xlink:title=" ">
<polygon fill="white" stroke="#bfbfbf" points="0,-94.5 0,-151.5 47,-151.5 47,-94.5 0,-94.5"/>
<text text-anchor="middle" x="23.5" y="-139.5" font-family="Helvetica,sans-Serif" font-size="10.00">List</text>
<polyline fill="none" stroke="#bfbfbf" points="0,-132.5 47,-132.5 "/>
<text text-anchor="middle" x="23.5" y="-120.5" font-family="Helvetica,sans-Serif" font-size="10.00"> </text>
<polyline fill="none" stroke="#bfbfbf" points="0,-113.5 47,-113.5 "/>
<text text-anchor="middle" x="23.5" y="-101.5" font-family="Helvetica,sans-Serif" font-size="10.00"> </text>
</a>
</g>
</g>
<!-- Node2&#45;&gt;Node1 -->
<g id="edge1" class="edge">
<title>Node2&#45;&gt;Node1</title>
<path fill="none" stroke="midnightblue" d="M46.62,-85.95C52.67,-76.52 59.09,-66.5 64.81,-57.58"/>
<polygon fill="none" stroke="midnightblue" points="43.65,-84.09 41.2,-94.4 49.55,-87.87 43.65,-84.09"/>
</g>
<!-- Node3 -->
<g id="node3" class="node">
<title>Node3</title>
<g id="a_node3"><a xlink:title=" ">
<polygon fill="white" stroke="#bfbfbf" points="65.5,-94.5 65.5,-151.5 217.5,-151.5 217.5,-94.5 65.5,-94.5"/>
<text text-anchor="middle" x="141.5" y="-139.5" font-family="Helvetica,sans-Serif" font-size="10.00">_lru_cache_wrapper</text>
<polyline fill="none" stroke="#bfbfbf" points="65.5,-132.5 217.5,-132.5 "/>
<text text-anchor="middle" x="141.5" y="-120.5" font-family="Helvetica,sans-Serif" font-size="10.00"> </text>
<polyline fill="none" stroke="#bfbfbf" points="65.5,-113.5 217.5,-113.5 "/>
<text text-anchor="middle" x="141.5" y="-101.5" font-family="Helvetica,sans-Serif" font-size="10.00"> </text>
</a>
</g>
</g>
<!-- Node3&#45;&gt;Node1 -->
<g id="edge2" class="edge">
<title>Node3&#45;&gt;Node1</title>
<path fill="none" stroke="midnightblue" d="M118.38,-85.95C112.33,-76.52 105.91,-66.5 100.19,-57.58"/>
<polygon fill="none" stroke="midnightblue" points="115.45,-87.87 123.8,-94.4 121.35,-84.09 115.45,-87.87"/>
</g>
</g>
</svg>
