<?xml version="1.0" encoding="UTF-8" standalone="no"?>
<!DOCTYPE svg PUBLIC "-//W3C//DTD SVG 1.1//EN"
 "http://www.w3.org/Graphics/SVG/1.1/DTD/svg11.dtd">
<!-- Generated by graphviz version 2.49.3 (20211027.1534)
 -->
<!-- Title: last_error Pages: 1 -->
<svg width="828pt" height="102pt"
 viewBox="0.00 0.00 828.00 102.00" xmlns="http://www.w3.org/2000/svg" xmlns:xlink="http://www.w3.org/1999/xlink">
<g id="graph0" class="graph" transform="scale(1 1) rotate(0) translate(4 98)">
<title>last_error</title>
<polygon fill="white" stroke="transparent" points="-4,4 -4,-98 824,-98 824,4 -4,4"/>
<!-- Node1 -->
<g id="node1" class="node">
<title>Node1</title>
<g id="a_node1"><a xlink:title="Get last error.">
<polygon fill="#bfbfbf" stroke="black" points="0,-28.5 0,-47.5 92,-47.5 92,-28.5 0,-28.5"/>
<text text-anchor="middle" x="46" y="-35.5" font-family="Helvetica,sans-Serif" font-size="10.00">last_error</text>
</a>
</g>
</g>
<!-- Node1&#45;&gt;Node1 -->
<g id="edge4" class="edge">
<title>Node1&#45;&gt;Node1</title>
<path fill="none" stroke="midnightblue" d="M16.72,-47.76C2.47,-56.57 12.23,-66 46,-66 69.74,-66 81.62,-61.34 81.62,-55.5"/>
<polygon fill="midnightblue" stroke="midnightblue" points="84.33,-53.28 75.28,-47.76 78.91,-57.71 84.33,-53.28"/>
</g>
<!-- Node2 -->
<g id="node2" class="node">
<title>Node2</title>
<g id="a_node2"><a xlink:href="a00130.html#ab3e42e4f90f4ab300c74adb950cfa477" target="_top" xlink:title="Wrapper to CAEN_FELib_GetLastError()">
<polygon fill="white" stroke="black" points="176.5,-56.5 176.5,-75.5 298.5,-75.5 298.5,-56.5 176.5,-56.5"/>
<text text-anchor="middle" x="237.5" y="-63.5" font-family="Helvetica,sans-Serif" font-size="10.00">get_last_error</text>
</a>
</g>
</g>
<!-- Node1&#45;&gt;Node2 -->
<g id="edge1" class="edge">
<title>Node1&#45;&gt;Node2</title>
<path fill="none" stroke="midnightblue" d="M92.39,-44.71C114.52,-47.98 141.64,-51.98 166.36,-55.64"/>
<polygon fill="midnightblue" stroke="midnightblue" points="166.02,-59.12 176.43,-57.12 167.04,-52.2 166.02,-59.12"/>
</g>
<!-- Node4 -->
<g id="node4" class="node">
<title>Node4</title>
<g id="a_node4"><a xlink:href="a00118.html#ab73e6efc52ce7a21b22cbf9f3465df91" target="_top" xlink:title="Node absolute path.">
<polygon fill="white" stroke="black" points="128,-0.5 128,-19.5 347,-19.5 347,-0.5 128,-0.5"/>
<text text-anchor="middle" x="237.5" y="-7.5" font-family="Helvetica,sans-Serif" font-size="10.00">caen_felib.device.Node.path</text>
</a>
</g>
</g>
<!-- Node1&#45;&gt;Node4 -->
<g id="edge5" class="edge">
<title>Node1&#45;&gt;Node4</title>
<path fill="none" stroke="midnightblue" d="M92.39,-31.29C113.28,-28.21 138.6,-24.47 162.16,-20.98"/>
<polygon fill="midnightblue" stroke="midnightblue" points="162.75,-24.44 172.13,-19.51 161.73,-17.51 162.75,-24.44"/>
</g>
<!-- Node2&#45;&gt;Node2 -->
<g id="edge3" class="edge">
<title>Node2&#45;&gt;Node2</title>
<path fill="none" stroke="midnightblue" d="M208.22,-75.76C193.97,-84.57 203.73,-94 237.5,-94 261.24,-94 273.12,-89.34 273.12,-83.5"/>
<polygon fill="midnightblue" stroke="midnightblue" points="275.83,-81.28 266.78,-75.76 270.41,-85.71 275.83,-81.28"/>
</g>
<!-- Node3 -->
<g id="node3" class="node">
<title>Node3</title>
<g id="a_node3"><a xlink:href="a00092.html#ga47f4413870b3b50523ba02405860dda9" target="_top" xlink:title="Get the detailed description of the last error occurred on the current thread for a device.">
<polygon fill="white" stroke="black" points="413,-56.5 413,-75.5 602,-75.5 602,-56.5 413,-56.5"/>
<text text-anchor="middle" x="507.5" y="-63.5" font-family="Helvetica,sans-Serif" font-size="10.00">CAEN_FELib_GetLastError</text>
</a>
</g>
</g>
<!-- Node2&#45;&gt;Node3 -->
<g id="edge2" class="edge">
<title>Node2&#45;&gt;Node3</title>
<path fill="none" stroke="midnightblue" d="M298.64,-66C329.27,-66 367.37,-66 402.56,-66"/>
<polygon fill="midnightblue" stroke="midnightblue" points="402.88,-69.5 412.88,-66 402.88,-62.5 402.88,-69.5"/>
</g>
<!-- Node4&#45;&gt;Node4 -->
<g id="edge9" class="edge">
<title>Node4&#45;&gt;Node4</title>
<path fill="none" stroke="midnightblue" d="M208.22,-19.76C193.97,-28.57 203.73,-38 237.5,-38 261.24,-38 273.12,-33.34 273.12,-27.5"/>
<polygon fill="midnightblue" stroke="midnightblue" points="275.83,-25.28 266.78,-19.76 270.41,-29.71 275.83,-25.28"/>
</g>
<!-- Node5 -->
<g id="node5" class="node">
<title>Node5</title>
<g id="a_node5"><a xlink:href="a00118.html#aa71a67fa5e66158c8d03b25aa9dec9e6" target="_top" xlink:title="Wrapper to CAEN_FELib_GetPath()">
<polygon fill="white" stroke="black" points="383,-0.5 383,-19.5 632,-19.5 632,-0.5 383,-0.5"/>
<text text-anchor="middle" x="507.5" y="-7.5" font-family="Helvetica,sans-Serif" font-size="10.00">caen_felib.device.Node.get_path</text>
</a>
</g>
</g>
<!-- Node4&#45;&gt;Node5 -->
<g id="edge6" class="edge">
<title>Node4&#45;&gt;Node5</title>
<path fill="none" stroke="midnightblue" d="M347.12,-10C355.57,-10 364.15,-10 372.74,-10"/>
<polygon fill="midnightblue" stroke="midnightblue" points="372.81,-13.5 382.81,-10 372.81,-6.5 372.81,-13.5"/>
</g>
<!-- Node5&#45;&gt;Node5 -->
<g id="edge8" class="edge">
<title>Node5&#45;&gt;Node5</title>
<path fill="none" stroke="midnightblue" d="M471.42,-19.61C453.3,-28.46 465.32,-38 507.5,-38 539.13,-38 553.8,-32.63 551.52,-26.22"/>
<polygon fill="midnightblue" stroke="midnightblue" points="553.51,-23.32 543.58,-19.61 549.03,-28.7 553.51,-23.32"/>
</g>
<!-- Node6 -->
<g id="node6" class="node">
<title>Node6</title>
<g id="a_node6"><a xlink:href="a00092.html#gacf9d43143f79079c83ff5c37c27cd1a3" target="_top" xlink:title="Get the absolute path of a node.">
<polygon fill="white" stroke="black" points="668,-0.5 668,-19.5 820,-19.5 820,-0.5 668,-0.5"/>
<text text-anchor="middle" x="744" y="-7.5" font-family="Helvetica,sans-Serif" font-size="10.00">CAEN_FELib_GetPath</text>
</a>
</g>
</g>
<!-- Node5&#45;&gt;Node6 -->
<g id="edge7" class="edge">
<title>Node5&#45;&gt;Node6</title>
<path fill="none" stroke="midnightblue" d="M632.27,-10C640.88,-10 649.45,-10 657.78,-10"/>
<polygon fill="midnightblue" stroke="midnightblue" points="657.81,-13.5 667.81,-10 657.81,-6.5 657.81,-13.5"/>
</g>
</g>
</svg>
