<?xml version="1.0" encoding="UTF-8" standalone="no"?>
<!DOCTYPE svg PUBLIC "-//W3C//DTD SVG 1.1//EN"
 "http://www.w3.org/Graphics/SVG/1.1/DTD/svg11.dtd">
<!-- Generated by graphviz version 2.49.3 (20211027.1534)
 -->
<!-- Title: Graph Legend Pages: 1 -->
<svg width="665pt" height="159pt"
 viewBox="0.00 0.00 664.50 159.00" xmlns="http://www.w3.org/2000/svg" xmlns:xlink="http://www.w3.org/1999/xlink">
<g id="graph0" class="graph" transform="scale(1 1) rotate(0) translate(4 155)">
<title>Graph Legend</title>
<polygon fill="white" stroke="transparent" points="-4,4 -4,-155 660.5,-155 660.5,4 -4,4"/>
<!-- Node9 -->
<g id="node1" class="node">
<title>Node9</title>
<polygon fill="#bfbfbf" stroke="black" points="394,-19 310,-19 310,0 394,0 394,-19"/>
<text text-anchor="middle" x="352" y="-7" font-family="Helvetica,sans-Serif" font-size="10.00">Inherited</text>
</g>
<!-- Node10 -->
<g id="node2" class="node">
<title>Node10</title>
<polygon fill="none" stroke="black" points="92,-85 0,-85 0,-66 92,-66 92,-85"/>
<text text-anchor="middle" x="46" y="-73" font-family="Helvetica,sans-Serif" font-size="10.00">PublicBase</text>
</g>
<!-- Node10&#45;&gt;Node9 -->
<g id="edge1" class="edge">
<title>Node10&#45;&gt;Node9</title>
<path fill="none" stroke="midnightblue" d="M96.99,-63.84C157.16,-51.25 256,-30.58 311.29,-19.01"/>
<polygon fill="midnightblue" stroke="midnightblue" points="96.02,-60.46 86.95,-65.94 97.46,-67.31 96.02,-60.46"/>
</g>
<!-- Node11 -->
<g id="node3" class="node">
<title>Node11</title>
<polygon fill="none" stroke="red" points="88,-151 4,-151 4,-132 88,-132 88,-151"/>
<text text-anchor="middle" x="46" y="-139" font-family="Helvetica,sans-Serif" font-size="10.00">Truncated</text>
</g>
<!-- Node11&#45;&gt;Node10 -->
<g id="edge2" class="edge">
<title>Node11&#45;&gt;Node10</title>
<path fill="none" stroke="midnightblue" d="M46,-121.58C46,-109.63 46,-94.72 46,-85.41"/>
<polygon fill="midnightblue" stroke="midnightblue" points="42.5,-121.87 46,-131.87 49.5,-121.87 42.5,-121.87"/>
</g>
<!-- Node13 -->
<g id="node4" class="node">
<title>Node13</title>
<polygon fill="none" stroke="black" points="224,-85 110,-85 110,-66 224,-66 224,-85"/>
<text text-anchor="middle" x="167" y="-73" font-family="Helvetica,sans-Serif" font-size="10.00">ProtectedBase</text>
</g>
<!-- Node13&#45;&gt;Node9 -->
<g id="edge3" class="edge">
<title>Node13&#45;&gt;Node9</title>
<path fill="none" stroke="darkgreen" d="M201.68,-62.5C238.22,-49.86 294.84,-30.28 327.15,-19.1"/>
<polygon fill="darkgreen" stroke="darkgreen" points="200.26,-59.29 191.95,-65.87 202.54,-65.91 200.26,-59.29"/>
</g>
<!-- Node14 -->
<g id="node5" class="node">
<title>Node14</title>
<polygon fill="none" stroke="black" points="341.5,-85 242.5,-85 242.5,-66 341.5,-66 341.5,-85"/>
<text text-anchor="middle" x="292" y="-73" font-family="Helvetica,sans-Serif" font-size="10.00">PrivateBase</text>
</g>
<!-- Node14&#45;&gt;Node9 -->
<g id="edge4" class="edge">
<title>Node14&#45;&gt;Node9</title>
<path fill="none" stroke="#8b1a1a" d="M307.02,-58.48C318.6,-46.12 334.2,-29.49 343.65,-19.41"/>
<polygon fill="#8b1a1a" stroke="#8b1a1a" points="304.38,-56.18 300.09,-65.87 309.48,-60.97 304.38,-56.18"/>
</g>
<!-- Node15 -->
<g id="node6" class="node">
<title>Node15</title>
<polygon fill="none" stroke="#bfbfbf" points="466.5,-85 359.5,-85 359.5,-66 466.5,-66 466.5,-85"/>
<text text-anchor="middle" x="413" y="-73" font-family="Helvetica,sans-Serif" font-size="10.00">Undocumented</text>
</g>
<!-- Node15&#45;&gt;Node9 -->
<g id="edge5" class="edge">
<title>Node15&#45;&gt;Node9</title>
<path fill="none" stroke="midnightblue" d="M397.73,-58.48C385.95,-46.12 370.1,-29.49 360.49,-19.41"/>
<polygon fill="midnightblue" stroke="midnightblue" points="395.34,-61.04 404.77,-65.87 400.41,-56.22 395.34,-61.04"/>
</g>
<!-- Node16 -->
<g id="node7" class="node">
<title>Node16</title>
<polygon fill="none" stroke="black" points="591.5,-85 484.5,-85 484.5,-66 591.5,-66 591.5,-85"/>
<text text-anchor="middle" x="538" y="-73" font-family="Helvetica,sans-Serif" font-size="10.00">Templ&lt; int &gt;</text>
</g>
<!-- Node16&#45;&gt;Node9 -->
<g id="edge6" class="edge">
<title>Node16&#45;&gt;Node9</title>
<path fill="none" stroke="midnightblue" d="M503.13,-62.5C466.4,-49.86 409.47,-30.28 376.98,-19.1"/>
<polygon fill="midnightblue" stroke="midnightblue" points="502.32,-65.92 512.92,-65.87 504.6,-59.31 502.32,-65.92"/>
</g>
<!-- Node17 -->
<g id="node8" class="node">
<title>Node17</title>
<polygon fill="none" stroke="black" points="584,-151 492,-151 492,-132 584,-132 584,-151"/>
<text text-anchor="middle" x="538" y="-139" font-family="Helvetica,sans-Serif" font-size="10.00">Templ&lt; T &gt;</text>
</g>
<!-- Node17&#45;&gt;Node16 -->
<g id="edge7" class="edge">
<title>Node17&#45;&gt;Node16</title>
<path fill="none" stroke="orange" stroke-dasharray="5,2" d="M538,-121.58C538,-109.63 538,-94.72 538,-85.41"/>
<polygon fill="orange" stroke="orange" points="534.5,-121.87 538,-131.87 541.5,-121.87 534.5,-121.87"/>
<text text-anchor="middle" x="564.5" y="-106" font-family="Helvetica,sans-Serif" font-size="10.00">&lt; int &gt;</text>
</g>
<!-- Node18 -->
<g id="node9" class="node">
<title>Node18</title>
<polygon fill="none" stroke="black" points="656.5,-85 609.5,-85 609.5,-66 656.5,-66 656.5,-85"/>
<text text-anchor="middle" x="633" y="-73" font-family="Helvetica,sans-Serif" font-size="10.00">Used</text>
</g>
<!-- Node18&#45;&gt;Node9 -->
<g id="edge8" class="edge">
<title>Node18&#45;&gt;Node9</title>
<path fill="none" stroke="#9a32cd" stroke-dasharray="5,2" d="M599.23,-65.63C520.88,-46.63 440.03,-29.1 392.66,-19.04"/>
<polygon fill="#9a32cd" stroke="#9a32cd" points="598.72,-69.11 609.26,-68.08 600.37,-62.31 598.72,-69.11"/>
<text text-anchor="middle" x="560.5" y="-40" font-family="Helvetica,sans-Serif" font-size="10.00">m_usedClass</text>
</g>
</g>
</svg>
