<?xml version="1.0" encoding="UTF-8" standalone="no"?>
<!DOCTYPE svg PUBLIC "-//W3C//DTD SVG 1.1//EN"
 "http://www.w3.org/Graphics/SVG/1.1/DTD/svg11.dtd">
<!-- Generated by graphviz version 2.49.3 (20211027.1534)
 -->
<!-- Title: Graphical Class Hierarchy Pages: 1 -->
<svg width="265pt" height="104pt"
 viewBox="0.00 0.00 265.00 104.00" xmlns="http://www.w3.org/2000/svg" xmlns:xlink="http://www.w3.org/1999/xlink">
<g id="graph0" class="graph" transform="scale(1 1) rotate(0) translate(4 100)">
<title>Graphical Class Hierarchy</title>
<polygon fill="white" stroke="transparent" points="-4,4 -4,-100 261,-100 261,4 -4,4"/>
<!-- Node3 -->
<g id="node1" class="node">
<title>Node3</title>
<g id="a_node1"><a xlink:title=" ">
<polygon fill="white" stroke="#bfbfbf" points="15,-76.5 15,-95.5 69,-95.5 69,-76.5 15,-76.5"/>
<text text-anchor="middle" x="42" y="-83.5" font-family="Helvetica,sans-Serif" font-size="10.00">False</text>
</a>
</g>
</g>
<!-- Node0 -->
<g id="node2" class="node">
<title>Node0</title>
<g id="a_node2"><a xlink:href="a00110.html" target="_top" xlink:title=" ">
<polygon fill="white" stroke="black" points="120,-38.5 120,-57.5 257,-57.5 257,-38.5 120,-38.5"/>
<text text-anchor="middle" x="188.5" y="-45.5" font-family="Helvetica,sans-Serif" font-size="10.00">_Data._DataField</text>
</a>
</g>
</g>
<!-- Node3&#45;&gt;Node0 -->
<g id="edge1" class="edge">
<title>Node3&#45;&gt;Node0</title>
<path fill="none" stroke="midnightblue" d="M79.12,-76.5C101.13,-70.71 129.16,-63.34 151.2,-57.55"/>
<polygon fill="midnightblue" stroke="midnightblue" points="77.95,-73.19 69.17,-79.12 79.73,-79.96 77.95,-73.19"/>
</g>
<!-- Node8 -->
<g id="node3" class="node">
<title>Node8</title>
<g id="a_node3"><a xlink:title=" ">
<polygon fill="white" stroke="#bfbfbf" points="15,-38.5 15,-57.5 69,-57.5 69,-38.5 15,-38.5"/>
<text text-anchor="middle" x="42" y="-45.5" font-family="Helvetica,sans-Serif" font-size="10.00">total</text>
</a>
</g>
</g>
<!-- Node8&#45;&gt;Node0 -->
<g id="edge2" class="edge">
<title>Node8&#45;&gt;Node0</title>
<path fill="none" stroke="midnightblue" d="M79.48,-48C91.82,-48 106.03,-48 120,-48"/>
<polygon fill="midnightblue" stroke="midnightblue" points="79.17,-44.5 69.17,-48 79.17,-51.5 79.17,-44.5"/>
</g>
<!-- Node15 -->
<g id="node4" class="node">
<title>Node15</title>
<g id="a_node4"><a xlink:title=" ">
<polygon fill="white" stroke="#bfbfbf" points="0,-0.5 0,-19.5 84,-19.5 84,-0.5 0,-0.5"/>
<text text-anchor="middle" x="42" y="-7.5" font-family="Helvetica,sans-Serif" font-size="10.00">TypedDict</text>
</a>
</g>
</g>
<!-- Node15&#45;&gt;Node0 -->
<g id="edge3" class="edge">
<title>Node15&#45;&gt;Node0</title>
<path fill="none" stroke="midnightblue" d="M89.33,-22.18C109.39,-27.46 132.53,-33.54 151.3,-38.48"/>
<polygon fill="midnightblue" stroke="midnightblue" points="90.02,-18.75 79.46,-19.59 88.24,-25.52 90.02,-18.75"/>
</g>
</g>
</svg>
