<?xml version="1.0" encoding="UTF-8" standalone="no"?>
<!DOCTYPE svg PUBLIC "-//W3C//DTD SVG 1.1//EN"
 "http://www.w3.org/Graphics/SVG/1.1/DTD/svg11.dtd">
<!-- Generated by graphviz version 2.49.3 (20211027.1534)
 -->
<!-- Title: Graphical Class Hierarchy Pages: 1 -->
<svg width="197pt" height="66pt"
 viewBox="0.00 0.00 197.00 66.00" xmlns="http://www.w3.org/2000/svg" xmlns:xlink="http://www.w3.org/1999/xlink">
<g id="graph0" class="graph" transform="scale(1 1) rotate(0) translate(4 62)">
<title>Graphical Class Hierarchy</title>
<polygon fill="white" stroke="transparent" points="-4,4 -4,-62 193,-62 193,4 -4,4"/>
<!-- Node11 -->
<g id="node1" class="node">
<title>Node11</title>
<g id="a_node1"><a xlink:title=" ">
<polygon fill="white" stroke="#bfbfbf" points="0,-19.5 0,-38.5 69,-38.5 69,-19.5 0,-19.5"/>
<text text-anchor="middle" x="34.5" y="-26.5" font-family="Helvetica,sans-Serif" font-size="10.00">IntEnum</text>
</a>
</g>
</g>
<!-- Node0 -->
<g id="node2" class="node">
<title>Node0</title>
<g id="a_node2"><a xlink:href="a00114.html" target="_top" xlink:title="Wrapper to CAEN_FELib_NodeType_t.">
<polygon fill="white" stroke="black" points="108.5,-38.5 108.5,-57.5 185.5,-57.5 185.5,-38.5 108.5,-38.5"/>
<text text-anchor="middle" x="147" y="-45.5" font-family="Helvetica,sans-Serif" font-size="10.00">NodeType</text>
</a>
</g>
</g>
<!-- Node11&#45;&gt;Node0 -->
<g id="edge1" class="edge">
<title>Node11&#45;&gt;Node0</title>
<path fill="none" stroke="midnightblue" d="M79.37,-36.54C88.91,-38.18 98.93,-39.91 108.21,-41.5"/>
<polygon fill="midnightblue" stroke="midnightblue" points="79.7,-33.05 69.25,-34.8 78.52,-39.95 79.7,-33.05"/>
</g>
<!-- Node13 -->
<g id="node3" class="node">
<title>Node13</title>
<g id="a_node3"><a xlink:href="a00122.html" target="_top" xlink:title="Wrapper to CAEN_FELib_ErrorCode.">
<polygon fill="white" stroke="black" points="105,-0.5 105,-19.5 189,-19.5 189,-0.5 105,-0.5"/>
<text text-anchor="middle" x="147" y="-7.5" font-family="Helvetica,sans-Serif" font-size="10.00">ErrorCode</text>
</a>
</g>
</g>
<!-- Node11&#45;&gt;Node13 -->
<g id="edge2" class="edge">
<title>Node11&#45;&gt;Node13</title>
<path fill="none" stroke="midnightblue" d="M79.23,-21.48C87.61,-20.04 96.36,-18.54 104.66,-17.11"/>
<polygon fill="midnightblue" stroke="midnightblue" points="78.52,-18.05 69.25,-23.2 79.7,-24.95 78.52,-18.05"/>
</g>
</g>
</svg>
