<?xml version="1.0" encoding="UTF-8" standalone="no"?>
<!DOCTYPE svg PUBLIC "-//W3C//DTD SVG 1.1//EN"
 "http://www.w3.org/Graphics/SVG/1.1/DTD/svg11.dtd">
<!-- Generated by graphviz version 12.2.1 (20241206.2353)
 -->
<!-- Title: Graphical Class Hierarchy Pages: 1 -->
<svg width="205pt" height="146pt"
 viewBox="0.00 0.00 205.00 145.75" xmlns="http://www.w3.org/2000/svg" xmlns:xlink="http://www.w3.org/1999/xlink">
<g id="graph0" class="graph" transform="scale(1 1) rotate(0) translate(4 141.75)">
<title>Graphical Class Hierarchy</title>
<!-- Node0 -->
<g id="Node000000" class="node">
<title>Node0</title>
<g id="a_Node000000"><a xlink:title=" ">
<polygon fill="#e0e0e0" stroke="#999999" points="49,-78.75 0,-78.75 0,-58 49,-58 49,-78.75"/>
<text text-anchor="middle" x="24.5" y="-65.25" font-family="Helvetica,sans-Serif" font-size="10.00">IntFlag</text>
</a>
</g>
</g>
<!-- Node1 -->
<g id="Node000001" class="node">
<title>Node1</title>
<g id="a_Node000001"><a xlink:href="a00142.html" target="_top" xlink:title="Flags on Dig1 DPP events.">
<polygon fill="white" stroke="#666666" points="170.75,-137.75 111.25,-137.75 111.25,-117 170.75,-117 170.75,-137.75"/>
<text text-anchor="middle" x="141" y="-124.25" font-family="Helvetica,sans-Serif" font-size="10.00">DppFlags</text>
</a>
</g>
</g>
<!-- Node0&#45;&gt;Node1 -->
<g id="edge8_Node000000_Node000001" class="edge">
<title>Node0&#45;&gt;Node1</title>
<g id="a_edge8_Node000000_Node000001"><a xlink:title=" ">
<path fill="none" stroke="#63b8ff" d="M49.01,-85.6C59.66,-92.92 72.62,-101.17 85,-107.38 93.18,-111.47 102.4,-115.16 110.93,-118.22"/>
<polygon fill="#63b8ff" stroke="#63b8ff" points="51.04,-82.74 40.85,-79.84 47,-88.46 51.04,-82.74"/>
</a>
</g>
</g>
<!-- Node2 -->
<g id="Node000002" class="node">
<title>Node2</title>
<g id="a_Node000002"><a xlink:href="a00154.html" target="_top" xlink:title="High priority flags on Dig2 DPP&#45;PHA events.">
<polygon fill="white" stroke="#666666" points="197,-98.75 85,-98.75 85,-78 197,-78 197,-98.75"/>
<text text-anchor="middle" x="141" y="-85.25" font-family="Helvetica,sans-Serif" font-size="10.00">HighPriorityFlagsPha</text>
</a>
</g>
</g>
<!-- Node0&#45;&gt;Node2 -->
<g id="edge9_Node000000_Node000002" class="edge">
<title>Node0&#45;&gt;Node2</title>
<g id="a_edge9_Node000000_Node000002"><a xlink:title=" ">
<path fill="none" stroke="#63b8ff" d="M60.33,-74.46C68.03,-75.8 76.37,-77.26 84.67,-78.71"/>
<polygon fill="#63b8ff" stroke="#63b8ff" points="61.17,-71.05 50.72,-72.78 59.96,-77.95 61.17,-71.05"/>
</a>
</g>
</g>
<!-- Node3 -->
<g id="Node000003" class="node">
<title>Node3</title>
<g id="a_Node000003"><a xlink:href="a00158.html" target="_top" xlink:title="High priority flags on Dig2 DPP&#45;PSD events.">
<polygon fill="white" stroke="#666666" points="196.62,-59.75 85.38,-59.75 85.38,-39 196.62,-39 196.62,-59.75"/>
<text text-anchor="middle" x="141" y="-46.25" font-family="Helvetica,sans-Serif" font-size="10.00">HighPriorityFlagsPsd</text>
</a>
</g>
</g>
<!-- Node0&#45;&gt;Node3 -->
<g id="edge10_Node000000_Node000003" class="edge">
<title>Node0&#45;&gt;Node3</title>
<g id="a_edge10_Node000000_Node000003"><a xlink:title=" ">
<path fill="none" stroke="#63b8ff" d="M60.48,-62.57C68.28,-61.28 76.75,-59.87 85.14,-58.48"/>
<polygon fill="#63b8ff" stroke="#63b8ff" points="60.01,-59.1 50.72,-64.19 61.16,-66.01 60.01,-59.1"/>
</a>
</g>
</g>
<!-- Node4 -->
<g id="Node000004" class="node">
<title>Node4</title>
<g id="a_Node000004"><a xlink:href="a00162.html" target="_top" xlink:title="Low priority flags on Dig2 DPP&#45;PHA and DPP&#45;PSD events.">
<polygon fill="white" stroke="#666666" points="186.88,-20.75 95.12,-20.75 95.12,0 186.88,0 186.88,-20.75"/>
<text text-anchor="middle" x="141" y="-7.25" font-family="Helvetica,sans-Serif" font-size="10.00">LowPriorityFlags</text>
</a>
</g>
</g>
<!-- Node0&#45;&gt;Node4 -->
<g id="edge11_Node000000_Node000004" class="edge">
<title>Node0&#45;&gt;Node4</title>
<g id="a_edge11_Node000000_Node000004"><a xlink:title=" ">
<path fill="none" stroke="#63b8ff" d="M49.5,-51.34C60.08,-44.29 72.84,-36.38 85,-30.38 91.83,-27 99.38,-23.89 106.64,-21.17"/>
<polygon fill="#63b8ff" stroke="#63b8ff" points="47.66,-48.36 41.38,-56.89 51.61,-54.14 47.66,-48.36"/>
</a>
</g>
</g>
</g>
</svg>
